<?xml version="1.0" encoding="utf-8"?>
<!-- Generator: Adobe Illustrator 27.4.1, SVG Export Plug-In . SVG Version: 6.00 Build 0)  -->
<svg version="1.1" id="_Слой_1" xmlns="http://www.w3.org/2000/svg" xmlns:xlink="http://www.w3.org/1999/xlink" x="0px"
	 y="0px" viewBox="0 0 67.2 67.2" style="enable-background:new 0 0 67.2 67.2;" xml:space="preserve">
<style type="text/css">
	.st0{stroke:#000000;stroke-miterlimit:10;}
</style>
<g>
	<g>
		<path class="st0" d="M6.7,20c0.1-1.3,0.2-2.5,0.3-3.7c0.1-0.7,0.2-0.8,0.8-0.8c0.6,0,1.2,0,1.9,0c0.1-0.8,0.1-1.6,0.2-2.3
			c0-0.4,0.2-0.6,0.6-0.7c4.5-0.3,9-0.2,13.4,0.9c3.5,0.9,6.6,2.6,9,5.3c0.2,0.2,0.4,0.5,0.6,0.8c0.2-0.2,0.4-0.5,0.6-0.7
			c2.3-2.7,5.3-4.3,8.7-5.3c3.9-1.1,8-1.3,12-1.1c0.6,0,1.2,0.1,1.7,0.1c0.4,0,0.6,0.2,0.6,0.7c0,0.7,0.1,1.5,0.2,2.2
			c0,0,0,0.1,0.1,0.1c0.6,0,1.2,0,1.9,0c0.6,0,0.8,0.1,0.8,0.7c0.1,1.2,0.2,2.4,0.3,3.7c0.6,0,1.1,0,1.6,0c0.7,0,0.8,0.1,0.9,0.8
			c0.2,2.8,0.5,5.5,0.7,8.3c0.5,5.6,1,11.1,1.5,16.7c0.2,2,0.3,4,0.5,5.9c0.1,0.8-0.1,0.9-0.9,0.9c-8.9,0-17.7,0-26.6,0
			c-0.4,0-0.6,0.1-0.9,0.5c-0.6,1-1.6,1.4-2.7,1.6c-1.3,0.2-2.6,0.1-3.7-0.6c-0.4-0.3-0.7-0.7-1.1-1.1c-0.1-0.1-0.3-0.2-0.5-0.3
			c-0.1,0-0.3,0-0.4,0c-8.8,0-17.7,0-26.5,0c-0.8,0-0.9-0.1-0.8-0.9c0.4-4.1,0.7-8.2,1.1-12.3c0.4-4.3,0.7-8.6,1.1-12.9
			c0.2-2,0.3-3.9,0.5-5.9C4.3,20.2,4.5,20,5,20C5.5,20,6.1,20,6.7,20z M56.2,13.6c-0.4,0-0.7-0.1-1-0.1c-3.9-0.2-7.8-0.1-11.6,0.9
			c-3.7,1-6.8,2.7-9.2,5.7c-0.2,0.3-0.3,0.7-0.3,1c0,9.7,0,19.4,0,29.1c0,0.2,0,0.3,0,0.6c7.2-5.6,15.3-7.7,24.2-7.5
			C57.7,33.4,56.9,23.6,56.2,13.6z M11,13.6c-0.7,10-1.4,19.9-2.1,29.8c4.4-0.1,8.6,0.4,12.8,1.6c4.2,1.2,7.9,3.2,11.5,5.9
			c0-0.4,0-0.7,0-1.1c0-9.6,0-19.2,0-28.8c0-0.3-0.1-0.6-0.3-0.8c-2.1-2.8-4.9-4.5-8.1-5.5c-3.6-1.1-7.4-1.4-11.2-1.3
			C12.7,13.5,11.8,13.6,11,13.6z M5.3,21.1C4.4,31.3,3.5,41.4,2.7,51.5c9.1,0,18.1,0,27.2,0c-0.1-0.1-0.1-0.1-0.2-0.2
			c-3.7-1.1-7.4-2-11.1-2.5c-4.3-0.7-8.6-1-13-1c-0.9,0-1-0.1-0.9-1c0.2-2.3,0.4-4.6,0.6-6.9c0.5-5.8,0.9-11.5,1.4-17.3
			c0-0.5,0.1-1,0.1-1.5C6.2,21.1,5.8,21.1,5.3,21.1z M60.6,21.1c0,0.3,0,0.6,0,0.8c0.3,4.3,0.7,8.7,1,13c0.3,3.9,0.6,7.9,0.9,11.8
			c0.1,0.9,0,1.1-0.9,1.1c-6.3,0-12.5,0.7-18.6,2.1c-1.9,0.5-3.8,1-5.7,1.5c0,0,0,0.1,0,0.1c9.1,0,18.1,0,27.2,0
			c-0.9-10.2-1.8-20.3-2.7-30.4C61.4,21.1,61,21.1,60.6,21.1z M30.4,50.4c0,0-0.1-0.1-0.1-0.1c-1.9-1.3-3.9-2.3-6-3.2
			c-5-2-10.3-2.7-15.7-2.6c-0.8,0-0.9-0.1-0.8-0.9c0.3-4.2,0.6-8.3,0.9-12.5c0.3-4,0.6-8.1,0.9-12.1c0.1-0.8,0.1-1.5,0.2-2.3
			c-0.4,0-0.8,0-1.2,0c-0.3,0-0.4,0.1-0.5,0.4c-0.4,4.7-0.7,9.3-1.1,14C6.6,35,6.3,38.9,6,42.8c-0.1,1.3-0.2,2.6-0.3,3.9
			c4.2,0,8.4,0.3,12.5,1C22.3,48.3,26.4,49.3,30.4,50.4z M57.6,16.7c0,0.2,0,0.4,0,0.5c0.1,1.6,0.2,3.2,0.3,4.9
			c0.5,7.2,1,14.4,1.6,21.7c0,0.6-0.1,0.8-0.8,0.8c-1.8,0-3.5,0-5.3,0.2c-5.2,0.4-10.1,1.8-14.6,4.4c-0.7,0.4-1.4,0.8-2,1.2
			c8.1-2.4,16.3-3.6,24.7-3.6c-0.8-10.1-1.6-20.1-2.4-30C58.6,16.7,58.1,16.7,57.6,16.7z M36.2,52.7c-1.8,0-3.5,0-5.3,0
			C31.9,54,35.4,54,36.2,52.7z"/>
	</g>
</g>
</svg>
