<?xml version="1.0" encoding="utf-8"?>
<!-- Generator: Adobe Illustrator 27.4.1, SVG Export Plug-In . SVG Version: 6.00 Build 0)  -->
<svg version="1.1" id="_Слой_1" xmlns="http://www.w3.org/2000/svg" xmlns:xlink="http://www.w3.org/1999/xlink" x="0px"
	 y="0px" viewBox="0 0 67.2 67.2" style="enable-background:new 0 0 67.2 67.2;" xml:space="preserve">
<style type="text/css">
	.st0{stroke:#000000;stroke-width:1.1339;stroke-miterlimit:10;}
</style>
<g>
	<g>
		<path class="st0" d="M26.1,55.5c0,0.2,0,0.3,0,0.4c0,1.3,0,2.6,0,3.8c0,1.2,0.7,1.9,1.9,1.9c9.3,0,18.6,0,27.9,0
			c0.2,0,0.3,0,0.5,0c-0.3-0.5-0.6-1-0.8-1.4c-1.2-2-2.3-3.9-3.5-5.9C52,54.1,52,53.9,52,53.6c0-5.7,0-11.3,0-17
			c0-7.2,0-14.5,0-21.7c0-0.6,0-0.6,0.6-0.6c3.2,0,6.5,0,9.7,0c0.3,0,0.3,0.1,0.3,0.4c0,8.3,0,16.5,0,24.8c0,4.8,0,9.6,0,14.4
			c0,0.2-0.1,0.4-0.2,0.6c-1.6,2.8-3.3,5.6-4.9,8.4c-0.2,0.3-0.4,0.5-0.8,0.5c-9.6,0-19.2,0-28.8,0c-1.5,0-2.6-0.7-3.1-2
			c-0.2-0.5-0.3-1-0.3-1.5c0-1.3,0-2.6,0-3.9c0-0.2,0.1-0.3,0.3-0.3C25.2,55.5,25.6,55.5,26.1,55.5z M60.9,51.6c0-0.4,0-0.7,0-1.1
			c0-11.4,0-22.7,0-34.1c0-0.3-0.1-0.4-0.4-0.4c-0.7,0-1.4,0-2.1,0c-0.1,0-0.1,0-0.2,0c0,0.1,0,0.1,0,0.2c0,2.6,0,5.1,0,7.7
			c0,8.6,0,17.2-0.1,25.8c0,1,0,1,1,1.4C59.7,51.2,60.3,51.4,60.9,51.6z M53.7,51.6c0.7-0.3,1.4-0.5,2.1-0.7
			c0.4-0.1,0.5-0.3,0.5-0.6c0-5.5,0.1-11,0.1-16.4c0-3.3,0-6.7,0-10c0-2.5,0-5,0-7.4c0-0.3-0.1-0.3-0.3-0.3c-0.6,0-1.3,0-1.9,0
			c-0.3,0-0.4,0.1-0.4,0.4c0,0.4,0,0.8,0,1.2c0,11.1,0,22.2,0,33.3C53.7,51.2,53.7,51.4,53.7,51.6z M53.6,53.5c0,0.1,0,0.2,0.1,0.2
			c0.7,1.3,1.4,2.5,2.1,3.8c0.1,0.1,0.2,0.2,0.3,0.2c0.8,0,1.5,0,2.3,0c0.1,0,0.3-0.1,0.3-0.2c0.7-1.2,1.4-2.4,2.1-3.6
			c0.1-0.1,0.1-0.2,0.2-0.3c-0.2-0.1-0.3-0.1-0.4-0.2c-0.6-0.2-1.2-0.4-1.8-0.6c-1-0.4-1.9-0.5-2.8,0c0,0-0.1,0-0.1,0
			C55,53,54.3,53.3,53.6,53.5z"/>
		<path class="st0" d="M25.3,46.5c-1.3,0-2.6,0-3.9,0c-0.3,0-0.5-0.1-0.6-0.5c-1-2.7-2.1-5.5-3.1-8.2c-0.3-0.8-0.7-1.7-0.9-2.5
			c-0.2-0.7-0.6-1.3-1-1.9c-2-2.9-2.8-6.1-2.4-9.6c0.3-2.8,1.3-5.3,3.1-7.4c1-1.2,2.2-2.2,3.6-2.9c4.1-2.3,9.4-1.5,12.9,1.8
			c2.4,2.3,3.7,5.1,4.1,8.4c0.5,3.8-0.5,7.2-2.7,10.3c-0.4,0.6-0.6,1.3-0.9,2c-1.2,3.3-2.4,6.6-3.6,9.9c-0.2,0.7-0.3,0.7-1,0.7
			C27.7,46.5,26.5,46.5,25.3,46.5C25.3,46.5,25.3,46.5,25.3,46.5z M22.5,41.8C22.5,41.8,22.5,41.8,22.5,41.8c0-0.8,0-1.7,0-2.5
			c0-1.2,0.5-2,1.6-2.5c1.9-0.8,3.9,0.4,3.9,2.5c0,1.8,0,3.6,0,5.4c0,0.1,0.1,0.4,0.2,0.4c0.2,0.1,0.4,0,0.5-0.3
			c0-0.2,0.1-0.4,0.2-0.6c1.2-3.3,2.5-6.7,3.7-10c0.1-0.4,0.3-0.7,0.5-1c1.5-2,2.3-4.3,2.5-6.8c0.2-3.2-0.6-6.2-2.6-8.7
			c-1.7-2.2-4-3.6-6.8-3.9c-2.9-0.3-5.4,0.7-7.5,2.7c-2.2,2.2-3.4,4.8-3.7,7.9c-0.3,3.1,0.5,5.9,2.3,8.5c0.3,0.5,0.6,1.1,0.9,1.6
			c0.2,0.3,0.3,0.6,0.4,1c1.2,3.1,2.4,6.2,3.6,9.3c0.1,0.1,0.2,0.2,0.3,0.3c0-0.1,0.1-0.3,0.1-0.4C22.5,43.7,22.5,42.7,22.5,41.8z
			 M26.2,41.9C26.2,41.9,26.2,41.9,26.2,41.9c0-0.9,0-1.8,0-2.7c0-0.6-0.5-1-0.9-1c-0.6,0-1,0.4-1,1c0,1.9,0,3.7,0,5.6
			c0,0.2,0.1,0.3,0.3,0.3c0.4,0,0.9,0,1.3,0c0.3,0,0.3-0.1,0.3-0.3C26.2,43.7,26.2,42.8,26.2,41.9z"/>
		<path class="st0" d="M62.6,13.2c-2.4,0-4.8,0-7.1,0c-1.1,0-2.1,0-3.2,0c-0.2,0-0.3,0-0.3-0.3c-0.1-2.1,0.7-3.8,2.3-5
			c2.6-1.9,6.5-0.9,7.9,2.1c0.4,1,0.5,1.9,0.5,3C62.6,13.1,62.6,13.1,62.6,13.2z M60.7,11.4c-0.1-1.1-1.4-2.4-2.9-2.6
			c-1.9-0.2-3.4,0.9-3.9,2.6C56.1,11.4,58.4,11.4,60.7,11.4z"/>
		<path class="st0" d="M20.9,49.6c0-0.6,0-1.2,0-1.7c0.1,0,0.2,0,0.3,0c2.7,0,5.3,0,8,0c0.5,0,0.5,0,0.5,0.5c0,0.3,0,0.6,0,0.9
			c0,0.3-0.1,0.4-0.4,0.4c-2.3,0-4.7,0-7,0C21.8,49.6,21.4,49.6,20.9,49.6z"/>
		<path class="st0" d="M20.9,52.1c0-0.5,0-1,0-1.4c0-0.3,0.1-0.3,0.3-0.3c0.6,0,1.1,0,1.7,0c2.1,0,4.2,0,6.3,0
			c0.3,0,0.5,0.1,0.4,0.4c0,0.3,0,0.6,0,1c0,0.3-0.1,0.4-0.4,0.4c-0.8,0-1.5,0-2.3,0c-1.9,0-3.8,0-5.8,0
			C21.2,52.1,21,52.1,20.9,52.1z"/>
		<path class="st0" d="M25.7,7c-0.5,0-0.9,0-1.4,0c0-2.3,0-4.6,0-6.9c0.4,0,0.8,0,1.2,0c0.1,0,0.1,0.1,0.1,0.2
			C25.7,2.5,25.7,4.7,25.7,7z"/>
		<path class="st0" d="M42.3,39.9c-0.3,0.3-0.6,0.6-0.9,0.9c-0.1,0-0.3,0-0.4-0.1c-1.1-1.1-2.2-2.2-3.3-3.3
			c-0.4-0.4-0.8-0.8-1.1-1.1c-0.2-0.2-0.2-0.3,0-0.5c0.2-0.2,0.4-0.3,0.5-0.5c0.2-0.2,0.3-0.2,0.5,0c1.4,1.4,2.9,2.9,4.3,4.3
			C42,39.7,42.2,39.7,42.3,39.9z"/>
		<path class="st0" d="M48.7,23c0,0.4,0,0.7,0,1.1c0,0.2-0.1,0.3-0.3,0.3c-2.1,0-4.3,0-6.4,0c-0.2,0-0.3-0.1-0.3-0.3
			c0-1.1,0-1.1,1-1.1c1.8,0,3.6,0,5.4,0C48.3,23,48.5,23,48.7,23z"/>
		<path class="st0" d="M12.8,12.4c-1.4-1.4-2.7-2.7-4-4C8.5,8.1,8.2,7.8,8,7.6c-0.1-0.1-0.1-0.2,0-0.3C8.2,7,8.5,6.7,8.8,6.4
			c1.3,1.3,2.7,2.7,4,4c0.2,0.2,0.5,0.5,0.7,0.7c0.2,0.2,0.2,0.3,0,0.5C13.3,11.8,13.1,12.1,12.8,12.4z"/>
		<path class="st0" d="M41.3,6.5c0.2,0.2,0.5,0.5,0.8,0.8c0,0.1,0,0.3,0,0.3c-1.5,1.5-3,3-4.6,4.5c-0.2,0.2-0.3,0.2-0.4,0
			c-0.2-0.2-0.3-0.4-0.5-0.5c-0.2-0.2-0.2-0.3,0-0.5c1.4-1.3,2.7-2.7,4.1-4C40.8,6.9,41.1,6.7,41.3,6.5z"/>
		<path class="st0" d="M8,40c1.2-1.2,2.3-2.5,3.5-3.7c0.3-0.4,0.7-0.7,1-1.1c0.2-0.2,0.3-0.2,0.5,0c0.2,0.2,0.5,0.5,0.7,0.7
			c-1.6,1.7-3.3,3.3-4.9,4.9C8.5,40.5,8.2,40.2,8,40z"/>
		<path class="st0" d="M8.3,23c0,0.4,0,0.8,0,1.2c0,0.1-0.2,0.2-0.2,0.2c-2.2,0-4.3,0-6.5,0c-0.2,0-0.3-0.1-0.3-0.3
			c0-0.1,0-0.3,0-0.4C1.3,23,1.3,23,2,23c1.9,0,3.9,0,5.8,0C8,23,8.1,23,8.3,23z"/>
		<path class="st0" d="M22.9,54.5c0-0.6,0-1.1,0-1.7c0.2,0,0.3,0,0.5,0c1.3,0,2.5,0,3.8,0c0.3,0,0.4,0.1,0.4,0.4c0,0.4,0,0.8,0,1.1
			c0,0.1-0.2,0.2-0.2,0.2C25.9,54.5,24.4,54.5,22.9,54.5C23,54.5,23,54.5,22.9,54.5z"/>
		<path class="st0" d="M31.5,23.8c-0.6,0-1.1,0-1.7,0c-0.1-0.4-0.1-0.9-0.2-1.3c-0.3-1.5-1.1-2.7-2.5-3.4c-0.4-0.2-0.9-0.3-1.4-0.4
			c-0.2-0.1-0.4-0.1-0.4-0.4c0-0.4,0-0.7,0-1.1c0-0.3,0.1-0.3,0.3-0.3c2.2,0.2,3.8,1.3,4.9,3.2c0.6,1,0.9,2.2,1,3.4
			C31.5,23.5,31.5,23.7,31.5,23.8z"/>
		<path class="st0" d="M30.7,25.1c0.4,0,0.8,0.4,0.8,0.8c0,0.4-0.4,0.8-0.8,0.8c-0.4,0-0.8-0.4-0.8-0.8
			C29.9,25.5,30.3,25.1,30.7,25.1z"/>
	</g>
</g>
</svg>
