<?xml version="1.0" encoding="utf-8"?>
<!-- Generator: Adobe Illustrator 27.4.1, SVG Export Plug-In . SVG Version: 6.00 Build 0)  -->
<svg version="1.1" id="_Слой_1" xmlns="http://www.w3.org/2000/svg" xmlns:xlink="http://www.w3.org/1999/xlink" x="0px"
	 y="0px" viewBox="0 0 67.2 67.2" style="enable-background:new 0 0 67.2 67.2;" xml:space="preserve">
<style type="text/css">
	.st0{fill:none;}
</style>
<g>
	<rect x="54.7" y="29.3" transform="matrix(0.7071 -0.7071 0.7071 0.7071 -4.6986 47.2316)" class="st0" width="0" height="0"/>
	<path d="M50.2,54l-1.6-9c-0.2-1.2-0.4-2.4-0.6-3.6c-0.1-0.4,0-0.7,0.3-0.9c0.5-0.5,1.1-1,1.6-1.5l1.7-1.7c1-1,1.9-1.9,2.9-2.9
		l2.5-2.5c1-1,2.1-2,3.1-3c0.4-0.4,0.5-1.1,0.3-1.6c-0.2-0.5-0.7-0.8-1.5-0.9c-1.6-0.2-3.2-0.4-4.8-0.7l-7.6-1.1
		c-1.2-0.2-2.4-0.4-3.6-0.5c-0.3,0-0.6-0.3-0.7-0.5c-0.8-1.5-1.5-3.1-2.3-4.6l-3.6-7.4c-0.5-0.9-0.9-1.9-1.4-2.8
		c-0.3-0.6-0.7-0.8-1.4-0.9c-0.6,0-1,0.3-1.3,0.7c-0.1,0.2-0.2,0.4-0.3,0.6l-1.5,3.1c-1,2-1.9,4-2.9,6c-0.4,0.9-0.9,1.7-1.3,2.6
		c-0.4,0.9-0.9,1.7-1.3,2.6c-0.2,0.4-0.5,0.6-0.9,0.6c-0.6,0.1-1.1,0.2-1.7,0.2l-1.8,0.3c-1,0.1-2,0.3-3,0.4
		c-0.8,0.1-1.6,0.2-2.4,0.3l-2.2,0.3c-1.5,0.2-3,0.4-4.5,0.7l-0.2,0c-0.4,0.1-0.7,0.1-1,0.2c-0.4,0.2-0.7,0.6-0.8,1.1
		c-0.1,0.5,0.1,1,0.4,1.3c0.6,0.6,1.3,1.2,1.9,1.9l7.7,7.5c0.7,0.7,1.5,1.4,2.2,2.2c0.2,0.2,0.3,0.5,0.3,0.8
		c-0.4,2.2-0.8,4.5-1.1,6.7l-0.5,2.9c-0.4,2.1-0.7,4.2-1.1,6.3l0,0.1c-0.1,0.3-0.1,0.6-0.1,0.9c0.1,0.5,0.4,0.9,0.8,1.1
		c0.4,0.2,0.9,0.2,1.4-0.1c0.7-0.4,1.5-0.8,2.2-1.2l12.3-6.5c0.2-0.1,0.3-0.1,0.5-0.1c0.2,0,0.3,0,0.5,0.1c1.6,0.8,3.2,1.7,4.7,2.5
		l7.7,4c0.8,0.4,1.5,0.8,2.3,1.2c0.5,0.2,1,0.2,1.5-0.2c0.5-0.4,0.7-0.8,0.6-1.3C50.7,56.5,50.5,55.2,50.2,54z M44.9,40.8L47.2,54
		L47,54.9l-1.5-0.7l-2.8-1.5c-2.7-1.4-5.5-2.9-8.2-4.3c-0.6-0.3-1.2-0.3-1.9,0c-1.7,0.9-3.5,1.8-5.2,2.8L19.9,55l0.2-1.2
		c0-0.1,0-0.2,0.1-0.4l1.4-8.2c0.3-1.6,0.5-3.1,0.8-4.7c0.1-0.5-0.1-1-0.5-1.4c-1.4-1.3-2.7-2.6-4.1-4l-5.3-5.2
		c-0.1-0.1-0.2-0.1-0.2-0.2l-1.1-0.9l2.9-0.5c1.5-0.2,2.9-0.4,4.4-0.6l5.4-0.8c0.7-0.1,1.4-0.2,2.1-0.3c0.5-0.1,0.8-0.3,1.1-0.8
		c0.3-0.5,0.5-1.1,0.8-1.6L33,14c0-0.1,0.1-0.1,0.1-0.2l0.5-0.9l0.5,0.9l4.5,9.1c0.5,1,1,1.9,1.4,2.9c0.3,0.7,0.8,1,1.6,1.2
		c1.6,0.2,3.3,0.5,4.9,0.7l9.2,1.3l-0.6,0.8l-0.5-0.3h0l0.4,0.4c-0.1,0.1-0.1,0.1-0.1,0.2L54,30.8c-0.8,0.8-1.6,1.6-2.4,2.4
		c-1.3,1.2-2.5,2.4-3.8,3.7L46,38.6c-0.2,0.2-0.4,0.4-0.6,0.5C45,39.5,44.8,40.1,44.9,40.8z"/>
	<polygon points="54.7,29.3 54.7,29.3 54.7,29.3 	"/>
</g>
</svg>
