<?xml version="1.0" encoding="utf-8"?>
<!-- Generator: Adobe Illustrator 27.4.1, SVG Export Plug-In . SVG Version: 6.00 Build 0)  -->
<svg version="1.1" id="_Слой_1" xmlns="http://www.w3.org/2000/svg" xmlns:xlink="http://www.w3.org/1999/xlink" x="0px"
	 y="0px" viewBox="0 0 67.2 67.2" style="enable-background:new 0 0 67.2 67.2;" xml:space="preserve">
<style type="text/css">
	.st0{fill:none;stroke:#000000;stroke-width:1.8425;stroke-miterlimit:10;}
</style>
<g>
	<g>
		<path d="M6.9,52.6c0-2.2,0-4.4,0-6.5c0-0.1,0-0.2,0-0.3C6.9,45.3,7.3,45,7.8,45c0.4,0,0.7,0.4,0.7,0.9c0,4.2,0,8.4,0,12.5
			c0,0.3,0,0.3,0.3,0.3c3.8,0,7.5,0,11.3,0c0.2,0,0.3,0,0.5,0c0.4,0.1,0.7,0.4,0.7,0.8c0,0.4-0.3,0.8-0.7,0.9c-0.2,0-0.3,0-0.5,0
			c-4.1,0-8.1,0-12.2,0c-0.2,0-0.4,0-0.5-0.1c-0.4-0.1-0.6-0.4-0.6-0.9c0-1.4,0-2.8,0-4.2C6.9,54.3,6.9,53.5,6.9,52.6
			C6.9,52.6,6.9,52.6,6.9,52.6z"/>
		<path d="M58.6,8.5c-1.2,0-2.5,0-3.7,0c-2.7,0-5.3,0-8,0c-0.3,0-0.5,0-0.8-0.1c-0.3-0.2-0.4-0.5-0.3-0.9c0.1-0.4,0.3-0.6,0.7-0.6
			c0.1,0,0.3,0,0.4,0c4,0,8,0,12,0c0.2,0,0.4,0,0.6,0c0.4,0.1,0.7,0.4,0.7,0.8c0,4.3,0,8.7,0,13c0,0.3,0,0.6,0,0.8
			c-0.1,0.4-0.4,0.7-0.8,0.7c-0.4,0-0.8-0.3-0.8-0.8c0-0.2,0-0.5,0-0.7c0-4,0-8.1,0-12.1C58.6,8.6,58.6,8.6,58.6,8.5z"/>
		<path d="M60.3,52.7c0,2.1,0,4.1,0,6.2c0,0.3,0,0.5,0,0.8c0,0.4-0.3,0.7-0.7,0.7c-0.3,0-0.5,0-0.8,0c-3.7,0-7.5,0-11.2,0
			c-0.3,0-0.6,0-0.8,0c-0.5,0-0.8-0.4-0.8-0.8c0-0.5,0.4-0.8,0.9-0.8c0.2,0,0.5,0,0.7,0c3.6,0,7.2,0,10.8,0c0.5,0,0.4,0,0.4-0.4
			c0-4.1,0-8.2,0-12.4c0-0.7,0.6-1.1,1.2-0.9c0.3,0.1,0.4,0.3,0.5,0.6c0,0.2,0,0.5,0,0.7C60.3,48.4,60.3,50.5,60.3,52.7
			C60.3,52.7,60.3,52.7,60.3,52.7z"/>
		<path d="M6.9,14.6c0-2.2,0-4.5,0-6.7c0-0.6,0.4-1,1-1c4.1,0,8.3,0,12.4,0c0.2,0,0.4,0,0.6,0.1c0.4,0.1,0.6,0.5,0.5,0.9
			c-0.1,0.4-0.4,0.7-0.8,0.7c-2.4,0-4.9,0-7.3,0c-1.5,0-3,0-4.5,0c-0.3,0-0.3,0-0.3,0.3c0,3.9,0,7.8,0,11.7c0,0.3,0,0.6,0,0.9
			c0,0.5-0.3,0.8-0.7,0.8c-0.5,0-0.8-0.4-0.8-0.9c0-2.1,0-4.1,0-6.2C6.9,15,6.9,14.8,6.9,14.6C6.9,14.6,6.9,14.6,6.9,14.6z"/>
	</g>
</g>
<path d="M20.8,32.7c0.4,0,0.8,0,1.2,0c0.2,0,0.2,0,0.3-0.2c0.1-0.9,0.2-1.8,0.6-2.7c1-2.7,2.7-4.7,5.2-6.2c0.9-0.5,1.9-0.9,2.9-1.2
	c0.5-0.1,1.1-0.2,1.6-0.2c0.2,0,0.2-0.1,0.2-0.3c0-0.8,0-1.6,0-2.5c0-0.4,0.2-0.6,0.5-0.8c0.3-0.1,0.6-0.1,0.9,0.2
	c0.2,0.2,0.3,0.4,0.3,0.6c0,0.8,0,1.6,0,2.4c0,0.2,0.1,0.3,0.3,0.3c2,0.2,3.9,0.9,5.5,2c1.8,1.3,3.2,3,4,5.1c0.4,1,0.6,2,0.7,3
	c0,0.2,0.1,0.3,0.3,0.3c0.7,0,1.3,0,2,0c0.2,0,0.4,0,0.5,0c0.4,0.1,0.7,0.4,0.7,0.8c0,0.4-0.2,0.7-0.6,0.8c-0.2,0-0.5,0-0.7,0
	c-0.7,0-1.3,0-2,0c-0.1,0-0.2,0-0.2,0.2c-0.1,1.8-0.7,3.4-1.6,4.9c-1.2,2-2.8,3.4-4.9,4.4c-1.2,0.6-2.4,0.9-3.7,1
	c-0.2,0-0.3,0.1-0.3,0.3c0,0.8,0,1.6,0,2.4c0,0.4-0.2,0.7-0.6,0.8c-0.4,0.1-0.8,0-1-0.3c-0.1-0.1-0.1-0.3-0.1-0.5c0-0.8,0-1.6,0-2.4
	c0-0.2-0.1-0.3-0.2-0.3c-1.8-0.2-3.6-0.7-5.1-1.8c-1.5-1-2.8-2.3-3.7-3.8c-0.8-1.5-1.3-3-1.5-4.7c0-0.1-0.1-0.2-0.2-0.2
	c-0.7,0-1.5,0-2.2,0c-0.2,0-0.3,0-0.5,0c-0.4-0.1-0.7-0.4-0.7-0.9c0-0.4,0.3-0.7,0.8-0.8c0.2,0,0.4,0,0.6,0
	C20.3,32.7,20.6,32.7,20.8,32.7C20.8,32.7,20.8,32.7,20.8,32.7z M23.8,32.7c0.1,0,0.2,0,0.2,0c1,0,2,0,3,0c0.6,0,1.3,0,1.9,0
	c0.6,0,0.9,0.6,0.7,1.1c-0.2,0.4-0.4,0.5-0.8,0.5c-1.5,0-2.9,0-4.4,0c-0.6,0-0.6,0-0.5,0.6c0.5,3.1,2.1,5.5,4.9,7.1
	c1.2,0.7,2.4,1.1,3.7,1.2c0.2,0,0.2,0,0.2-0.2c0-1.8,0-3.5,0-5.3c0-0.5,0.3-0.9,0.9-0.8c0.5,0,0.8,0.3,0.8,0.9c0,1.6,0,3.3,0,4.9
	c0,0.2,0,0.4,0,0.6c2.2-0.2,4.1-1,5.7-2.5c1.9-1.7,3-3.8,3.2-6.4c-0.6,0-1.2,0-1.9,0c-0.9,0-1.9,0-2.8,0c-0.2,0-0.4,0-0.6-0.2
	c-0.2-0.2-0.3-0.5-0.2-0.8c0.1-0.3,0.3-0.5,0.6-0.6c0.2,0,0.4,0,0.6,0c1.4,0,2.8,0,4.1,0c0.1,0,0.2-0.1,0.2-0.2c0-0.1,0-0.3-0.1-0.4
	c-0.5-2.9-2-5.2-4.4-6.8c-1.3-0.9-2.7-1.3-4.2-1.5c-0.2,0-0.2,0-0.2,0.2c0,1.5,0,3,0,4.5c0,0.2,0,0.4,0,0.7c0,0.4-0.4,0.7-0.8,0.7
	c-0.5,0-0.8-0.3-0.8-0.7c0-0.1,0-0.2,0-0.3c0-1.5,0-3.1,0-4.6c0-0.1,0-0.2,0-0.3c0,0-0.1-0.1-0.1-0.1c-2,0.2-3.8,1-5.3,2.3
	c-1.5,1.2-2.5,2.8-3.1,4.6C24,31.4,23.9,32,23.8,32.7z"/>
<path class="st0" d="M33.6,12.2c11.9,0,21.3,9.7,21.4,21.3c0.1,12-9.7,21.5-21.3,21.5C22,55,12.4,45.6,12.2,33.9
	C12,22,21.7,12.2,33.6,12.2z"/>
</svg>
