<?xml version="1.0" encoding="UTF-8"?>
<svg id="_Слой_1" data-name="Слой 1" xmlns="http://www.w3.org/2000/svg" viewBox="0 0 67.16 67.16">
  <path d="m33.58,47.84c-1.42,0-2.83-.02-4.25,0-1.04.02-1.77-.43-2.15-1.38-.29-.73-.49-1.49-.74-2.23-.31-.9-.61-1.79-.94-2.68-.25-.66-.68-1.21-1.16-1.73-1.69-1.81-2.85-3.91-3.41-6.32-.58-2.51-.44-4.99.49-7.4,1.06-2.75,2.82-4.95,5.32-6.54,2.44-1.54,5.1-2.18,7.96-1.92,3.1.28,5.75,1.57,7.95,3.75,2.03,2.01,3.24,4.44,3.68,7.27.17,1.1.21,2.2.07,3.3-.22,1.81-.83,3.5-1.71,5.09-.61,1.09-1.29,2.12-2.15,3.03-.29.31-.51.71-.69,1.1-.59,1.25-.94,2.6-1.36,3.91-.17.54-.38,1.07-.62,1.58-.38.79-1.04,1.17-1.91,1.17-1.45,0-2.91,0-4.36,0h0Zm-.02-3.62c1.02,0,2.04,0,3.06,0,.19,0,.27-.07.33-.25.36-1.15.72-2.3,1.12-3.43.4-1.11.9-2.19,1.73-3.06.55-.58,1.02-1.21,1.42-1.9.94-1.58,1.49-3.28,1.48-5.13,0-2.08-.65-3.95-1.96-5.58-1.61-2.02-3.69-3.21-6.26-3.46-2.58-.26-4.91.42-6.87,2.14-2.84,2.48-3.79,5.62-3.03,9.27.37,1.79,1.33,3.28,2.57,4.6.58.61,1.06,1.3,1.44,2.05.72,1.43,1.24,2.95,1.63,4.5.05.19.13.26.33.26,1-.01,2.01,0,3.01,0Z"/>
  <path d="m29.68,55.51c.09,0,.18,0,.26,0,2.37,0,4.74,0,7.11,0,.19,0,.25.04.25.25-.01,1.05,0,2.1,0,3.15,0,.77-.11,1.52-.51,2.2-.74,1.29-1.85,2.02-3.35,1.98-1.59-.04-2.74-.84-3.42-2.29-.27-.57-.35-1.17-.36-1.79-.02-1.13,0-2.25,0-3.38,0-.02,0-.05.02-.11Z"/>
  <path d="m33.51,49.84c1.2,0,2.39,0,3.59,0,.86,0,1.51.34,1.89,1.11.56,1.14-.21,2.49-1.47,2.61-.39.04-.79.02-1.19.02-2.14,0-4.29,0-6.43,0-.84,0-1.5-.32-1.87-1.1-.56-1.16.26-2.58,1.55-2.62,1.31-.05,2.63-.01,3.94-.01,0,0,0-.01,0-.02Z"/>
  <path d="m46.41,19.83c-.75-.03-1.32-.37-1.67-1.04-.36-.68-.27-1.34.16-1.96.1-.15.23-.27.35-.4,1.04-1.03,2.09-2.07,3.13-3.1.28-.28.54-.58.83-.85.65-.62,1.56-.73,2.27-.29.75.47,1.1,1.39.8,2.23-.1.28-.29.55-.51.77-1.33,1.35-2.67,2.69-4.02,4.03-.37.37-.8.62-1.34.6Z"/>
  <path d="m14.66,13.82c-.05-.68.4-1.38,1.08-1.71.68-.33,1.49-.21,2.03.32.93.91,1.84,1.83,2.76,2.75.49.49.99.97,1.46,1.48,1.02,1.1.5,2.8-.95,3.13-.63.14-1.17-.05-1.63-.47-.45-.41-.88-.86-1.31-1.29-.91-.91-1.82-1.81-2.72-2.72-.49-.5-.67-.87-.72-1.49Z"/>
  <path d="m56.38,28.64c.93,0,1.86,0,2.8,0,.86,0,1.57.5,1.84,1.31.25.76-.02,1.57-.71,2.07-.39.28-.84.34-1.31.34-1.75,0-3.5,0-5.24,0-.19,0-.37-.01-.56-.05-1-.19-1.68-1.14-1.53-2.12.13-.83.97-1.55,1.84-1.56.96-.01,1.91,0,2.87,0h0Z"/>
  <path d="m10.77,32.35c-.97,0-1.94.02-2.91,0-.73-.02-1.27-.39-1.6-1.04-.61-1.19.24-2.63,1.58-2.66,1.95-.03,3.9-.02,5.85,0,1,0,1.81.87,1.81,1.86,0,.99-.83,1.85-1.84,1.86-.96.01-1.93,0-2.89,0v-.02Z"/>
  <path d="m35.34,8.84c0,.93,0,1.86,0,2.8-.02,1.37-1.36,2.25-2.61,1.7-.68-.3-1.09-.85-1.1-1.6-.03-1.95-.02-3.9,0-5.85,0-1,.83-1.78,1.83-1.81.96-.03,1.79.68,1.85,1.69.05,1.02.01,2.05.01,3.08.01,0,.02,0,.03,0Z"/>
</svg>