<?xml version="1.0" encoding="utf-8"?>
<!-- Generator: Adobe Illustrator 27.4.1, SVG Export Plug-In . SVG Version: 6.00 Build 0)  -->
<svg version="1.1" id="_Слой_1" xmlns="http://www.w3.org/2000/svg" xmlns:xlink="http://www.w3.org/1999/xlink" x="0px"
	 y="0px" viewBox="0 0 67.2 67.2" style="enable-background:new 0 0 67.2 67.2;" xml:space="preserve">
<style type="text/css">
	.st0{stroke:#000000;stroke-miterlimit:10;}
</style>
<g>
	<g>
		<path class="st0" d="M65.2,20.4c0,1.2-0.2,2.8-1,4.3c-0.8,1.6-2.1,2.5-3.9,2.7c-0.2,0-0.3,0.1-0.3,0.3c-1,2.3-1.9,4.6-2.9,6.9
			c-0.4,1-1,1.9-1.5,2.8c-4.5,7.8-9,15.6-13.5,23.4c-0.8,1.4-1.6,2.7-2.4,4.1c-0.3,0.5-0.7,0.7-1.3,0.6c-0.4-0.1-0.7-0.4-0.8-0.8
			c-0.3-1.8-0.7-3.7-1-5.5c0-0.2,0-0.4,0.1-0.5c1.7-5.4,3.4-10.9,5.2-16.3c0.9-3,1.9-6,2.8-9c0.1-0.2,0.2-0.4,0.3-0.6
			c1.2-2.4,2.8-4.6,4.5-6.7c0.7-0.9,1.4-1.8,2.1-2.7c0.1-0.1,0.1-0.3,0.1-0.4c-0.9-2-0.4-4,1.2-5.5c0.7-0.7,1.5-1.3,2.3-1.7
			c1.5-0.7,2.5-1.9,3.3-3.3c0.4-0.7,0.7-1.5,1-2.3c0.3-0.8,1.1-1.1,1.8-0.5c1.1,0.8,1.8,2,2.4,3.2C64.7,14.8,65.2,17.4,65.2,20.4z
			 M46.5,35c0,0.1-0.1,0.2-0.1,0.3c-2.5,7.8-5,15.7-7.4,23.5c0,0.1-0.1,0.2-0.1,0.3c0.1,0.7,0.2,1.4,0.3,2.1c0,0,0.1,0,0.1,0
			c4.4-7.6,8.8-15.2,13.1-22.8C50.5,37.3,48.5,36.2,46.5,35z M59.5,14.8C59.5,14.8,59.5,14.8,59.5,14.8c-0.1,0-0.2,0.1-0.2,0.1
			c-0.8,1-1.8,1.9-3,2.5c-0.7,0.4-1.2,0.8-1.9,1.3c-0.2,0.1-0.3,0.3-0.5,0.5c-0.9,1.1-0.9,2.2-0.1,3.3c1.5,1.9,3.5,2.8,6,2.8
			c1,0,1.7-0.5,2.2-1.3c0.4-0.6,0.6-1.2,0.8-1.9c0.6-2.9,0.1-5.6-1-8.3c0,0,0-0.1,0-0.1c-0.1,0.2-0.1,0.3-0.1,0.4
			c-0.1,1.3-0.3,2.5-0.6,3.7c-0.4,1.4-1,2.7-2.1,3.7c-0.5,0.5-1.1,0.5-1.6,0c-0.4-0.4-0.4-1.1,0-1.5c0.5-0.5,0.9-1.1,1.1-1.7
			c0.3-0.7,0.5-1.5,0.7-2.2C59.5,15.7,59.5,15.2,59.5,14.8z M55.4,33.1c0.8-1.9,1.6-3.8,2.4-5.8c-1.8-0.4-3.4-1.2-4.8-2.5
			c-1.2,1.6-2.4,3.2-3.6,4.8C51.5,30.8,53.4,31.9,55.4,33.1z M53.6,36.6c0.3-0.5,0.6-1.1,0.9-1.6c-2.1-1.2-4.1-2.4-6.2-3.6
			C48,32,47.7,32.5,47.4,33C49.4,34.2,51.5,35.4,53.6,36.6z"/>
		<path class="st0" d="M16,21.1c0,0.5-0.1,1.1-0.4,1.7c-0.1,0.2-0.1,0.3,0.1,0.5c1.4,1.9,2.9,3.7,4.2,5.6c0.7,1,1.3,2.2,2,3.2
			c0.6,0.9,0.8,2,1.1,3c2.5,7.8,4.9,15.6,7.4,23.5c0.1,0.2,0.1,0.5,0.1,0.8c-0.3,1.7-0.6,3.4-0.9,5.1c-0.1,0.6-0.4,0.9-0.9,1
			c-0.5,0.1-0.9-0.1-1.2-0.6c-5.2-9-10.4-18.1-15.7-27.1c-1.5-2.5-2.6-5.2-3.7-7.8c-0.3-0.7-0.6-1.5-0.9-2.2c0-0.1-0.2-0.2-0.3-0.2
			c-2.1-0.3-3.4-1.5-4.2-3.4C2,22.4,1.9,20.6,2,18.8c0.2-2.3,0.7-4.6,1.8-6.7c0.5-1,1.1-1.8,2-2.5c0.8-0.6,1.6-0.4,1.9,0.5
			c0.5,1.5,1.2,2.8,2.2,4c0.5,0.6,1.1,1,1.8,1.4c1.2,0.6,2.3,1.4,3.2,2.4C15.6,18.8,16,19.8,16,21.1z M14.7,38.5
			c4.4,7.6,8.8,15.2,13.1,22.8c0.2-0.7,0.3-1.4,0.4-2.1c0-0.1,0-0.2-0.1-0.3c-2.5-7.8-4.9-15.7-7.4-23.5c0-0.1-0.1-0.2-0.1-0.3
			C18.7,36.2,16.7,37.3,14.7,38.5z M5.4,13.8c0,0.1-0.1,0.2-0.1,0.3c-0.7,1.8-1.1,3.7-1.1,5.6c0,1.4,0.1,2.7,0.8,4
			c0.5,1,1.4,1.6,2.6,1.6c1.4,0,2.7-0.5,3.9-1.2c0.8-0.5,1.5-1,2-1.8c0.6-1,0.6-2-0.1-2.9c-0.2-0.2-0.4-0.5-0.6-0.7
			c-0.6-0.5-1.3-1-1.9-1.3C9.6,16.8,8.7,16,7.9,15c-0.1-0.1-0.1-0.1-0.2-0.2c0,0.4,0,0.7,0.1,1c0.3,1.6,0.8,3.2,2,4.4
			c0.4,0.4,0.3,1,0,1.4c-0.4,0.4-1,0.4-1.5,0.1c-0.3-0.3-0.5-0.5-0.8-0.8c-0.8-1-1.3-2.2-1.5-3.4C5.7,16.2,5.5,15,5.4,13.8z
			 M9.4,27.4c0.8,1.9,1.6,3.8,2.4,5.7c2-1.2,4-2.3,6-3.4c-1.2-1.6-2.4-3.2-3.6-4.7c-0.8,0.5-1.5,1-2.3,1.4
			C11.1,26.7,10.2,27,9.4,27.4z M12.7,35c0.3,0.6,0.6,1.1,0.9,1.6c2.1-1.2,4.1-2.4,6.2-3.6c-0.3-0.6-0.6-1.1-0.9-1.6
			C16.8,32.6,14.8,33.8,12.7,35z"/>
		<path class="st0" d="M33.6,40.6c-1.3,0-2.6,0-4,0c-0.9,0-1.2-0.4-1.3-1.2c0-1.4,0-2.7,0-4.1c0-0.6-0.1-1.2-0.2-1.7
			c-0.2-1.3-0.8-2.3-1.9-3.2c-0.6-0.4-1.1-0.9-1.7-1.3c-2-1.4-3.1-3.3-3.5-5.7c-0.4-2.4-0.4-4.8,0.4-7.2c1.8-5.6,7.3-9.2,13.1-8.7
			c6,0.5,10.9,5,11.7,11c0.3,2.1,0.1,4.2-0.5,6.2c-0.5,1.7-1.5,3.1-2.9,4.1c-0.6,0.4-1.1,0.8-1.7,1.3c-1.4,1-2.1,2.5-2.3,4.2
			c-0.1,1.6-0.1,3.3-0.1,4.9c0,0.1,0,0.1,0,0.2c0,0.8-0.4,1.2-1.2,1.2C36.3,40.6,34.9,40.6,33.6,40.6z M36.7,34.8
			c0.1-0.5,0.1-1,0.2-1.4c0.3-1.8,1-3.4,2.5-4.5c0.7-0.6,1.5-1.2,2.3-1.8c1-0.8,1.8-1.8,2.1-3c0.5-1.9,0.6-3.7,0.3-5.6
			c-0.8-4.6-4.6-8.3-9.5-8.7c-4.5-0.4-9,2.3-10.8,6.6c-0.9,2.3-1,4.6-0.5,7c0.3,1.6,1.1,2.9,2.3,3.8c0.6,0.4,1.1,0.9,1.7,1.3
			c1.7,1.3,2.7,3,3.1,5.1c0.1,0.5,0.1,0.9,0.2,1.4c0.7,0,1.3,0,2,0c0-3.3,0-6.6,0-9.9c-0.1,0-0.2,0-0.3,0c-0.4,0-0.7,0-1.1,0
			c-0.6,0-1-0.5-1-1.1c0-0.6,0.5-1.1,1-1.1c1.6,0,3.2,0,4.9,0c0.5,0,0.8,0.3,1,0.7c0.2,0.7-0.3,1.4-1,1.4c-0.4,0-0.8,0-1.3,0
			c0,3.4,0,6.7,0,10C35.4,34.8,36,34.8,36.7,34.8z M36.7,37c-2,0-4.1,0-6.1,0c0,0.5,0,0.9,0,1.4c2,0,4.1,0,6.1,0
			C36.7,38,36.7,37.5,36.7,37z"/>
		<path class="st0" d="M33.6,44.4c-1.4,0-2.8,0-4.2,0c-0.7,0-1.1-0.4-1.1-1.1c0-0.6,0.4-1,1-1.1c0.1,0,0.1,0,0.2,0
			c2.8,0,5.6,0,8.4,0c0.6,0,1,0.4,1.1,0.9c0.1,0.6-0.3,1.2-1,1.2c-0.4,0-0.8,0-1.2,0C35.7,44.4,34.6,44.4,33.6,44.4z"/>
		<path class="st0" d="M33.6,45.9c0.8,0,1.5,0,2.3,0c0.7,0,1.2,0.5,1.1,1.1c0,0.6-0.5,1.1-1.1,1.1c-1.6,0-3.1,0-4.7,0
			c-0.6,0-1.1-0.5-1.1-1.1c0-0.6,0.5-1.1,1.1-1.1C32.1,45.9,32.8,45.9,33.6,45.9z"/>
		<path class="st0" d="M40.9,7.6C41,7.4,41,7.3,41.1,7.1c0.3-0.6,0.7-1.2,1.1-1.8c0.3-0.6,1-0.7,1.5-0.4c0.5,0.3,0.7,0.9,0.4,1.5
			c-0.4,0.6-0.7,1.3-1.1,1.9c-0.3,0.4-0.8,0.6-1.2,0.5C41.3,8.5,40.9,8.1,40.9,7.6z"/>
		<path class="st0" d="M26.3,7.5c0,0.5-0.3,1-0.7,1.1c-0.4,0.2-1,0-1.2-0.4c-0.4-0.7-0.8-1.4-1.2-2.1c-0.3-0.5,0-1.1,0.5-1.4
			c0.5-0.3,1.1-0.1,1.4,0.3c0.4,0.7,0.8,1.3,1.2,2C26.2,7.3,26.2,7.5,26.3,7.5z"/>
		<path class="st0" d="M32.5,4.3c0-0.4,0-0.7,0-1.1c0-0.6,0.5-1.1,1.1-1.1c0.6,0,1,0.5,1.1,1.1c0,0.7,0,1.4,0,2.2
			c0,0.6-0.5,1.1-1.1,1.1c-0.6,0-1.1-0.5-1.1-1.1C32.5,5,32.5,4.6,32.5,4.3z"/>
	</g>
</g>
</svg>
