<?xml version="1.0" encoding="utf-8"?>
<!-- Generator: Adobe Illustrator 27.4.1, SVG Export Plug-In . SVG Version: 6.00 Build 0)  -->
<svg version="1.1" id="_Слой_1" xmlns="http://www.w3.org/2000/svg" xmlns:xlink="http://www.w3.org/1999/xlink" x="0px"
	 y="0px" viewBox="0 0 67.2 67.2" style="enable-background:new 0 0 67.2 67.2;" xml:space="preserve">
<g>
	<g>
		<g>
			<path d="M11.5,64.8c0.1,0,0.2-0.1,0.3-0.1c0,0-0.1,0-0.1,0c-3-0.4-4.8-3.3-4.4-5.9C7.4,58,7.7,57.3,8,56.5c0.8-2.3,1.5-4.7,2.3-7
				c0.6-1.7,1.2-3.3,1.8-5c0.1-0.2,0.2-0.5,0.3-0.7c0.1-0.2,0.1-0.3,0-0.5c-0.1-0.4-0.2-0.8-0.3-1.2c-0.3-1.8,1.1-3.5,2.9-3.6
				c0.4,0,0.8,0,1.1,0c0.1,0,0.3-0.1,0.4-0.2c2.4-1.9,5.1-3.3,8.2-3.8c1.1-0.2,2.1-0.3,3.2-0.2c0.2,0,0.3-0.1,0.3-0.3
				c0-0.3-0.1-0.5-0.4-0.7c-1.5-0.8-2.7-1.9-3.8-3.3c-0.7-0.9-1-1.9-1.3-2.9c-0.2-0.6-0.2-1.2-0.3-1.8c0-0.2-0.1-0.2-0.3-0.3
				c-1.3-0.5-2.1-1.4-2.4-2.8c0-0.2,0-0.4,0-0.6c0-2.2,0-4.5,0-6.7c0.1-3.1,1.2-5.8,3.2-8.2c1.6-2,3.7-3.3,6.1-4.2
				c1-0.4,2.1-0.6,3.2-0.7c1.7-0.1,3.4,0,5.1,0.5c1.8,0.5,3.3,1.4,4.7,2.5c2.8,2.3,4.4,5.2,4.9,8.7c0.1,0.5,0.1,0.9,0.1,1.4
				c0,2.2,0,4.5,0,6.7c0,1.6-0.8,2.7-2.3,3.2c-0.3,0.1-0.4,0.3-0.4,0.5c-0.1,1.2-0.4,2.3-0.9,3.4c-0.4,0.9-1,1.6-1.6,2.2
				c-0.9,0.9-1.9,1.8-3.1,2.4c-0.2,0.1-0.2,0.2-0.2,0.4c0,0.5,0,0.5,0.5,0.5c2.6,0,5.1,0.5,7.5,1.7c0.8,0.4,1.6,0.9,2.4,1.4
				c0.4,0.3,0.8,0.6,1.2,1c0.2,0.1,0.4,0.2,0.6,0.2c0.5,0,1,0,1.5,0.1c1.8,0.3,2.9,2,2.5,3.8c-0.1,0.3-0.2,0.7-0.3,1
				c0,0.1,0,0.2,0,0.3c0.7,1.3,1.1,2.7,1.6,4.1c1.1,3.3,2.2,6.6,3.3,9.9c0.6,1.9,0.3,3.6-1,5.1c-0.8,1-1.9,1.6-3.2,1.8
				c0,0,0,0-0.1,0c0.1,0,0.1,0.1,0.1,0.1C40.9,64.8,26.2,64.8,11.5,64.8z M48.6,58.5c0.2-0.6,0.3-1.1,0.5-1.7
				c0.8-3.1,1.6-6.1,2.4-9.2c0.5-1.9,1-3.7,1.5-5.6c0.1-0.5,0-1-0.5-1.2c-0.2-0.1-0.5-0.2-0.8-0.2c-3.1,0-6.2,0-9.4,0
				c-8.9,0-17.9,0-26.8,0c-1,0-1.4,0.8-1.2,1.5c0.9,3.4,1.8,6.8,2.7,10.2c0.4,1.4,0.8,2.8,1.1,4.3c0.2,0.6,0.3,1.3,0.5,1.9
				C28.6,58.5,38.6,58.5,48.6,58.5z M33.6,33.3c0.2,0,0.4,0,0.6-0.1c0.2,0,0.4-0.1,0.6-0.1c2.3-0.7,4.3-1.9,6-3.5
				c0.5-0.4,0.8-0.9,1.1-1.5c0.4-1.2,0.7-2.4,0.8-3.6c0-0.3,0.1-0.6,0.3-0.8c0.2-0.3,0.6-0.3,0.9-0.4c0.6-0.1,1.1-0.4,1.3-1
				c0.2-0.6,0.1-1.1-0.4-1.5c-0.3-0.3-0.7-0.4-1.2-0.4c-0.4,0-0.7-0.2-0.8-0.6c-0.1-0.2-0.1-0.3-0.1-0.5c-0.1-1.3-1-2.3-2.3-2.5
				c-0.4-0.1-0.8-0.1-1.2-0.2c-1.9-0.4-3.7-1.2-5.4-2.4c-0.1-0.1-0.3-0.1-0.4,0c-2,1.4-4.2,2.3-6.7,2.6c-0.3,0-0.7,0.2-1,0.4
				c-0.8,0.5-1.1,1.3-1.2,2.2c0,0.5-0.3,0.8-0.8,0.9c-0.2,0-0.3,0.1-0.5,0.1c-0.7,0.1-1.3,0.7-1.2,1.5c0,0.6,0.5,1.4,1.4,1.5
				c0.8,0,1.2,0.5,1.2,1.1c0,1,0.3,2,0.6,3c0.3,0.9,0.7,1.7,1.4,2.4c1.4,1.3,3,2.3,4.7,3.1C32,33,32.7,33.3,33.6,33.3z M45.2,18.4
				c-0.1-1.6,0-3.1-0.2-4.6c-0.4-3.3-2.1-6-4.8-7.9c-2.9-2-6.1-2.5-9.5-1.7c-2.4,0.6-4.4,1.9-6,3.7c-1.7,2-2.6,4.3-2.7,6.9
				c-0.1,1.1,0,2.3,0,3.4c0,0.1,0,0.1,0,0.2c0.4,0,0.5-0.2,0.6-0.6c0.5-1.7,1.6-2.8,3.3-3.2c0.7-0.2,1.4-0.2,2-0.4
				c1.6-0.4,3-1.1,4.3-2c0.3-0.2,0.6-0.3,0.9-0.4c0.7-0.2,1.3,0.1,1.8,0.5c1.7,1.2,3.5,1.8,5.5,2.1c2.1,0.3,3.4,1.4,4.1,3.5
				C44.7,18.3,44.8,18.4,45.2,18.4z M50.4,60.6c-0.2,0-0.4,0-0.5,0c-8,0-16,0-24,0c-2.9,0-5.9,0-8.8,0c-0.2,0-0.3,0.1-0.3,0.3
				c0,0.5,0,1.1,0,1.6c0,0.2,0,0.2,0.2,0.2c0.3,0,0.6,0,0.9,0c10.7,0,21.5,0,32.2,0c0.1,0,0.3,0,0.4,0C50.4,62,50.4,61.3,50.4,60.6z
				 M13.4,47c-0.1,0.3-0.2,0.6-0.3,0.8c-0.6,1.8-1.2,3.6-1.8,5.4c-0.6,1.8-1.2,3.5-1.8,5.3c-0.7,2.3,1.1,4.2,3.1,4.2
				c0.6,0,1.2,0,1.7,0c0.1,0,0.2,0,0.3,0c0-0.7,0-1.4,0-2c0-0.9,0.5-1.7,1.4-2c0.1,0,0.3-0.1,0.4-0.1C15.4,54.6,14.4,50.8,13.4,47z
				 M52.5,62.7c0.1,0,0.2,0,0.3,0c0.6,0,1.1,0,1.7,0c2.3,0,3.9-2.1,3.1-4.3c-0.8-2.3-1.6-4.7-2.4-7c-0.4-1.3-0.9-2.6-1.3-4
				c0-0.1-0.1-0.3-0.2-0.4c-0.1,0.2-0.1,0.4-0.2,0.5c-0.9,3.6-1.9,7.2-2.9,10.8c0,0.1,0,0.2,0.1,0.2c0.2,0.1,0.4,0.1,0.6,0.2
				c0.7,0.4,1.1,1,1.1,1.8C52.5,61.3,52.5,61.9,52.5,62.7z M30.4,34.6c-0.2,1.5,0.3,2.8,1.6,3.5c1.1,0.6,2.3,0.6,3.4-0.2
				c1.1-0.8,1.4-2,1.3-3.3c-1,0.4-2,0.7-3.1,0.7C32.5,35.3,31.5,35,30.4,34.6z M37.7,38.5c3.1,0,6.2,0,9.3,0c0,0,0,0,0-0.1
				c-2.6-1.5-5.3-2.1-8.3-2C38.6,37.2,38.3,37.9,37.7,38.5z M20.1,38.5c3.1,0,6.2,0,9.3,0c-0.5-0.6-0.8-1.3-1-2.1
				C25.4,36.3,22.7,36.9,20.1,38.5z"/>
			<path d="M57.3,65.3h-49l1.7-0.6c-0.8-0.4-1.6-1-2.2-1.8c-0.9-1.3-1.3-2.8-1.1-4.2c0.1-0.7,0.3-1.3,0.5-2l0.1-0.4
				c0.8-2.3,1.5-4.7,2.3-7c0.5-1.4,1-2.8,1.5-4.2l0.3-0.8c0.1-0.3,0.2-0.5,0.4-0.8c-0.1-0.5-0.2-0.9-0.3-1.4c-0.2-1,0.1-2,0.8-2.8
				c0.7-0.8,1.6-1.3,2.6-1.4c0.4,0,0.8,0,1.1,0c0,0,0.1,0,0.1,0c2.6-2.1,5.4-3.4,8.4-3.9c1-0.2,2-0.3,3-0.3c0,0,0,0,0,0
				c-1.5-0.8-2.8-2-3.9-3.4c-0.8-1-1.1-2.1-1.4-3.1c-0.1-0.5-0.2-1-0.3-1.5l0-0.2c-1.5-0.6-2.4-1.7-2.6-3.2c0-0.2-0.1-0.5-0.1-0.7
				c0-0.7,0-1.3,0-2c0-1.6,0-3.2,0-4.8c0.1-3.1,1.2-5.9,3.3-8.5c1.6-2,3.7-3.4,6.4-4.3c1-0.4,2.1-0.6,3.3-0.7c1.8-0.1,3.6,0,5.3,0.5
				c1.8,0.5,3.4,1.4,4.9,2.6c2.9,2.4,4.6,5.4,5.1,9.1c0.1,0.5,0.1,1,0.1,1.5l0,1.1c0,1.9,0,3.8,0,5.6c0,1.7-0.9,3-2.6,3.7
				c-0.1,1.2-0.4,2.3-1,3.6c-0.4,1-1.1,1.7-1.7,2.4c-0.9,1-1.9,1.8-2.9,2.3c2.7,0,5.2,0.6,7.5,1.7c0.9,0.4,1.7,0.9,2.4,1.4
				c0.4,0.2,0.7,0.5,1.1,0.8l0.2,0.2C50.8,38,50.9,38,51,38l0.3,0c0.4,0,0.8,0,1.2,0.1c1,0.2,1.9,0.7,2.4,1.6
				c0.6,0.8,0.7,1.9,0.5,2.9c0,0.2-0.1,0.4-0.2,0.6c0,0.1-0.1,0.3-0.1,0.4c0.6,1.1,1,2.2,1.3,3.4l0.2,0.7c1.1,3.3,2.2,6.6,3.3,9.9
				c0.7,2,0.3,4-1.1,5.6c-0.7,0.8-1.5,1.4-2.4,1.7L57.3,65.3z M12.1,64.2H55l0.3-0.1c1.2-0.2,2.2-0.7,2.9-1.6c1.1-1.4,1.4-3,0.9-4.6
				c-1.1-3.3-2.2-6.6-3.3-9.9l-0.2-0.7c-0.4-1.2-0.7-2.2-1.3-3.3c-0.1-0.2-0.1-0.5-0.1-0.7c0-0.2,0.1-0.3,0.1-0.5
				c0.1-0.2,0.1-0.4,0.1-0.5c0.2-0.7,0-1.5-0.4-2.1c-0.4-0.6-1-1-1.7-1.1c-0.3-0.1-0.6,0-1,0l-0.4,0c-0.4,0-0.7-0.1-0.9-0.3
				l-0.2-0.2c-0.3-0.3-0.6-0.5-0.9-0.7c-0.7-0.5-1.5-0.9-2.3-1.3c-2.2-1.1-4.6-1.6-7.3-1.6c-0.7,0-1-0.2-1-1c0-0.2,0-0.6,0.5-0.9
				c1-0.5,2-1.2,2.9-2.2c0.6-0.6,1.2-1.3,1.5-2.1c0.5-1.2,0.8-2.2,0.9-3.2c0-0.5,0.3-0.8,0.7-1c1.3-0.5,1.9-1.5,2-2.8
				c0-1.9,0-3.7,0-5.6l0-1.1c0-0.4,0-0.9-0.1-1.3c-0.5-3.4-2.1-6.2-4.7-8.4c-1.4-1.1-2.9-2-4.6-2.4c-1.6-0.5-3.2-0.6-4.9-0.5
				c-1.1,0.1-2.1,0.3-3,0.6c-2.5,0.9-4.4,2.2-5.9,4c-2,2.4-3,5-3.1,7.9c0,1.6,0,3.2,0,4.8c0,0.7,0,1.3,0,2c0,0.2,0,0.4,0,0.5
				c0.2,1.2,0.9,2,2,2.4c0.3,0.1,0.5,0.4,0.6,0.7l0,0.3c0.1,0.5,0.1,1,0.3,1.4c0.2,0.9,0.5,1.9,1.2,2.7c1,1.3,2.2,2.4,3.6,3.1
				c0.5,0.3,0.7,0.6,0.7,1.2c0,0.7-0.5,0.8-0.9,0.8c-1.1,0-2.1,0.1-3.1,0.2c-2.9,0.5-5.5,1.7-7.9,3.7c-0.2,0.2-0.5,0.3-0.7,0.3
				c-0.4,0-0.8,0-1.1,0c-0.7,0-1.4,0.4-1.9,1c-0.5,0.6-0.7,1.3-0.6,2c0.1,0.4,0.2,0.8,0.3,1.1c0.1,0.2,0.1,0.6-0.1,0.9
				c-0.1,0.2-0.2,0.4-0.3,0.6l-0.3,0.8c-0.5,1.4-1,2.8-1.5,4.1c-0.8,2.3-1.6,4.7-2.3,7L8.3,57c-0.2,0.6-0.4,1.2-0.5,1.8
				C7.6,60,8,61.3,8.7,62.3c0.8,1,1.8,1.7,3.1,1.8l0.1,0L12.1,64.2z M55.2,43.5C55.2,43.5,55.2,43.5,55.2,43.5
				C55.2,43.5,55.2,43.5,55.2,43.5z M16.9,63.2c-0.2,0-0.4-0.1-0.5-0.2c-0.1-0.1-0.2-0.3-0.2-0.6c0-0.5,0-1,0-1.6
				c0-0.1,0-0.4,0.2-0.6C16.6,60,16.9,60,17,60c2.4,0,4.8,0,7.2,0l26.7,0v3.1H17.8C17.5,63.2,17.2,63.2,16.9,63.2
				C16.9,63.2,16.9,63.2,16.9,63.2z M17.3,61.1c0,0.4,0,0.7,0,1c0.2,0,0.4,0,0.5,0h32.1l0-1l-25.6,0C21.9,61.1,19.6,61.1,17.3,61.1z
				 M12.5,63.2c-1.1,0-2.2-0.5-2.9-1.5c-0.7-1-1-2.2-0.6-3.4c0.4-1.3,0.8-2.5,1.2-3.7l3.2-9.4l3.6,13.6l-0.9,0.3
				c-0.7,0.2-1.1,0.8-1.1,1.5v2.5l-0.5,0c-0.2,0-0.3,0-0.3,0l-0.6,0c-0.4,0-0.8,0-1.1,0C12.6,63.2,12.5,63.2,12.5,63.2z M13.3,48.8
				l-2.1,6.1c-0.4,1.2-0.8,2.5-1.2,3.7c-0.3,0.9-0.1,1.7,0.4,2.4c0.5,0.7,1.3,1.1,2.1,1.1c0.4,0,0.8,0,1.2,0l0.3,0v-1.5
				c0-1.1,0.7-2.1,1.7-2.5L13.3,48.8z M54.5,63.2C54.5,63.2,54.5,63.2,54.5,63.2l-2.5,0l0-1.2c0-0.5,0-1,0-1.4
				c0-0.6-0.3-1.1-0.8-1.4c-0.1-0.1-0.3-0.1-0.4-0.2c-0.3-0.1-0.6-0.4-0.5-0.9l2.9-10.8c0.1-0.2,0.1-0.4,0.2-0.6l0.5-1.1l0.5,1.2
				c0,0.1,0.1,0.2,0.1,0.3l2.1,6.4c0.5,1.5,1,3,1.5,4.6c0.4,1.2,0.2,2.5-0.5,3.4C56.9,62.6,55.8,63.2,54.5,63.2z M53.3,62.1l1.2,0
				c0,0,0,0,0,0c0.9,0,1.8-0.4,2.3-1.1c0.5-0.7,0.6-1.6,0.3-2.5c-0.5-1.5-1-3-1.5-4.6l-1.8-5.2l-2.5,9.4c0.1,0,0.2,0.1,0.4,0.2
				c0.9,0.5,1.3,1.3,1.3,2.3c0,0.5,0,0.9,0,1.4v0.1H53.3z M49,59H18.2l-2.4-9.1c-0.7-2.5-1.3-5.1-2-7.6c-0.2-0.6-0.1-1.1,0.3-1.5
				c0.3-0.4,0.9-0.6,1.5-0.7c7.4,0,14.7,0,22.1,0l7.4,0c2.2,0,4.5,0,6.7,0c0.4,0,0.8,0.1,1.1,0.2c0.7,0.4,0.9,1.1,0.7,1.8l-3.9,14.8
				c-0.1,0.4-0.2,0.7-0.3,1.1L49,59z M19,57.9h29.2l0.1-0.2c0.1-0.4,0.2-0.7,0.3-1.1l3.9-14.8c0.1-0.3,0-0.5-0.2-0.6
				c-0.1-0.1-0.3-0.1-0.6-0.1c-2.2,0-4.5,0-6.7,0l-7.4,0c-7.4,0-14.7,0-22.1,0c0,0,0,0,0,0c-0.3,0-0.5,0.1-0.6,0.2
				c-0.1,0.2-0.2,0.4-0.1,0.6c0.7,2.5,1.4,5.1,2,7.7L19,57.9z M33.6,39.1c-0.6,0-1.2-0.2-1.8-0.5c-1.4-0.8-2.1-2.2-1.9-4l0.1-0.7
				l0.6,0.3c1.1,0.4,2,0.7,2.9,0.7c1.1,0,2.1-0.4,2.9-0.7l0.6-0.2l0.1,0.7c0.2,1.7-0.3,3-1.5,3.8C35.1,38.8,34.3,39.1,33.6,39.1z
				 M30.9,35.3c0,1.1,0.5,1.8,1.4,2.3c1,0.5,1.9,0.5,2.8-0.2c0.7-0.5,1.1-1.2,1.1-2.1c-0.8,0.3-1.7,0.5-2.6,0.5
				C32.6,35.9,31.7,35.6,30.9,35.3z M47,39H36.6l0.7-0.9c0.4-0.5,0.7-1.1,0.9-1.9l0.1-0.4l0.4,0c3.1-0.1,6,0.6,8.6,2.1l0.3,0.2
				L47.5,39L47,39z M38.7,38h6.2c-1.8-0.7-3.7-1-5.7-1C39,37.3,38.9,37.7,38.7,38z M30.5,39H18.2l1.6-1c2.6-1.6,5.4-2.3,8.6-2.1
				l0.4,0l0.1,0.4c0.2,0.7,0.5,1.3,0.9,1.9L30.5,39z M22.3,38h6.1c-0.2-0.3-0.3-0.7-0.4-1C26,36.9,24.1,37.2,22.3,38z M33.5,33.8
				c-0.9,0-1.7-0.3-2.5-0.7c-2-0.8-3.6-1.9-4.9-3.2c-0.7-0.7-1.2-1.6-1.5-2.6c-0.3-1-0.5-2-0.6-3.1c0-0.4-0.2-0.6-0.7-0.6
				c-1.1,0-1.9-1.1-1.9-2c0-1,0.7-1.9,1.7-2c0.2,0,0.3,0,0.4-0.1c0.2-0.1,0.4-0.2,0.4-0.4c0-1.1,0.5-2,1.4-2.6
				c0.4-0.3,0.8-0.4,1.2-0.5c2.3-0.3,4.5-1.1,6.4-2.5c0.3-0.2,0.7-0.2,1,0c1.6,1.1,3.3,1.9,5.2,2.3c0.3,0.1,0.5,0.1,0.8,0.1l0.4,0.1
				c1.6,0.2,2.6,1.4,2.7,3c0,0.1,0,0.3,0.1,0.4c0.1,0.2,0.2,0.3,0.4,0.3c0.5,0,1,0.1,1.5,0.6c0.6,0.6,0.7,1.3,0.5,2.1
				c-0.3,0.8-0.9,1.2-1.7,1.3c-0.3,0-0.5,0.1-0.6,0.2c-0.1,0.1-0.1,0.2-0.2,0.5c-0.1,1.1-0.3,2.3-0.8,3.8c-0.2,0.6-0.6,1.2-1.2,1.7
				c-2,1.9-4,3.1-6.2,3.7c-0.2,0.1-0.4,0.1-0.7,0.1c-0.1,0-0.3,0-0.5,0L33.5,33.8C33.5,33.8,33.5,33.8,33.5,33.8z M33.5,14.5
				c-2,1.4-4.3,2.3-6.8,2.6c-0.2,0-0.5,0.1-0.8,0.3c-0.6,0.4-0.9,1-0.9,1.8c0,0.7-0.5,1.3-1.2,1.4c-0.1,0-0.3,0.1-0.4,0.1
				c-0.5,0.1-0.9,0.5-0.9,0.9c0,0.4,0.3,0.9,0.9,1c1,0,1.7,0.7,1.7,1.6c0,1,0.3,1.9,0.5,2.8c0.2,0.8,0.6,1.5,1.2,2.1
				c1.2,1.2,2.7,2.2,4.6,3c0.7,0.3,1.4,0.6,2.1,0.6c0,0,0,0,0,0l0.2,0c0.1,0,0.2,0,0.4,0c0.2,0,0.4-0.1,0.5-0.1
				c2-0.6,3.9-1.7,5.8-3.4c0.5-0.4,0.8-0.8,0.9-1.3c0.5-1.3,0.7-2.5,0.8-3.5c0-0.3,0.1-0.8,0.5-1.2c0.4-0.4,0.9-0.5,1.2-0.5
				c0.4,0,0.7-0.2,0.8-0.6c0.1-0.4,0.1-0.7-0.2-1c-0.2-0.2-0.4-0.3-0.8-0.3c-0.6,0-1.1-0.4-1.3-0.9c-0.1-0.2-0.1-0.5-0.1-0.7
				c-0.1-1.1-0.8-1.9-1.8-2l-0.4-0.1c-0.3,0-0.6-0.1-0.9-0.1C37,16.5,35.2,15.7,33.5,14.5z M21.5,19l-0.1-0.5c0-0.1,0-0.2,0-0.3l0-1
				c0-0.8,0-1.6,0-2.4c0.1-2.7,1.1-5.2,2.8-7.2c1.7-2,3.8-3.3,6.3-3.9c3.6-0.8,6.9-0.2,9.9,1.8c2.9,2,4.6,4.8,5.1,8.3
				c0.1,1.1,0.2,2.2,0.2,3.2c0,0.5,0,1,0,1.4l0,0.6L45.2,19c-0.6-0.1-0.9-0.2-1.1-0.8c-0.6-1.8-1.7-2.8-3.6-3.1
				c-2.2-0.3-4.1-1-5.8-2.2c-0.6-0.4-0.9-0.5-1.3-0.4c-0.2,0.1-0.5,0.2-0.7,0.3c-1.5,1-3,1.7-4.5,2c-0.3,0.1-0.6,0.1-0.9,0.2
				c-0.4,0.1-0.7,0.1-1.1,0.2c-1.6,0.4-2.5,1.4-2.9,2.9c-0.2,0.6-0.5,0.9-1.1,0.9L21.5,19z M33.6,11.3c0.7,0,1.2,0.3,1.7,0.6
				c1.5,1.1,3.3,1.8,5.3,2c1.9,0.3,3.3,1.2,4.1,2.8c0-1,0-1.9-0.2-2.9c-0.4-3.2-2-5.7-4.6-7.6c-2.7-1.9-5.7-2.4-9-1.6
				c-2.2,0.5-4.1,1.7-5.7,3.6c-1.6,1.9-2.5,4.1-2.6,6.6c0,0.6,0,1.2,0,1.8c0.6-1.3,1.8-2.1,3.3-2.6c0.4-0.1,0.8-0.2,1.2-0.2
				c0.3,0,0.6-0.1,0.9-0.2c1.4-0.3,2.7-0.9,4.1-1.9c0.3-0.2,0.7-0.4,1-0.5C33.2,11.3,33.4,11.3,33.6,11.3z"/>
		</g>
		<g>
			<path d="M33.6,55.3c-1.4,0-2.7-0.4-3.8-1.3c-1-0.8-1.6-1.9-1.5-3.3c0.1-1.1,0.7-1.9,1.5-2.6c1.2-0.9,2.6-1.3,4.1-1.2
				c1.4,0.1,2.7,0.6,3.8,1.6c1,1,1.4,2.2,1,3.6c-0.3,1.1-1.1,1.9-2.1,2.4C35.6,55.1,34.6,55.3,33.6,55.3z M33.5,53.2
				c1.1,0,2-0.3,2.6-0.8c0.9-0.8,0.9-1.9,0-2.6c-0.6-0.5-1.2-0.7-1.9-0.7c-1.1-0.1-2.1,0-3,0.8c-0.9,0.8-0.9,1.9,0,2.6
				C31.9,53,32.7,53.2,33.5,53.2z"/>
			<path d="M33.6,55.8C33.6,55.8,33.6,55.8,33.6,55.8L33.6,55.8c-1.6,0-3-0.5-4.1-1.4c-1.3-1-1.8-2.3-1.7-3.8
				c0.1-1.1,0.7-2.1,1.7-2.9c1.2-1,2.7-1.4,4.4-1.3c1.7,0.1,3,0.7,4.1,1.8c1.2,1.2,1.6,2.6,1.1,4.1c-0.3,1.1-1.2,2.1-2.4,2.7
				C35.8,55.6,34.7,55.8,33.6,55.8z M33.6,54.8C33.6,54.8,33.6,54.8,33.6,54.8c0.9,0,1.8-0.2,2.7-0.7c1-0.6,1.6-1.2,1.9-2.1
				c0.3-1.1,0.1-2.1-0.9-3.1c-0.9-0.9-2-1.4-3.4-1.5c-1.4-0.1-2.7,0.3-3.7,1.1c-0.8,0.6-1.2,1.4-1.3,2.2c-0.1,1.1,0.3,2,1.3,2.8
				C31.1,54.4,32.3,54.8,33.6,54.8z M33.5,53.7L33.5,53.7c-1.1,0-1.9-0.3-2.6-0.9c-0.6-0.5-0.9-1.1-0.9-1.7c0-0.6,0.3-1.3,0.9-1.8
				c1.1-0.9,2.5-1,3.4-0.9c0.9,0.1,1.6,0.4,2.2,0.8c0.6,0.5,0.9,1.1,0.9,1.7c0,0.6-0.3,1.2-0.9,1.7C35.7,53.4,34.7,53.7,33.5,53.7z
				 M33.5,49.5c-0.9,0-1.5,0.2-2.1,0.7c-0.3,0.3-0.5,0.6-0.5,0.9c0,0.3,0.2,0.6,0.5,0.9c0.5,0.4,1.2,0.6,2,0.7c1,0,1.7-0.2,2.2-0.7
				c0.3-0.3,0.5-0.6,0.5-0.9c0-0.3-0.2-0.6-0.5-0.9c-0.5-0.4-1-0.6-1.6-0.6C33.9,49.6,33.7,49.5,33.5,49.5z"/>
		</g>
	</g>
</g>
</svg>
