<?xml version="1.0" encoding="UTF-8"?>
<svg id="_Слой_1" data-name="Слой 1" xmlns="http://www.w3.org/2000/svg" viewBox="0 0 67.16 67.16">
  <path d="m46.58,26.82c5.14,7.26,6.09,19.47-2.46,28.45-8.29,8.71-22.1,9.72-31.59,1.31-9.21-8.16-10.47-21.97-2.4-31.64,8-9.58,21.17-10.58,30.21-4.37-.02.03-.03.06-.06.09-.86.87-1.73,1.73-2.59,2.6-.13.13-.23.16-.4.06-2.02-1.25-4.21-2.02-6.55-2.41-1.91-.32-3.82-.35-5.74-.07-3.85.56-7.23,2.14-10.11,4.77-2.2,2.02-3.83,4.41-4.88,7.21-.85,2.26-1.27,4.59-1.23,6.99.02,1.06.15,2.13.33,3.18.46,2.69,1.53,5.12,3.1,7.36,1.6,2.3,3.63,4.12,6.03,5.53,2.07,1.21,4.32,1.95,6.69,2.29,1.47.21,2.94.26,4.41.13,1.95-.18,3.83-.64,5.63-1.4,4.21-1.78,7.35-4.72,9.47-8.76,1.03-1.96,1.67-4.07,1.94-6.27.18-1.42.16-2.85.03-4.27-.25-2.79-1.18-5.35-2.57-7.76-.08-.14-.09-.22.04-.34.87-.86,1.73-1.73,2.6-2.6.03-.03.07-.06.1-.09Z"/>
  <path d="m26.78,39.21c.01-.4.19-.72.47-.99.52-.52,1.04-1.04,1.56-1.56.64-.64,1.29-1.29,1.93-1.93.15-.15.22-.28.18-.51-.13-.8.13-1.49.68-2.06,1.17-1.19,2.34-2.38,3.53-3.56,2.77-2.77,5.56-5.53,8.33-8.3.93-.92,1.85-1.86,2.78-2.77.18-.17.21-.33.17-.58-.15-.86-.27-1.72-.39-2.58-.07-.5-.14-1.01-.22-1.51-.06-.39.03-.71.32-1,2.24-2.23,4.48-4.46,6.72-6.69.11-.11.23-.21.37-.29.41-.22.9-.03,1.01.43.12.53.19,1.06.27,1.6.25,1.65.5,3.3.76,4.95,0,.06.1.15.17.16,2.04.29,4.08.57,6.12.85.54.07.81.32.84.76.02.25-.1.44-.27.6-.59.59-1.19,1.19-1.78,1.78-1.66,1.66-3.32,3.31-4.97,4.98-.36.36-.73.47-1.22.38-1.28-.22-2.57-.38-3.85-.6-.32-.06-.51.02-.73.24-2.92,2.94-5.85,5.86-8.77,8.79-1.89,1.89-3.79,3.77-5.67,5.67-.65.65-1.41.89-2.31.77-.09-.01-.21.05-.28.11-1.21,1.21-2.41,2.42-3.62,3.63-.57.57-1.32.57-1.83,0-.2-.22-.31-.47-.3-.77Z"/>
  <path d="m40.24,33.16c2.27,3.92,2.72,11.22-2.77,16.54-5.57,5.39-14.21,5.29-19.69-.06-5.65-5.51-5.84-14.49-.04-20.22,2.59-2.56,5.77-3.96,9.45-4.07,2.4-.07,5.98.8,6.85,1.63-.16.14-.32.27-.47.41-.8.79-1.6,1.59-2.4,2.39-.1.1-.19.13-.34.08-3.33-1.08-6.44-.59-9.25,1.46-2.12,1.54-3.42,3.65-3.94,6.23-.89,4.49,1.37,9.53,6.22,11.44,2.92,1.15,5.83,1.03,8.61-.47,2.79-1.5,4.56-3.83,5.2-6.95.35-1.73.32-3.46-.33-5.14-.08-.22-.04-.36.13-.52.9-.88,1.79-1.78,2.69-2.67.03-.03.06-.05.1-.09Z"/>
  <path d="m27.63,33.31c.4.05.77.1,1.14.14.2.03.21.14.11.28-.1.14-.22.27-.34.39-.95.95-1.9,1.89-2.84,2.85-.9.91-1.17,2.31-.68,3.46.52,1.21,1.7,1.99,3,1.98.87-.01,1.6-.33,2.21-.94.93-.93,1.86-1.86,2.8-2.79.12-.12.25-.24.38-.35.2-.16.25-.13.31.11.14.66.13,1.33.03,1.99-.4,2.62-2.18,4.44-4.57,5.07-2.8.73-5.53-.6-6.89-3-2.04-3.59.1-8.16,4.21-9.01.38-.08.77-.11,1.15-.16Z"/>
</svg>