<?xml version="1.0" encoding="utf-8"?>
<!-- Generator: Adobe Illustrator 27.4.1, SVG Export Plug-In . SVG Version: 6.00 Build 0)  -->
<svg version="1.1" id="_Слой_1" xmlns="http://www.w3.org/2000/svg" xmlns:xlink="http://www.w3.org/1999/xlink" x="0px"
	 y="0px" viewBox="0 0 67.2 67.2" style="enable-background:new 0 0 67.2 67.2;" xml:space="preserve">
<style type="text/css">
	.st0{stroke:#000000;stroke-width:1.4173;stroke-miterlimit:10;}
</style>
<g>
	<g>
		<path class="st0" d="M21.9,53c-0.2,0.2-0.5,0.3-0.7,0.5c-1.4,1.1-2.9,2.2-4.3,3.4c-0.6,0.5-1,0.4-1.5-0.1
			c-1.7-1.7-3.4-3.4-5.1-5.1c-0.5-0.5-0.5-0.9-0.1-1.4c1.2-1.4,2.3-2.9,3.5-4.3c0.4-0.5,0.4-0.8,0.1-1.4c-0.7-1.5-1.4-3-1.9-4.6
			c-0.3-0.8-0.6-1-1.4-1.1c-1.6-0.1-3.1-0.3-4.7-0.5c-1.5-0.1-1.5-0.2-1.5-1.7c0-2.2,0-4.5,0-6.7c0-0.7,0.2-1.1,1-1.2
			c1.6-0.2,3.3-0.4,4.9-0.5c0.9-0.1,1.5-0.3,1.8-1.3c0.4-1.5,1.1-2.9,1.8-4.3c0.4-0.7,0.2-1.1-0.2-1.6c-1.1-1.3-2.2-2.7-3.3-4.1
			c-0.5-0.6-0.5-1,0.1-1.6c1.7-1.7,3.4-3.3,5-5c0.6-0.6,1-0.5,1.6,0c1.4,1.1,2.8,2.2,4.2,3.4c0.5,0.4,0.9,0.5,1.5,0.2
			c1.5-0.7,3-1.4,4.6-1.9c0.7-0.2,1-0.6,1.1-1.3c0.1-1.5,0.3-3.1,0.5-4.6c0.1-1.7,0.2-1.7,1.8-1.7c2.1,0,4.3,0,6.4,0
			c0.9,0,1.3,0.3,1.4,1.2c0.1,1.6,0.3,3.2,0.5,4.8c0.1,0.8,0.3,1.3,1.2,1.6c1.6,0.5,3,1.2,4.5,1.9c0.6,0.3,0.9,0.3,1.4-0.1
			c1.4-1.2,2.9-2.3,4.3-3.5c0.6-0.5,0.9-0.4,1.4,0.1c1.7,1.7,3.4,3.5,5.2,5.2c0.5,0.5,0.5,0.8,0.1,1.4c-1.1,1.4-2.2,2.8-3.4,4.2
			c-0.5,0.6-0.6,1-0.2,1.7c0.7,1.4,1.4,3,1.9,4.5c0.2,0.8,0.6,1,1.3,1.1c1.6,0.1,3.1,0.3,4.7,0.5c1.5,0.1,1.6,0.2,1.6,1.7
			c0,2.2,0,4.4,0,6.6c0,0.8-0.3,1.2-1,1.2c-1.6,0.1-3.3,0.4-4.9,0.5c-0.9,0.1-1.4,0.3-1.7,1.3c-0.4,1.5-1.1,3-1.8,4.4
			c-0.3,0.7-0.3,1,0.2,1.6c1.1,1.4,2.2,2.8,3.4,4.2c0.5,0.6,0.5,1-0.1,1.5c-1.7,1.7-3.4,3.4-5.1,5.1c-0.5,0.5-1,0.5-1.5,0
			c-1.4-1.2-2.8-2.3-4.2-3.4c-0.5-0.4-0.8-0.4-1.4-0.1c-1.5,0.7-3.1,1.4-4.7,2c-0.7,0.2-1,0.6-1,1.2c-0.1,1.6-0.3,3.1-0.5,4.7
			c-0.1,1.6-0.2,1.6-1.7,1.6c-2.2,0-4.3,0-6.5,0c-0.9,0-1.3-0.3-1.3-1.2c-0.1-1.6-0.4-3.3-0.5-4.9c-0.1-0.8-0.3-1.3-1.2-1.5
			c-1.6-0.5-3.1-1.3-4.6-1.9C22.4,53.3,22.2,53.2,21.9,53z M11.4,16.3c1.3,1.6,2.5,3.1,3.8,4.7c0.4,0.5,0.4,1,0.2,1.6
			c-0.9,2-1.7,3.9-2.5,6c-0.2,0.6-0.5,0.8-1.1,0.9c-1.8,0.2-3.6,0.4-5.4,0.6c-0.3,0-0.7,0.3-0.7,0.5c0,2.2,0,4.3,0,6.5
			c2.2,0.3,4.2,0.5,6.2,0.7c0.6,0.1,0.8,0.3,1.1,0.9c0.7,1.9,1.4,3.8,2.3,5.7c0.4,0.8,0.4,1.4-0.2,2c-1.2,1.5-2.4,3-3.6,4.5
			c1.7,1.7,3.3,3.3,4.9,4.9c1.5-1.2,3.1-2.5,4.6-3.7c0.5-0.4,0.9-0.5,1.6-0.2c2,0.9,4,1.7,6,2.5c0.3,0.1,0.7,0.5,0.8,0.9
			c0.2,1.2,0.3,2.4,0.4,3.6c0.2,2.6,0.2,2.6,2.8,2.6c1.2,0,2.4,0,3.6,0c0.3,0,0.6-0.1,0.9-0.1c0.2-2.1,0.5-4,0.7-6
			c0.1-0.7,0.3-0.9,1-1.1c1.9-0.7,3.8-1.4,5.7-2.3c0.8-0.4,1.3-0.4,1.9,0.1c1.5,1.3,3,2.4,4.4,3.6c1.7-1.7,3.3-3.3,5-4.9
			c-1.2-1.5-2.4-3.1-3.7-4.6c-0.4-0.5-0.4-1-0.2-1.6c0.9-2,1.6-4,2.5-5.9c0.2-0.4,0.6-0.8,0.9-0.8c1.8-0.3,3.6-0.4,5.4-0.7
			c0.3,0,0.8-0.3,0.8-0.4c0.1-2.2,0-4.4,0-6.6c-2.1-0.3-4.1-0.5-6.2-0.7c-0.6-0.1-0.8-0.3-1.1-0.9c-0.7-2-1.5-3.9-2.4-5.8
			c-0.4-0.8-0.4-1.2,0.2-1.9c1.3-1.5,2.5-3,3.6-4.5c-1.6-1.6-3.3-3.3-4.9-4.9c-1.5,1.2-3.1,2.4-4.6,3.7c-0.6,0.5-1,0.5-1.7,0.2
			c-1.9-0.9-3.9-1.7-5.9-2.4c-0.6-0.2-0.9-0.4-0.9-1c-0.2-1.8-0.4-3.6-0.6-5.4c-0.1-0.6-0.2-0.8-0.8-0.8c-1.9,0-3.7,0-5.6,0
			c-0.5,0-0.7,0.2-0.8,0.7c-0.2,1.8-0.4,3.6-0.6,5.4c-0.1,0.7-0.4,0.9-1,1.1c-2,0.7-3.9,1.5-5.8,2.4c-0.7,0.3-1.2,0.3-1.8-0.2
			c-1.5-1.3-3.1-2.5-4.6-3.7C14.7,13.1,13.1,14.7,11.4,16.3z"/>
		<path class="st0" d="M20.5,33.6c0-7.3,5.9-13.1,13.1-13.1c7.3,0,13.1,6,13.1,13.1c-0.1,7.3-5.9,13.1-13.1,13.1
			C26.3,46.7,20.4,40.8,20.5,33.6z M45.4,33.6c0-6.6-5.3-11.8-11.9-11.8c-6.5,0-11.7,5.2-11.8,11.8c0,6.6,5.2,11.8,11.8,11.8
			C40.1,45.4,45.4,40.2,45.4,33.6z"/>
	</g>
</g>
</svg>
