<?xml version="1.0" encoding="UTF-8"?>
<svg id="_Слой_1" data-name="Слой 1" xmlns="http://www.w3.org/2000/svg" viewBox="0 0 67.16 67.16">
  <path d="m33.57,4.53c4.69,0,9.38,0,14.06,0,1.13,0,1.35.22,1.35,1.34,0,5.17-.02,10.33-.01,15.5,0,3.85-1.67,6.8-4.83,8.92-.9.6-1.92,1.03-2.88,1.54-.35.18-.71.34-1.04.55-.49.33-.56.81-.12,1.2.5.43,1.05.82,1.63,1.13,1.37.74,2.74,1.46,3.91,2.52,2.15,1.94,3.27,4.39,3.31,7.25.07,5.53.03,11.05.02,16.58,0,1.18-.42,1.56-1.7,1.56-6.04,0-12.08,0-18.12,0-2.89,0-5.78,0-8.67,0-.43,0-.85-.04-1.28-.09-.74-.09-1.03-.4-1.03-1.15,0-2.14,0-4.28,0-6.42,0-3.3-.02-6.6,0-9.91,0-4.06,1.85-7.09,5.25-9.21.72-.45,1.5-.81,2.23-1.25.41-.24.79-.54,1.14-.87.51-.49.46-1-.13-1.41-.39-.27-.83-.47-1.24-.71-1.22-.71-2.53-1.31-3.64-2.17-2.4-1.85-3.6-4.36-3.6-7.42,0-5.39,0-10.78-.01-16.17,0-1.14.2-1.33,1.34-1.33,4.69,0,9.38,0,14.06,0Zm-10.66,37.71c.23,0-1.33-.23-1.18-.23,7.92,0,8.1,0,16.02,0,.07,0,6.28,0,6.35,0,.36-.02.47-.16.23-.48-.23-.3-.45-.6-.68-.9-.92-1.2-1.87-2.37-3.3-3.01-.86-.39-1.74-.72-2.56-1.16-1.89-1.01-2.57-3.36-1.49-5.09.61-.98,1.56-1.51,2.6-1.89,3.7-1.34,6.01-4.53,6.03-8.37.02-4.62,0-7.78,0-12.4,0-.83-.17-.99-.99-.99-7.96,0-12.6.22-20.56.22-.89,0-1.08.19-1.07,1.09,0,4.83,0,8.19.03,13.02,0,.79.13,1.61.38,2.36.82,2.51,3.09,3.7,5.44,4.74.72.32,1.42.94,2.07,1.36,1.72,1.14,1.63,3.59.33,5.17-.64.78-1.5,1.22-2.39,1.62-1.4.62-2.73,1.34-3.76,2.52-.62.71-1.13,1.48-1.5,2.43Z"/>
</svg>