<?xml version="1.0" encoding="UTF-8"?>
<svg id="_Слой_1" data-name="Слой 1" xmlns="http://www.w3.org/2000/svg" viewBox="0 0 67.16 67.16">
  <path d="m49.86,31.96c-.09,1.22-.64,1.79-1.48,2.11-1.24.48-2.48.94-3.72,1.41-2.01.77-4.04,1.51-5.84,2.74-3.18,2.18-5.42,5.12-6.86,8.66-.68,1.69-1.27,3.42-1.91,5.13-.15.39-.3.78-.53,1.12-.87,1.27-2.39,1.21-3.12-.14-.37-.69-.63-1.44-.91-2.18-.51-1.36-.98-2.73-1.5-4.09-1.94-5.06-5.46-8.55-10.49-10.52-1.78-.7-3.59-1.3-5.37-1.97-.46-.17-.93-.38-1.31-.69-.91-.73-.84-2.15.14-2.77.55-.35,1.19-.57,1.81-.81,1.93-.76,3.91-1.4,5.78-2.28,4.31-2.01,7.46-5.2,9.24-9.66.69-1.73,1.32-3.49,2-5.23.21-.54.41-1.1.72-1.58.72-1.09,2.2-1.09,2.93-.02.25.37.41.81.58,1.23.64,1.62,1.27,3.24,1.88,4.87,2.15,5.77,6.34,9.4,12.03,11.46,1.29.47,2.57.94,3.85,1.42.42.16.9.31,1.22.6.4.37.67.88.86,1.16Zm-36.04.18c1.78.87,3.36,1.5,4.81,2.37,3.88,2.31,6.51,5.71,8.36,9.77.29.63.58,1.25,1,2.15,1.39-3.39,2.93-6.34,5.29-8.78,2.38-2.46,5.32-4.08,8.69-5.43-3.46-1.33-6.27-3.13-8.68-5.54-2.4-2.39-3.93-5.32-5.34-8.42-2.64,6.74-7.14,11.48-14.14,13.87Z"/>
  <path d="m60.99,19.06c-.04.54-.28.79-.66.94-.55.21-1.1.42-1.65.63-.89.34-1.79.67-2.59,1.22-1.41.97-2.4,2.27-3.04,3.84-.3.75-.56,1.52-.85,2.27-.06.17-.13.35-.23.5-.38.56-1.06.54-1.38-.06-.17-.31-.28-.64-.4-.97-.23-.6-.44-1.21-.67-1.81-.86-2.24-2.42-3.79-4.65-4.66-.79-.31-1.59-.58-2.38-.88-.2-.08-.41-.17-.58-.3-.4-.32-.37-.95.06-1.23.25-.16.53-.25.8-.36.85-.34,1.73-.62,2.56-1.01,1.91-.89,3.31-2.31,4.1-4.28.31-.77.59-1.55.89-2.32.09-.24.18-.49.32-.7.32-.48.98-.48,1.3,0,.11.16.18.36.26.55.28.72.56,1.44.83,2.16.95,2.56,2.81,4.17,5.33,5.08.57.21,1.14.41,1.71.63.19.07.4.14.54.27.18.16.3.39.38.51Z"/>
  <path d="m55.32,47.86c-.04.54-.28.79-.66.94-.55.21-1.1.42-1.65.63-.89.34-1.79.67-2.59,1.22-1.41.97-2.4,2.27-3.04,3.84-.3.75-.56,1.52-.85,2.27-.06.17-.13.35-.23.5-.38.56-1.06.54-1.38-.06-.17-.31-.28-.64-.4-.97-.23-.6-.44-1.21-.67-1.81-.86-2.24-2.42-3.79-4.65-4.66-.79-.31-1.59-.58-2.38-.88-.2-.08-.41-.17-.58-.3-.4-.32-.37-.95.06-1.23.25-.16.53-.25.8-.36.85-.34,1.73-.62,2.56-1.01,1.91-.89,3.31-2.31,4.1-4.28.31-.77.59-1.55.89-2.32.09-.24.18-.49.32-.7.32-.48.98-.48,1.3,0,.11.16.18.36.26.55.28.72.56,1.44.83,2.16.95,2.56,2.81,4.17,5.33,5.08.57.21,1.14.41,1.71.63.19.07.4.14.54.27.18.16.3.39.38.51Z"/>
</svg>