<?xml version="1.0" encoding="UTF-8"?>
<svg id="_Слой_1" data-name="Слой 1" xmlns="http://www.w3.org/2000/svg" viewBox="0 0 42.82 42.82">
  <defs>
    <style>
      .cls-1 {
        fill: #fff;
      }
    </style>
  </defs>
  <path class="cls-1" d="m21.4,42.82C9.72,42.85,0,33.32,0,21.49c0-6.02,2.17-11.17,6.45-15.38C10.11,2.5,14.54.45,19.67.07c6.59-.49,12.29,1.63,16.96,6.3,3.82,3.82,5.83,8.51,6.18,13.91.23,6.34-1.85,11.81-6.32,16.31-3.98,4.01-9.43,6.25-15.09,6.23Zm-3.07-32.14c0,.1,0,.2,0,.3.04.35.08.69.12,1.04.08.71.15,1.42.23,2.13.1.85.2,1.71.3,2.56.09.78.18,1.57.27,2.35.08.71.17,1.41.24,2.12.12,1.04.22,2.07.34,3.11.11.99.24,1.97.33,2.96.08.84.79,1.45,1.63,1.34.57-.07,1.1-.54,1.19-1.13.08-.53.11-1.07.16-1.61.06-.72.12-1.44.19-2.16.05-.61.12-1.21.17-1.82.06-.64.12-1.27.17-1.91.07-.79.14-1.57.21-2.36.05-.61.11-1.21.16-1.82.08-.9.16-1.8.24-2.7.06-.63.12-1.27.17-1.9.02-.3.04-.61,0-.9-.26-1.83-1.97-2.89-3.54-2.63-1.44.24-2.59,1.45-2.6,3.03Zm5.84,21.95c0-1.42-1.14-2.55-2.53-2.58-1.37-.03-2.61,1.09-2.62,2.57,0,1.42,1.17,2.58,2.59,2.58,1.4,0,2.56-1.17,2.56-2.57Zm-5.33-1.68s.02,0,.03,0v-.13s-.03,0-.04,0c0,.04,0,.08,0,.13Z"/>
  <path d="m18.84,30.95s0-.08,0-.13c.01,0,.03,0,.04,0v.13s-.02,0-.03,0Z"/>
</svg>