<?xml version="1.0" encoding="utf-8"?>
<!-- Generator: Adobe Illustrator 27.4.1, SVG Export Plug-In . SVG Version: 6.00 Build 0)  -->
<svg version="1.1" id="Слой_1" xmlns="http://www.w3.org/2000/svg" xmlns:xlink="http://www.w3.org/1999/xlink" x="0px" y="0px"
	 viewBox="0 0 52 52" style="enable-background:new 0 0 52 52;" xml:space="preserve">
<style type="text/css">
	.st0{fill:#FFFFFF;}
	.st1{fill:#CC1D1D;}
</style>
<rect y="0" width="52" height="52"/>
<g>
	<path class="st0" d="M-98.8,46.2c-10-4.3-17.8-34.5-17.8-34.5c14.6,5.1,16.8,14,16.8,14s0.8,1.4,1.9,0c0,0,2.2-8.8,16.8-14
		C-81,11.7-88.8,42-98.8,46.2"/>
	<g>
		<path class="st1" d="M-98.8,34.4c0,0-4-3.1,0-6.7"/>
		<path class="st1" d="M-98.8,27.7c0,0,4,3.1,0,6.7"/>
	</g>
	<g>
		<g>
			<path class="st1" d="M-105.7,31.9c0,0,5-0.2,4.3,5.1"/>
			<path class="st1" d="M-101.3,36.9c0,0-5,0.2-4.3-5.1"/>
		</g>
		<g>
			<path class="st1" d="M-91.9,31.9c0,0-5-0.2-4.3,5.1"/>
			<path class="st1" d="M-96.3,36.9c0,0,5,0.2,4.3-5.1"/>
		</g>
	</g>
</g>
<g>
	<path class="st0" d="M27.2,17c-1.4,1.7-2.3,0-2.3,0S23.5,10.8,5.4,7c0,0,8.4,32.8,20.6,38C38.2,39.9,46.6,7,46.6,7
		C28.5,10.9,27.2,17,27.2,17z M22.9,33.7c0,0-6.1,0.2-5.3-6.2C17.6,27.6,23.8,27.3,22.9,33.7z M26,28.5c0,0-4.8-3.8,0-8.2
		C26,20.5,30.8,24.3,26,28.5z M29.1,33.7c-0.8-6.4,5.3-6.2,5.3-6.2C35.2,33.9,29.1,33.7,29.1,33.7z"/>
</g>
</svg>
