<?xml version="1.0" encoding="utf-8"?>
<!-- Generator: Adobe Illustrator 21.0.0, SVG Export Plug-In . SVG Version: 6.00 Build 0)  -->
<svg version="1.1" id="Слой_1" xmlns="http://www.w3.org/2000/svg" xmlns:xlink="http://www.w3.org/1999/xlink" x="0px" y="0px"
	 viewBox="0 0 52 52" style="enable-background:new 0 0 52 52;" xml:space="preserve">
<style type="text/css">
	.st0{fill:#302F35;}
	.st1{fill:#FFFFFF;}
	.st2{fill:#CC1D1D;}
	.st3{fill:url(#SVGID_1_);}
</style>
<rect y="0" class="st0" width="52" height="52"/>
<path class="st1" d="M-96.1,41c-10-4.3-17.8-34.5-17.8-34.5c14.6,5.1,16.8,14,16.8,14s0.8,1.4,1.9,0c0,0,2.2-8.8,16.8-14
	C-78.3,6.5-86.1,36.8-96.1,41"/>
<g>
	<path class="st2" d="M-96.1,29.2c0,0-4-3.1,0-6.7"/>
	<path class="st2" d="M-96.1,22.5c0,0,4,3.1,0,6.7"/>
</g>
<g>
	<g>
		<path class="st2" d="M-103,26.7c0,0,5-0.2,4.3,5.1"/>
		<path class="st2" d="M-98.6,31.7c0,0-5,0.2-4.3-5.1"/>
	</g>
	<g>
		<path class="st2" d="M-89.2,26.7c0,0-5-0.2-4.3,5.1"/>
		<path class="st2" d="M-93.6,31.7c0,0,5,0.2,4.3-5.1"/>
	</g>
</g>
<g>
	
		<linearGradient id="SVGID_1_" gradientUnits="userSpaceOnUse" x1="5.3671" y1="26.1667" x2="46.6329" y2="26.1667" gradientTransform="matrix(1 0 0 -1 0 54)">
		<stop  offset="0" style="stop-color:#FB34BE"/>
		<stop  offset="1" style="stop-color:#FF5858"/>
	</linearGradient>
	<path class="st3" d="M27.2,18.9c-1.4,1.7-2.3,0-2.3,0s-1.4-6.2-19.5-10c0,0,8.4,32.8,20.6,38c12.2-5.1,20.6-38,20.6-38
		C28.5,12.8,27.2,18.9,27.2,18.9z M22.9,35.6c0,0-6.1,0.2-5.3-6.2C17.6,29.5,23.8,29.2,22.9,35.6z M26,30.4c0,0-4.8-3.8,0-8.2
		C26,22.4,30.8,26.2,26,30.4z M29.1,35.6c-0.8-6.4,5.3-6.2,5.3-6.2C35.2,35.8,29.1,35.6,29.1,35.6z"/>
</g>
</svg>
