<?xml version="1.0" encoding="utf-8"?>
<!-- Generator: Adobe Illustrator 27.4.1, SVG Export Plug-In . SVG Version: 6.00 Build 0)  -->
<svg version="1.1" id="Слой_1" xmlns="http://www.w3.org/2000/svg" xmlns:xlink="http://www.w3.org/1999/xlink" x="0px" y="0px"
	 viewBox="0 0 48 46" style="enable-background:new 0 0 48 46;" xml:space="preserve">
<style type="text/css">
	.st0{fill:url(#SVGID_1_);}
	.st1{fill:#615F67;}
	.st2{enable-background:new    ;}
	.st3{fill:#FFFFFF;}
</style>
<linearGradient id="SVGID_1_" gradientUnits="userSpaceOnUse" x1="1" y1="-776.6063" x2="47" y2="-776.6063" gradientTransform="matrix(1 0 0 -1 0 -753.6063)">
	<stop  offset="0" style="stop-color:#FB34BE"/>
	<stop  offset="1" style="stop-color:#FF5858"/>
</linearGradient>
<rect x="1" y="0" class="st0" width="46" height="46"/>
<rect x="1" y="0" class="st1" width="23" height="23"/>
<rect x="24" y="23" class="st1" width="23" height="23"/>
<g>
	<g class="st2">
		<path class="st3" d="M17.9,16.9h-1.5l-1.2-3.2h-4.9l-1.2,3.2H7.6l4.4-11.6h1.4L17.9,16.9z M14.8,12.4l-1.8-4.9
			c-0.1-0.2-0.1-0.4-0.2-0.8h0c-0.1,0.3-0.1,0.6-0.2,0.8l-1.8,4.9H14.8z"/>
	</g>
</g>
<g>
	<g class="st2">
		<path class="st3" d="M39.9,28.6l-6.8,10h6.6v1.2h-8.6v-0.4l6.7-10h-6.2v-1.2h8.2V28.6z"/>
	</g>
</g>
</svg>
