<?xml version="1.0" encoding="utf-8"?>
<!-- Generator: Adobe Illustrator 21.0.0, SVG Export Plug-In . SVG Version: 6.00 Build 0)  -->
<svg version="1.1" id="Слой_1" xmlns="http://www.w3.org/2000/svg" xmlns:xlink="http://www.w3.org/1999/xlink" x="0px" y="0px"
	 viewBox="0 0 850.4 850.4" style="enable-background:new 0 0 850.4 850.4;" xml:space="preserve">
<style type="text/css">
	.st0{fill:#FFFFFF;}
	.st1{fill:#FFFFFF;stroke:#707070;stroke-miterlimit:10;}
	.st2{fill:none;stroke:#575756;stroke-miterlimit:10;}
	.st3{fill:#575756;}
	.st4{fill:none;stroke:#707070;stroke-miterlimit:10;stroke-dasharray:8.5039,5.6693;}
	.st5{fill:#707070;}
	.st6{font-family:'SegoeUI-LightItalic';}
	.st7{font-size:18px;}
</style>
<rect x="-84" y="-42" class="st0" width="962" height="905"/>
<g>
	<polygon class="st1" points="330.9,802.2 371.9,747.9 371.9,509.3 330.9,563.6 	"/>
	<rect x="330.9" y="563.6" class="st1" width="52.2" height="238.6"/>
	<polygon class="st1" points="383.1,802.2 519.5,692.6 519.5,454 383.1,563.6 	"/>
</g>
<rect x="169.5" y="84.2" class="st1" width="560.7" height="335.5"/>
<g>
	<g>
		<line class="st2" x1="398.1" y1="57.2" x2="722.1" y2="57.2"/>
		<g>
			<path class="st3" d="M399.9,57.2l2.2-3.6l-0.1-0.1l-5.9,2.3c-2,0.5-4.1,0.9-6.1,1.4c2,0.5,4.1,0.9,6.1,1.4l5.9,2.3l0.1-0.1
				L399.9,57.2z"/>
		</g>
		<g>
			<path class="st3" d="M720.3,57.2l-2.2-3.6l0.1-0.1l5.9,2.3c2,0.5,4.1,0.9,6.1,1.4c-2,0.5-4.1,0.9-6.1,1.4l-5.9,2.3l-0.1-0.1
				L720.3,57.2z"/>
		</g>
	</g>
</g>
<g>
	<g>
		<line class="st2" x1="177.7" y1="57.2" x2="314.7" y2="57.2"/>
		<g>
			<path class="st3" d="M179.4,57.2l2.2-3.6l-0.1-0.1l-5.9,2.3c-2,0.5-4.1,0.9-6.1,1.4c2,0.5,4.1,0.9,6.1,1.4l5.9,2.3l0.1-0.1
				L179.4,57.2z"/>
		</g>
		<g>
			<path class="st3" d="M312.9,57.2l-2.2-3.6l0.1-0.1l5.9,2.3c2,0.5,4.1,0.9,6.1,1.4c-2,0.5-4.1,0.9-6.1,1.4l-5.9,2.3l-0.1-0.1
				L312.9,57.2z"/>
		</g>
	</g>
</g>
<g>
	<g>
		<line class="st2" x1="144.3" y1="92.3" x2="144.3" y2="411.5"/>
		<g>
			<path class="st3" d="M144.3,94.1l3.6,2.2l0.1-0.1l-2.3-5.9c-0.5-2-0.9-4.1-1.4-6.1c-0.5,2-0.9,4.1-1.4,6.1l-2.3,5.9l0.1,0.1
				L144.3,94.1z"/>
		</g>
		<g>
			<path class="st3" d="M144.3,409.7l3.6-2.2l0.1,0.1l-2.3,5.9c-0.5,2-0.9,4.1-1.4,6.1c-0.5-2-0.9-4.1-1.4-6.1l-2.3-5.9l0.1-0.1
				L144.3,409.7z"/>
		</g>
	</g>
</g>
<g>
	<g>
		<line class="st2" x1="327.1" y1="57.2" x2="383.9" y2="57.2"/>
		<g>
			<path class="st3" d="M328.8,57.2l2.2-3.6l-0.1-0.1l-5.9,2.3c-2,0.5-4.1,0.9-6.1,1.4c2,0.5,4.1,0.9,6.1,1.4l5.9,2.3l0.1-0.1
				L328.8,57.2z"/>
		</g>
		<g>
			<path class="st3" d="M382.1,57.2l-2.2-3.6l0.1-0.1l5.9,2.3c2,0.5,4.1,0.9,6.1,1.4c-2,0.5-4.1,0.9-6.1,1.4l-5.9,2.3l-0.1-0.1
				L382.1,57.2z"/>
		</g>
	</g>
</g>
<line class="st4" x1="322.9" y1="84.2" x2="322.9" y2="419.6"/>
<line class="st4" x1="390" y1="84.2" x2="390" y2="419.6"/>
<text transform="matrix(1 0 0 1 542.2203 43.5684)" class="st5 st6 st7">355мм</text>
<text transform="matrix(6.123234e-17 -1 1 6.123234e-17 132.482 264.0352)" class="st5 st6 st7">350мм</text>
<text transform="matrix(1 0 0 1 337.4117 43.3955)" class="st5 st6 st7">70мм</text>
<text transform="matrix(1 0 0 1 228.2779 43.2207)" class="st5 st6 st7">160мм</text>
</svg>
