<?xml version="1.0" encoding="utf-8"?>
<!-- Generator: Adobe Illustrator 27.4.1, SVG Export Plug-In . SVG Version: 6.00 Build 0)  -->
<svg version="1.1" id="Layer_1" xmlns="http://www.w3.org/2000/svg" xmlns:xlink="http://www.w3.org/1999/xlink" x="0px" y="0px"
	 viewBox="0 0 288 288" style="enable-background:new 0 0 288 288;" xml:space="preserve">
<style type="text/css">
	.st0{fill:#FFFFFF;}
	.st1{fill:url(#SVGID_1_);}
</style>
<g id="New_Symbol_6">
</g>
<g>
	<rect x="0" y="0" class="st0" width="288" height="288"/>
	<linearGradient id="SVGID_1_" gradientUnits="userSpaceOnUse" x1="93.1985" y1="93.1988" x2="199.1303" y2="199.1307">
		<stop  offset="0" style="stop-color:#00B3A5"/>
		<stop  offset="1" style="stop-color:#FF68F0"/>
	</linearGradient>
	<path class="st1" d="M242.3,139.6L242.3,139.6l-17.2,34.2L191,190.9l0,0l-17.1,34.2l-34.2,17.1l0,0l-17.1,34.2l-23,11.5h0.7
		l22.5-11.2l0,0l17.1-34.2l34.2-17.1l0,0l17.1-34.2l34.2-17.1l0,0l17.1-34.2l34.2-17.1l0,0l11.3-22.5v-0.7l-11.5,23L242.3,139.6z
		 M238.1,135.3L238.1,135.3l-17.2,34.2l-34.2,17.1l0,0l-17.1,34.2L135.4,238l0,0l-17.1,34.2L86.7,288h0.7l31-15.5l0,0l17.1-34.2
		l34.2-17.1l0,0l17.1-34.2l34.2-17.1l0,0l17.1-34.2l34.2-17.1l0,0L288,87.4v-0.7l-15.8,31.5L238.1,135.3z M255.1,49.8L238,84
		l-34.2,17.1l0,0l-17.1,34.2l-34.2,17.1l0,0l-17.1,34.2l-34.2,17.1l0,0L84,238l-34.2,17.1l0,0L33.3,288h0.3L50,255.3l34.2-17.1l0,0
		l17.1-34.2l34.2-17.1l0,0l17.1-34.2l34.2-17.1l0,0l17.1-34.2l34.2-17.1l0,0L255.3,50L288,33.7v-0.3L255.1,49.8L255.1,49.8z
		 M259.4,54l-17.1,34.2l-34.2,17.1l0,0l-17.1,34.2l-34.2,17.1l0,0l-17.1,34.2L105.4,208l0,0l-17.1,34.2l-34.2,17.1l0,0L39.7,288h0.3
		l14.2-28.4l34.2-17.1l0,0l17.1-34.2l34.2-17.1l0,0l17.1-34.2l34.2-17.1l0,0l17.1-34.2l34.2-17.1l0,0l17.1-34.2L288,40.1v-0.3
		L259.4,54L259.4,54z M280.8,178.1l-17.1,34.2l-34.2,17.1l0,0l-17.1,34.2l-34.2,17.1l0,0l-3.6,7.2h0.3l3.5-7l34.2-17.1l0,0
		l17.1-34.2l34.2-17.1l0,0l17.1-34.2l7-3.5v-0.3L280.8,178.1L280.8,178.1z M285.1,182.4L268,216.6l-34.2,17.1l0,0L216.6,268
		L182.4,285l0,0l-1.5,2.9h0.3l1.4-2.7l34.2-17.1l0,0L234,234l34.2-17.1l0,0l17.1-34.2l2.7-1.4v-0.3L285.1,182.4L285.1,182.4z
		 M250.9,148.1L250.9,148.1l-17.2,34.2l-34.2,17.1l0,0l-17.1,34.2l-34.2,17.1l0,0l-17.1,34.2l-5.9,2.9h0.7l5.4-2.7l0,0l17.1-34.2
		l34.2-17.1l0,0l17.1-34.2l34.2-17.1l0,0l17.1-34.2l34.2-17.1l0,0l2.7-5.4v-0.7l-2.9,5.9L250.9,148.1z M246.6,143.9L246.6,143.9
		l-17.2,34.2l-34.2,17.1l0,0l-17.1,34.2l-34.2,17.1l0,0l-17.1,34.2l-14.4,7.2h0.7l13.9-7l0,0l17.1-34.2l34.2-17.1l0,0l17.1-34.2
		l34.2-17.1l0,0l17.1-34.2L281,127l0,0l7-14v-0.7l-7.2,14.4L246.6,143.9z M276.5,71.2l-17.1,34.2l-34.2,17.1l0,0l-17.1,34.2
		l-34.2,17.1l0,0l-17.1,34.2l-34.2,17.1l0,0l-17.1,34.2l-34.2,17.1l0,0L65.4,288h0.3l5.6-11.3l34.2-17.1l0,0l17.1-34.2l34.2-17.1
		l0,0l17.1-34.2l34.2-17.1l0,0l17.1-34.2l34.2-17.1l0,0l17.1-34.2l11.3-5.6v-0.3L276.5,71.2L276.5,71.2z M285.1,79.7L268,113.9
		L233.8,131l0,0l-17.1,34.2l-34.2,17.1l0,0l-17.1,34.2l-34.2,17.1l0,0L113.9,268L79.8,285l0,0l-1.5,2.9h0.3l1.4-2.7l34.2-17.1l0,0
		l17.1-34.2l34.2-17.1l0,0l17.1-34.2l34.2-17.1l0,0l17.1-34.2l34.2-17.1l0,0l17.1-34.2l2.7-1.4v-0.3L285.1,79.7L285.1,79.7z
		 M280.8,75.4l-17.1,34.2l-34.2,17.1l0,0L212.3,161l-34.2,17.1l0,0L161,212.3l-34.2,17.1l0,0l-17.1,34.2l-34.2,17.1l0,0l-3.6,7.2
		h0.3l3.5-7l34.2-17.1l0,0l17.1-34.2l34.2-17.1l0,0l17.1-34.2l34.2-17.1l0,0l17.1-34.2l34.2-17.1l0,0L281,75.7l7-3.5v-0.3
		L280.8,75.4L280.8,75.4z M263.7,58.3l-17.1,34.2l-34.2,17.1l0,0l-17.1,34.2L161,161l0,0l-17.1,34.2l-34.2,17.1l0,0l-17.1,34.2
		l-34.2,17.1l0,0L46.2,288h0.3l12-24.1l34.2-17.1l0,0l17.1-34.2l34.2-17.1l0,0l17.1-34.2l34.2-17.1l0,0l17.1-34.2l34.2-17.1l0,0
		l17.1-34.2l24.1-12v-0.3L263.7,58.3L263.7,58.3z M250.9,45.5L250.9,45.5l-17.2,34.2l-34.2,17.1l0,0l-17.1,34.2l-34.2,17.1l0,0
		l-17.1,34.2l-34.2,17.1l0,0l-17.1,34.2l-34.2,17.1l0,0l-17.1,34.2l-5.9,2.9h0.7l5.4-2.7l0,0l17.1-34.2L79.9,234l0,0l17.1-34.2
		l34.2-17.1l0,0l17.1-34.2l34.2-17.1l0,0l17.1-34.2L233.9,80l0,0l17.1-34.2l34.2-17.1l0,0l2.7-5.4v-0.7l-2.9,5.9L250.9,45.5z
		 M268,62.6l-17.1,34.2l-34.2,17.1l0,0l-17.1,34.2l-34.2,17.1l0,0l-17.1,34.2L114,216.6l0,0l-17.1,34.2l-34.2,17.1l0,0l-10,20h0.3
		l9.9-19.8L97,251.1l0,0l17.1-34.2l34.2-17.1l0,0l17.1-34.2l34.2-17.1l0,0l17.1-34.2L251,97.1l0,0l17.1-34.2l19.8-9.9v-0.3L268,62.6
		L268,62.6z M276.5,173.8l-17.1,34.2l-34.2,17.1l0,0l-17.1,34.2l-34.2,17.1l0,0l-5.7,11.5h0.3l5.6-11.3l34.2-17.1l0,0l17.1-34.2
		l34.2-17.1l0,0l17.1-34.2l11.3-5.6v-0.3L276.5,173.8L276.5,173.8z M280.8,24.1l-34.2,17.1l0,0l-17.1,34.2l-34.2,17.1l0,0
		l-17.1,34.2l-34.2,17.1l0,0l-17.1,34.2l-34.2,17.1l0,0l-17.1,34.2l-34.2,17.1l0,0l-17.1,34.2L9.7,288h0.7l13.9-7l0,0l17.1-34.2
		l34.2-17.1l0,0l17.1-34.2l34.2-17.1l0,0l17.1-34.2l34.2-17.1l0,0l17.1-34.2l34.2-17.1l0,0l17.1-34.2L281,24.3l0,0l7-14V9.7
		L280.8,24.1z M272.2,66.9l-17.1,34.2l-34.2,17.1l0,0l-17.1,34.2l-34.2,17.1l0,0l-17.1,34.2l-34.2,17.1l0,0l-17.1,34.2l-34.2,17.1
		l0,0L59,288h0.3l7.8-15.5l34.2-17.1l0,0l17.1-34.2l34.2-17.1l0,0l17.1-34.2l34.2-17.1l0,0l17.1-34.2l34.2-17.1l0,0l17.1-34.2
		l15.5-7.8V59L272.2,66.9L272.2,66.9z M263.7,263.7L251.5,288h0.3l12-24.1l24.1-12v-0.3L263.7,263.7L263.7,263.7z M268,268l-10,20
		h0.3l9.9-19.8l19.8-9.9v-0.3L268,268L268,268z M255.1,255.1L238.7,288h0.3l16.3-32.7L288,239v-0.3L255.1,255.1L255.1,255.1z
		 M272.2,272.2l-7.9,15.8h0.3l7.8-15.5l15.5-7.8v-0.3L272.2,272.2L272.2,272.2z M250.9,250.8L250.9,250.8l-17.2,34.2l-5.9,2.9h0.7
		l5.4-2.7l0,0l17.1-34.2l34.2-17.1l0,0l2.7-5.4v-0.7l-2.9,5.9L250.9,250.8z M285.1,285.1l-1.5,2.9h0.3l1.4-2.7l2.7-1.4v-0.3
		L285.1,285.1L285.1,285.1z M280.8,280.8l-3.6,7.2h0.3l3.5-7l7-3.5v-0.3L280.8,280.8L280.8,280.8z M272.2,169.6l-17.1,34.2
		l-34.2,17.1l0,0l-17.1,34.2l-34.2,17.1l0,0l-7.9,15.8h0.3l7.8-15.5l34.2-17.1l0,0l17.1-34.2l34.2-17.1l0,0l17.1-34.2L288,162v-0.3
		L272.2,169.6L272.2,169.6z M276.5,276.5l-5.7,11.5h0.3l5.6-11.3l11.3-5.6v-0.3L276.5,276.5L276.5,276.5z M246.6,246.5L246.6,246.5
		l-17.2,34.2L215,288h0.7l13.9-7l0,0l17.1-34.2l34.2-17.1l0,0l7-14V215l-7.2,14.4L246.6,246.5z M259.4,156.7l-17.1,34.2L208.1,208
		l0,0l-17.1,34.2l-34.2,17.1l0,0L142.4,288h0.3l14.2-28.4l34.2-17.1l0,0l17.1-34.2l34.2-17.1l0,0l17.1-34.2l28.4-14.2v-0.3
		L259.4,156.7L259.4,156.7z M268,165.3l-17.1,34.2l-34.2,17.1l0,0l-17.1,34.2l-34.2,17.1l0,0l-10,20h0.3l9.9-19.8l34.2-17.1l0,0
		l17.1-34.2l34.2-17.1l0,0l17.1-34.2l19.8-9.9v-0.3L268,165.3L268,165.3z M263.7,161l-17.1,34.2l-34.2,17.1l0,0l-17.1,34.2
		L161,263.7l0,0L148.8,288h0.3l12-24.1l34.2-17.1l0,0l17.1-34.2l34.2-17.1l0,0l17.1-34.2l24.1-12v-0.3L263.7,161L263.7,161z
		 M255.1,152.4L238,186.7l-34.2,17.1l0,0L186.7,238l-34.2,17.1l0,0L136,288h0.3l16.3-32.7l34.2-17.1l0,0L204,204l34.2-17.1l0,0
		l17.1-34.2l32.7-16.3V136L255.1,152.4L255.1,152.4z M242.3,242.3L242.3,242.3l-17.2,34.2l-23,11.5h0.7l22.5-11.2l0,0l17.1-34.2
		l34.2-17.1l0,0l11.3-22.5v-0.7l-11.5,23L242.3,242.3z M238.1,238L238.1,238l-17.2,34.2L189.4,288h0.7l31-15.5l0,0l17.1-34.2
		l34.2-17.1l0,0L288,190v-0.7l-15.8,31.5L238.1,238z M259.4,259.4L245.1,288h0.3l14.2-28.4l28.4-14.2v-0.3L259.4,259.4L259.4,259.4z
		 M20,122.7l34.2-17.1l0,0l17.1-34.2l34.2-17.1l0,0L122.7,20L156.9,3l0,0l1.5-2.9h-0.3l-1.4,2.7l-34.2,17.1l0,0L105.4,54L71.2,71.1
		l0,0L54,105.4l-34.2,17.1l0,0L2.7,156.7L0,158.1v0.3l2.9-1.5L20,122.7z M11.5,165.5l17.1-34.2l34.2-17.1l0,0l17.1-34.2l34.2-17.1
		l0,0l17.1-34.2l34.2-17.1l0,0L171.3,0h-0.3l-5.6,11.3l-34.2,17.1l0,0l-17.1,34.2L79.8,79.7l0,0l-17.1,34.2L28.4,131l0,0l-17.1,34.2
		L0,170.9v0.3L11.5,165.5L11.5,165.5z M41.4,195.5L41.4,195.5l17.2-34.2l34.2-17.1l0,0l17.1-34.2l34.2-17.1l0,0l17.1-34.2l34.2-17.1
		l0,0l17.1-34.2L227,0h-0.7l-13.9,7l0,0l-17.1,34.2L161,58.3l0,0l-17.1,34.2l-34.2,17.1l0,0l-17.1,34.2L58.4,161l0,0l-17.1,34.2
		L7,212.3l0,0l-7,14v0.7l7.2-14.4L41.4,195.5z M37.1,191.2L37.1,191.2L54.3,157l34.2-17.1l0,0l17.1-34.2l34.2-17.1l0,0l17.1-34.2
		l34.2-17.1l0,0l17.1-34.2l5.9-2.9h-0.7l-5.4,2.7l0,0l-17.1,34.2L156.8,54l0,0l-17.1,34.2l-34.2,17.1l0,0l-17.1,34.2l-34.2,17.1l0,0
		l-17.1,34.2L2.8,208l0,0L0,213.5v0.7l2.9-5.9L37.1,191.2z M8.8,0H8.1L2.8,2.7l0,0L0,8.1v0.7l2.9-5.9L8.8,0z M24.3,178.3l17.1-34.2
		L75.6,127l0,0l17.1-34.2L127,75.7l0,0l17.1-34.2l34.2-17.1l0,0L190.5,0h-0.3l-12,24.1l-34.2,17.1l0,0l-17.1,34.2L92.6,92.5l0,0
		l-17.1,34.2l-34.2,17.1l0,0l-17.1,34.2L0,190.2v0.3L24.3,178.3L24.3,178.3z M20,174.1l17.1-34.2l34.2-17.1l0,0l17.1-34.2l34.2-17.1
		l0,0l17.1-34.2L174,20.1l0,0l10-20h-0.3l-9.9,19.8l-34.2,17.1l0,0l-17.1,34.2L88.3,88.2l0,0l-17.1,34.2L37,139.6l0,0l-17.1,34.2
		L0,183.7v0.3L20,174.1L20,174.1z M15.8,169.8l17.1-34.2l34.2-17.1l0,0l17.1-34.2l34.2-17.1l0,0l17.1-34.2l34.2-17.1l0,0L177.7,0
		h-0.3l-7.8,15.5l-34.2,17.1l0,0l-17.1,34.2L84,84l0,0l-17.1,34.2l-34.2,17.1l0,0l-17.1,34.2L0,177.3v0.3L15.8,169.8L15.8,169.8z
		 M11.5,268.2L28.6,234l34.2-17.1l0,0l17.1-34.2l34.2-17.1l0,0l17.1-34.2l34.2-17.1l0,0l17.1-34.2l34.2-17.1l0,0L234,28.6l34.2-17.1
		l0,0L273.9,0h-0.3L268,11.3l-34.2,17.1l0,0l-17.1,34.2l-34.2,17.1l0,0l-17.1,34.2L131.1,131l0,0l-17.1,34.2l-34.2,17.1l0,0
		l-17.1,34.2l-34.2,17.1l0,0L11.3,268L0,273.6v0.3L11.5,268.2L11.5,268.2z M7.2,263.9l17.1-34.2l34.2-17.1l0,0l17.1-34.2l34.2-17.1
		l0,0L127,127l34.2-17.1l0,0l17.1-34.2l34.2-17.1l0,0l17.1-34.2l34.2-17.1l0,0l3.6-7.2h-0.3l-3.5,7l-34.2,17.1l0,0l-17.1,34.2
		l-34.2,17.1l0,0L161,109.7l-34.2,17.1l0,0L109.7,161l-34.2,17.1l0,0l-17.1,34.2l-34.2,17.1l0,0L7,263.7l-7,3.5v0.3L7.2,263.9
		L7.2,263.9z M20,225.4l34.2-17.1l0,0l17.1-34.2l34.2-17.1l0,0l17.1-34.2l34.2-17.1l0,0l17.1-34.2l34.2-17.1l0,0L225.4,20L259.6,3
		l0,0l1.5-2.9h-0.3l-1.4,2.7l-34.2,17.1l0,0L208.1,54l-34.2,17.1l0,0l-17.1,34.2l-34.2,17.1l0,0l-17.1,34.2l-34.2,17.1l0,0L54,208.1
		l-34.2,17.1l0,0L2.7,259.4L0,260.7v0.3l2.9-1.5L20,225.4z M45.7,199.8L45.7,199.8l17.2-34.2L97,148.4l0,0l17.1-34.2l34.2-17.1l0,0
		l17.1-34.2l34.2-17.1l0,0l17.1-34.2l23-11.5h-0.7l-22.5,11.2l0,0l-17.1,34.2l-34.2,17.1l0,0l-17.1,34.2L114,113.9l0,0l-17.1,34.2
		l-34.2,17.1l0,0l-17.1,34.2l-34.2,17.1l0,0L0,239.1v0.7l11.5-23L45.7,199.8z M20,276.7l17.1-34.2l34.2-17.1l0,0l17.1-34.2
		l34.2-17.1l0,0l17.1-34.2l34.2-17.1l0,0l17.1-34.2l34.2-17.1l0,0l17.1-34.2l34.2-17.1l0,0l10-20h-0.3l-9.9,19.8l-34.2,17.1l0,0
		l-17.1,34.2L191,88.2l0,0l-17.1,34.2l-34.2,17.1l0,0l-17.1,34.2l-34.2,17.1l0,0l-17.1,34.2L37,242.3l0,0l-17.1,34.2L0,286.4v0.3
		L20,276.7L20,276.7z M49.9,204L49.9,204l17.2-34.2l34.2-17.1l0,0l17.1-34.2l34.2-17.1l0,0l17.1-34.2L204,50l0,0l17.1-34.2L252.7,0
		H252l-31,15.5l0,0l-17.1,34.2l-34.2,17.1l0,0l-17.1,34.2l-34.2,17.1l0,0l-17.1,34.2l-34.2,17.1l0,0l-17.1,34.2l-34.2,17.1l0,0
		L0,252v0.7l15.8-31.5L49.9,204z M28.6,182.6l17.1-34.2l34.2-17.1l0,0l17.1-34.2L131.2,80l0,0l17.1-34.2l34.2-17.1l0,0L196.9,0h-0.3
		l-14.2,28.4l-34.2,17.1l0,0l-17.1,34.2L96.9,96.8l0,0l-17.1,34.2l-34.2,17.1l0,0l-17.1,34.2L0,196.6v0.3L28.6,182.6L28.6,182.6z
		 M15.8,272.5l17.1-34.2l34.2-17.1l0,0l17.1-34.2l34.2-17.1l0,0l17.1-34.2l34.2-17.1l0,0l17.1-34.2l34.2-17.1l0,0l17.1-34.2
		l34.2-17.1l0,0L280.3,0H280l-7.8,15.5l-34.2,17.1l0,0l-17.1,34.2L186.7,84l0,0l-17.1,34.2l-34.2,17.1l0,0l-17.1,34.2L84,186.6l0,0
		l-17.1,34.2L32.7,238l0,0l-17.1,34.2L0,280v0.3L15.8,272.5L15.8,272.5z M7.2,161.2L24.3,127l34.2-17.1l0,0l17.1-34.2l34.2-17.1l0,0
		L127,24.3l34.2-17.1l0,0l3.6-7.2h-0.3L161,7l-34.2,17.1l0,0l-17.1,34.2L75.5,75.4l0,0l-17.1,34.2l-34.2,17.1l0,0L7,161l-7,3.5v0.3
		L7.2,161.2L7.2,161.2z M15.8,67.1l17.1-34.2l34.2-17.1l0,0L75,0h-0.3l-7.8,15.5L32.7,32.6l0,0L15.5,66.9L0,74.6V75L15.8,67.1
		L15.8,67.1z M24.3,75.7l17.1-34.2l34.2-17.1l0,0L87.8,0h-0.3l-12,24.1L41.3,41.2l0,0L24.1,75.4L0,87.5v0.3L24.3,75.7L24.3,75.7z
		 M28.6,79.9l17.1-34.2l34.2-17.1l0,0L94.2,0h-0.3L79.7,28.4L45.5,45.5l0,0L28.4,79.7L0,93.9v0.3L28.6,79.9L28.6,79.9z M20,71.4
		l17.1-34.2l34.2-17.1l0,0l10-20h-0.3l-9.9,19.8L37,36.9l0,0L19.8,71.2L0,81.1v0.3L20,71.4L20,71.4z M32.9,84.2L50,50l34.2-17.1l0,0
		L100.7,0h-0.3L84,32.7L49.8,49.7l0,0L32.7,84L0,100.3v0.3L32.9,84.2L32.9,84.2z M21.6,0h-0.7L7,7l0,0l-7,14v0.7L7.2,7.2L21.6,0z
		 M47.3,0h-0.7l-31,15.5l0,0L0,46.6v0.7l15.8-31.5L47.3,0z M34.5,0h-0.7L11.3,11.2l0,0L0,33.8v0.7l11.5-23L34.5,0z M37.1,88.5
		L37.1,88.5l17.2-34.2l34.2-17.1l0,0l17.1-34.2l5.9-2.9h-0.7l-5.4,2.7l0,0L88.3,36.9L54.1,54l0,0L36.9,88.3L2.8,105.4l0,0L0,110.8
		v0.7l2.9-5.9L37.1,88.5z M11.5,62.8l17.1-34.2l34.2-17.1l0,0L68.6,0h-0.3l-5.6,11.3L28.4,28.4l0,0L11.3,62.6L0,68.2v0.3L11.5,62.8
		L11.5,62.8z M49.9,101.4L49.9,101.4l17.2-34.2L101.3,50l0,0l17.1-34.2L150,0h-0.7l-31,15.5l0,0l-17.1,34.2L66.9,66.9l0,0
		l-17.1,34.2l-34.2,17.1l0,0L0,149.3v0.7l15.8-31.5L49.9,101.4z M41.4,92.8L41.4,92.8l17.2-34.2l34.2-17.1l0,0l17.1-34.2L124.3,0
		h-0.7l-13.9,7l0,0L92.5,41.2L58.4,58.3l0,0L41.2,92.5L7,109.6l0,0l-7,14v0.7l7.2-14.4L41.4,92.8z M45.7,97.1L45.7,97.1l17.2-34.2
		L97,45.7l0,0l17.1-34.2l23-11.5h-0.7L114,11.2l0,0L96.8,45.5L62.6,62.6l0,0L45.5,96.8l-34.2,17.1l0,0L0,136.5v0.7l11.5-23
		L45.7,97.1z M7.2,58.6l17.1-34.2L58.5,7.2l0,0L62.2,0h-0.3l-3.5,7L24.1,24.1l0,0L7,58.3l-7,3.5v0.3L7.2,58.6L7.2,58.6z M20,20
		L54.2,3l0,0L55.7,0h-0.3L54,2.7L19.9,19.8l0,0L2.7,54L0,55.4v0.3l2.9-1.5L20,20z M32.9,186.9L50,152.7l34.2-17.1l0,0l17.1-34.2
		l34.2-17.1l0,0L152.7,50l34.2-17.1l0,0L203.3,0H203l-16.3,32.7l-34.2,17.1l0,0L135.3,84l-34.2,17.1l0,0L84,135.3l-34.2,17.1l0,0
		l-17.1,34.2L0,203v0.3L32.9,186.9L32.9,186.9z"/>
</g>
</svg>
