<?xml version="1.0" encoding="utf-8"?>
<!-- Generator: Adobe Illustrator 27.4.1, SVG Export Plug-In . SVG Version: 6.00 Build 0)  -->
<svg version="1.1" id="Layer_1" xmlns="http://www.w3.org/2000/svg" xmlns:xlink="http://www.w3.org/1999/xlink" x="0px" y="0px"
	 viewBox="0 0 2599 1733" style="enable-background:new 0 0 2599 1733;" xml:space="preserve">
<style type="text/css">
	.st0{clip-path:url(#SVGID_00000163049252994628646260000017471294593018236297_);}
	.st1{fill:#E6E6E6;}
</style>
<g>
	<g>
		<defs>
			<rect id="SVGID_1_" x="0" width="2598.1" height="1732.1"/>
		</defs>
		<use xlink:href="#SVGID_1_"  style="overflow:visible;fill:#FFFFFF;"/>
		<clipPath id="SVGID_00000173156781376956864670000011157004965582315154_">
			<use xlink:href="#SVGID_1_"  style="overflow:visible;"/>
		</clipPath>
		<g style="clip-path:url(#SVGID_00000173156781376956864670000011157004965582315154_);">
			<path class="st1" d="M98.8-7.4H59.6C88.1,37,111.4,93.3,117,116.8c17.2,72.3-56.1,94.7-122.2,113.8v33.6c2.7-0.8,26.9-6,37.1-8.6
				C220.9,206.3,135.2,66.6,98.8-7.4z"/>
			<path class="st1" d="M240.7,286.7c6.5-13.3,5.8-9.3,30.3-113.7c7.3-30.9-8.9-112.9,0.2-180.5h-51c28.3,115.8,42,153.3,32.5,204.1
				C232.4,305.4,118.2,313.8,12,339.5c-5.7,1.4-11.4,2.4-17.2,2.4v39.2C84.6,317.6,200.1,369.5,240.7,286.7z"/>
			<path class="st1" d="M208.5-7.4H185c6.1,9.2,5.1,20.2,6.9,30.4c15.7,85,43.2,225.2-41.2,242.2C64.9,282.4,71,298.9,39,290.7
				c1.2-2.5,1.8-5.3,2.8-5.4c35.2-5.8,66.5-23.1,99.6-34.8c34-12,48.9-30.4,55.1-55.9c10-41.3-8.1-109.7-26.1-146.8
				C161.8,30,158.3,12,161.5-7.4h-47c22.1,39.3,50.8,96.3,51.8,140.5c2,87.8-91.9,136.9-171.3,144.2v51.2
				c18.2-4.5,88-10.4,162.5-41.5C307,224.6,212,75.2,208.5-7.4z"/>
			<path class="st1" d="M31.4,1632.5c-20.5-20.8-19.3-17.5-36.5-41.9v16.2c4.6,3.8,8.8,7.7,10.8,14.1c-4,1.7-7.7,2.1-10.8,1v8
				C15.3,1629.4,25.7,1631.7,31.4,1632.5z"/>
			<path class="st1" d="M102.7,143.8c11.7-35.2,0.2-48.9-35.9-109.1C56.3,17.1,43,2,24.3-7.4h-7.8L-5.1,5.2v166.5
				c10.1,0.8,13.5-1.4,17.7-10.1c17.2-35.5-2.3-44.9,2.7-54.9c47,20.9,14.5,78.1-20.4,80.8v29.3C44.7,199,87.7,188.9,102.7,143.8z"
				/>
			<path class="st1" d="M216.4,885.5c125.4-15.8,213.2,39.6,299.2-42.1C591,771.9,596.5,666.6,708.8,686c17.4,3,46.5,10.9,67.4,12.1
				c57.4,3.2,96.8-55.5,72-114.8c-26.6-63.6-69.3-86.4-295-256.8C401.1,211.7,370,346.3,228.5,406.9c-24,10.3-44.3,20.4-55.3,35.8
				c-21,29.5,4.3,57.5,41.9,60.5c46.1,3.7,104.1-41.7,128-39.6c-6.2,6.2,0.6,1.3-84.3,54.7c-33.2,20.9-80.7,37.4-119,28.9
				C79.2,533.8,107,423.5,168,401.6c47.6-17.1,83.1-18.1,134.9-74.5c99-108.1,99.6-217.7,117.3-334.5h-47
				c-15.7,169.9-29.1,363.5-183.3,386.4C69.7,396.8,50.4,397.2,38.6,487.2c-7,52.9-8.8,127.1,7.9,175.4
				c26.2,76.3,176.9-30.2,212.1-47.4c-19.5,29.7-197,146.7-226.2,49.5c-17.8-59.2-14.5-138.5-4.5-201
				c24.8-155,204.6-28.6,277.6-188.3c36.3-79.4,46.6-208.4,52-282.9h-70.6c10.4,122.7,16.7,143-1.8,186.6c-22.5,53-14.7,45-21,93.2
				c-14,106.1-122.5,45.9-269.2,124.1v308.9c13.5,18.1,22.5,45.2,26.8,81.1c10.1,4.8,49.9-61.7,152.1-87
				c62.8-15.6,109.1-26.9,145.1-92c32.2-58.4,25-72.2,34.9-82.4c2.5,21.1-14.2,72-27.5,96.5c-35.1,64.7-80.3,74.4-145.7,90.4
				C76.1,737.8,28.2,816.4-5.1,827.2v58.7c28.6-35.9,39.3-52.6,73-82.1c93.3-81.5,183.7,24.1,264.2-71.3
				c45.7-54.2,42.7-143.5,100-191.1c38.1-31.7,64.1-20.9,119.7-13.3c-1.7,6.5-3.1,2.4-46.4,8.3c-127.4,17.4-84.1,159.5-163.1,232
				c-105.7,97-160.3-68.1-298.9,80.2c-0.8,0.9-48,59.1-48.4,59.7v146.1c42.2-69.4,52.9-95.5,81-133.8
				c76.6-104.2,225.3-68.7,309.3-88.5c97-22.8,127.3-96.1,194.3-155.3c52.1-46,86.7-11.5,153.7-57.1c15.2-10.3,29.4-23.2,20.4-39.2
				c-40.6-72-174-158.6-255.7-186.9c-113.3-39.2-177.5,75.3-252.4,93.4c-37.6,9.1-86.4-22.5-42.9-50.7c23.2-15.1,61.6-20.2,131.9-80
				c74.9-63.7,123.9-80.7,217-8.7c165,127.6,192.1,131.7,245.1,186.2c76.9,79,47.5,139.5-0.5,148.9
				c-56.1,10.9-119.8-35.7-183.4,15.1c-64.1,51.1-70.8,140.9-158,165.1c-94.5,26.3-193.9-8.7-283.8,21.2
				C44,926.2,67.6,1084.6-5.1,1151.8v15.4C89.2,1084.7,48.9,906.6,216.4,885.5z M66.7,631.5c-2.6-18-8.6-100.6,0.2-108.7
				c8,84.6,8.3,112.7,38.7,112.1c87.6-1.7,127.3-54.1,137.8-55.7C213.7,642.7,76.9,703.4,66.7,631.5z M15.3,964
				c-2.2-2-0.4-2.3,0.8-2.8L15.3,964z M704.5,576.3c4.5,14-38.7-3.2-102.2,34.9C429.6,714.8,409.6,835.8,290.4,829.3
				c-40.7-2.2-79.1-10.5-134.7-1.1C78,841.4,23.7,956.1,16.6,960.2c-4-18,34.2-73.7,79.4-117.9c72.4-70.9,185.8,5.1,238.8-36.6
				C425,734.8,536.5,560.1,704.5,576.3z M446.7,434.6c42.3-19.6,89.9,9.3,228.6,98.5c-8.6,4-172.9-61.4-173.5-61.7
				c-20.8-8.2-46.5-20.8-81.6,9.6c-21.7,18.8-32.3,49.1-43.1,78.2c-78.2,211.2-99.3,191-209.6,184.5l0.4-3.5
				c87.6-10.5,126.3-0.2,162.4-89.8C369.5,552.8,381.4,464.8,446.7,434.6z"/>
			<path class="st1" d="M2078.4,1643.3c-22.8-40.3-6.6-72.4-54.7-163c-19.4-36.6-39.7-68.2-92.9-79.7
				c-279.1-60.7-231.2-80-391.7-165.1c-48.5-25.7-117.2-37.8-169-21.9c-65.9,20.2-75.7,101.7-41,129.9c61.5,49.9,158,62,212.2,143
				c65.9,98.6,81.4,257,74.3,267h54.6c0.2-0.1,0.4-0.3,0.6-0.4c-4.4-11.2-13.2-19-16.8-30.9c6.9,0,7.6,3.2,25,15.1
				c16.9,11.6,18.9,11.4,23.3,16.2h256.9c-23.2-42.5,23.1-131.4,20-153.6c-1.6-11.5-17.8-23.1-33.9,2.5
				c-47.6,75.8-52.5,127.5-193.6,126.3c-20.3-0.2-32.5-10.1-65.9-32.3c-101.5-67.5-80.7-220.2-210.7-296.7
				c-34.7-20.4-43.9-14.8-70.4-29.1c-11.6-6.3-49.7-27.4-69.4-44.1c-31.4-26.5-5.8-80.4,34.2-97.2c91.4-38.4,195.5,32.6,273.7,84
				c198.1,130.2,342.1,38.9,393.4,220.1c-15.9-15.3-1.9-0.2-26.1-31.5c-25.3-32.7-69.9-38.7-101.1-30.3
				c-89.9,24.4-129.8,43.9-204.8-25.5c-46.3-42.9-90.6-94.5-193.8-144.8c-28.8-14-57.3-25.6-87.4-25.2c-14.2,0.2-20.4,17.6-9,27
				c72.3,59.6,111.7,52.4,189.3,195.9c46.1,85.3,21.5,145.9,110.1,203.7c20.1,13.1,42.7,15.9,65.7,15.6
				c150.7-1.6,136.2-170.1,196-140.9c44.6,21.8-24.3,91-6.9,167.1c0.5,2.4,0.9,6.8-0.3,8.8h58.7c-0.5-0.9-1-2-1.6-3.4
				c-28.6-74.4-15.1-93.7-9.4-154.2c4.5-47.6-43-94.4-84.5-61.1c-31,24.9-67.7,99.3-109.5,130.3c-39.5,29.3-88.2,10.9-115.5-24.1
				c-66.8-85.6-52.3-132.3-125-230.4c-6.3-8.5-14.1-16.8-16-28.1c7.3,2,11,8.3,15.2,13.6c72.6,90.4,82.5,186.7,154.6,246.3
				c24.1,19.9,42.6,30.3,67.1,18.3c53.1-26,77.9-111.8,112.8-138.4c29.3-22.3,76.4-14.2,94.3,9.5c27.7,36.7,21.9,62.7,13.4,108.7
				c-8.4,44.8,2.4,69.8,15.4,113h100.9c-1.5-2.4-2.8-4.7-3.8-7.1C2118.4,1705.2,2100.5,1682.4,2078.4,1643.3z M1621,1411.8l1.8-1.5
				l0.6,2.7L1621,1411.8z M1952,1492.3c-87.7,7-119,86.5-157.2,111c-51.7,33.2-84.2-41.7-163.9-172.3c-3.2-5.3-8.1-10.2-7.1-17.3
				c6.1,2,8.3,7.8,11.4,12.4c102.7,151.5,117.2,189.5,148.4,164.3c44.9-36.2,99.7-119.5,175.9-100
				C1957,1491.1,1954.5,1492.1,1952,1492.3z"/>
			<path class="st1" d="M1062.8,1330.2c31,123.5,223.7,271.6,224.3,272.2c39.8,38.1,51.9,98.5,30.1,151h44.9
				c1.4-9.6,16.1-16.4,29.8-48.9C1438.2,1594.2,1173.7,1551.4,1062.8,1330.2z"/>
			<path class="st1" d="M831.5,1263.2c-48.8-19.2-79.5-45.1-122.2-70.2c-42.9-25.3-94.9-25.1-114.8-15.5
				c-24.7,12,14.2,41.8,44.2,41.2c10.1-0.2,44.2-9.8,79.7,11.8c107.7,65.3,155.3,122.8,193,185.8c15.7,26.2,14,37,26.9,149.9
				c8.5,74.5,15,119.3-0.5,187.4h42.9C1021.8,1617.2,959.6,1313.6,831.5,1263.2z"/>
			<path class="st1" d="M725.5,1323.6c-70.4-9.5-61.5,80.9-80,152.7c-23.4,90.7-159.7,73-213.5,91.5
				c-85.4,29.3-74.3,102.5-69.3,185.6h12.3c-1.2-1-1.5-2.3-1.7-3.7c-11.2-80.2-11.8-135,42.7-167c37.4-21.9,72.6-19.2,142.9-28.7
				c114.5-15.4,95.6-88.4,122.5-187.2c12.4-45.4,56-33.8,89.1,1.2c80.8,85.5,100,185.6,86.9,300.8c-4.7,40.9-8.1,59.6-25.2,84.6
				h20.4c-0.1-2,43.4-103,21.9-219.5C861.4,1462.9,792.3,1332.7,725.5,1323.6z"/>
			<path class="st1" d="M969.4,1418.1c7.1,43.1,67.3,208.3,28.4,331c-0.6,1.8-1.1,3.2-1.8,4.3h63.3c12.2-11.7,52-100.3-25.4-231.4
				C1033,1520.4,975.2,1422.5,969.4,1418.1z"/>
			<path class="st1" d="M2561.7,985.1c-10.3,50.7-7.7,81.3-45.2,125.4c-69.7,81.9-243.7,166.4-314.6,225.9
				c-31.1,26.1-67.3,26.2-72,27.3c-33.3,8.1-70.8-8.6-98.6-28.6c-39.9-28.6-75.6-32.7-142-46.8c-39.5-8.4-61.4-26.5-91.8-50.5
				c-179.6-141.5-140.3-108.5-199.5-198.9c-108.7-166.2-395.1-73.8-447.8,192.4c-41.8,211.3,207.7,231.1,289.9,325.1
				c44.2,50.6,73.5,130.2,25.3,180.7l-15.5,16.2h42.1c29-33.8,41.5-29.9,35.8-87.5c-6.9-70.7-44.7-90.7-45-110.4
				c9.8,5.1,112.1,132.7,23.3,197.9h79.7c-3.3-6-2-11.3-1.3-16.5c5.1,4.2,5.5,9.4,4.8,16.5h18.3c-6.3-5.3-17.1-100.1-70.2-188
				c-96.5-159.6-256.4-100.6-318.9-257.8c-45.2-113.8,150.4-284.5,265.4-243.6c61.5,21.9,116.2,67.2,161.3,115.2
				c106.1,113.1,81.3,111.2,270,154.8c120.6,27.9,114.8,49.1,179.6,146.4c18.3,27.4,28,40.9,51.4,39c58.4-4.8,51.2-65.3,100.8-161.6
				c8.6-16.8,36.2-54.5,50.5-54.1c-46.8,80.1-26.4-7.4-87.2,313.8c-14.7,77.8-11.6,92.5-2.9,135.9h12c-5.8-25.5-12.1-47.9-6.3-83.3
				c46.1-280.4,54.8-311.5,102.5-354.6c134.8-122,181.1-50.2,298-241.1c1.6-2.7,3.9-5,5.9-7.4V901.7
				C2593.9,923.8,2571,939.8,2561.7,985.1z"/>
			<path class="st1" d="M2584.2-7.4c-10.1,60.3-17.7,112.6-37.9,170.3c-61.3,174.8-227.4,134.3-296.2,200.2
				c-69.6,66.6,47,148.4,58.5,255c2.5,23-0.7,61.9-14,80.7c2.7-24.1,6.3-42-6.5-71.8c-61-142.8-92.8-157.8-106.2-209.6
				c-10.6-41,11.6-81.4,60-95c156.5-44.1,293.4,1.6,326.7-329.8h-35.3c-10.1,314.2-185.8,236.3-304.9,308.2
				c-68.4,41.3-82.9,132.8-40.9,202.9c39.9,66.5,80.4,106.1,68.3,204.7c-1.8,14.9-8.5,56.2-18.4,67.4c-2.4-34.9,45.5-88-35.9-186.5
				c-25.2-30.5-44.7-50-59.1-82.8c-29.9-68.1-16.6-147,47.1-198.5c61.5-49.7,141.7-53.7,211.1-91.4c75.4-41,103.1-133.5,90.5-214.2
				c-0.5-3.2-0.6-6.5-0.9-9.8h-19.6c9.5,315.3-304.6,189.3-366.1,340c-9.3,22.8-4.6,13.7-11,23.2c-6.5-22.4,8.8-91.6,31.7-119
				c-3.1,17.3-9.9,30-6.3,44.4c2.1-0.8,4.2-1.1,5.6-2.2c97.2-85.3,319.6-8.7,310.9-286.4h-54.9c0.6,54.8-2.3,104.1-52.5,142.6
				c-25.3,19.4-117.2,70.8-139.7,67.5c49.7-43.1,169.1-60,175.9-167.2c0.9-14.4,1.1-28.8-3.3-42.8h-51c2.9,22.3,2.8,41.2-7.5,59.7
				c-8.4,0.4-6-13.6-0.3-59.7h-11.8c18.7,97.6-186.4,145.1-214.6,299.9c-37.6,206.7,122.3,266.9,138.3,398.1
				c2.8,22.7-5.3,72.2-10.3,93.3c-13.2,55-40.5,79.3-76.3,88.3c-75,18.9-101.6,3.1-404.7-179.2c-163.1-98.1-89.8-141.6-171.9-259.4
				c-38.1-54.5-70.8-102.9-58.2-189.4c12.1-82.8,57-172.2,10.7-228c-8.6-10.3-22.6,2.8-18.5,21.7c6.2,28.6,19.5,54.2,7.7,102.4
				c-19.7,79.9-32.2,115.4-38.4,166.4c-10.9,89.2,37.6,97.1,69.7,191.4c12.5,36.8,9.6,35.5,9.6,44.7c-21.7-29.6-50-83-119-127
				c-42.3-27-61.3-86.9-19.3-161.4c25.1-44.5,66.6-83.8,23.2-210l-17.9-52h-11.8c40.9,121.7,57.8,132.7,5.6,250
				c-35.8,80.5-62.5,112.1,9.3,173.8c65.1,56,74.5,53.8,107.7,129c0.9,2.1,0.6,4.7,1.2,9.9c-25.8-20.6-59.4-58.5-135.4-93.4
				c-77.8-35.7-106.5-72.4-77.1-162.9c28.8-88.6,94.7-148,74.2-237c-9.4-41.1-34.2-53.5-56.2-69.5h-82.3
				c-12.8,8.6-155.4,67.9-218.4,84.2C857.5,118.1,756.3,27.1,743.7,65c4.8,25.7,99,31.7,150.7,125c36.2,65.2,30.6,91.1,112.8,143.3
				c4.3,2.7,10.3,5.5,14.6,3.1c28.5-16.3-74.6-136.3-75.7-146.4c33.4,21.9,89.4,97.2,111.9,187.7c-1.6,0.7-2.3,1.2-2.7,1.1
				c-25.7-9.9-53.4-12-79.6-19.7c-106.5-31-64.3-157.2-202.4-212.7C704.3,118.8,618,89.2,638.4,13.4c1.9-6.9,3.5-13.9,5.3-20.8
				h-11.8c-7.1,29.6-17.4,62.7,16.8,100.9c54.4,60.9,153.6,41.9,200.5,140.7c23,48.3,26.8,85.5,82,120.9
				c28.8,18.5,56.1,28.7,93.1,45.9c-9.3,7.1-79.3-13.5-90.3-17.3c-130.2-44.6-119.3-151.8-228.2-212.8
				c-58.2-32.6-135.5-65.3-124.8-178.3h-23.5c0,34.7-2.6,59.4,18.2,95c97.8,168.1,328.5,328.5,406.8,403.3
				c55,52.5,61.9,113.7,57.7,190.5c-3.7,67-50,129.1-133,134.4c-67.3,4.3-108.7-2.3-156.9,36.5c-34.5,27.8-29,39.5-27.8,98
				c0.8,41-31.5,88.3-98.1,101.1c-75.8,14.6-152.1-22.1-158.6-38.4c13.2-8.7,53.6,32.9,138.6,26.1c29.6-2.4,61.7-14.6,82.2-36.9
				c15.7-17,24.5-33.9,19.4-85c-6.8-69,67.4-110,129.2-114.2c12.7-0.9,54.1-0.3,84.1-4.7c135.2-19.9,132.9-215.9,58.4-290.5
				c-55.7-55.8-105.6-78.5-320-283.7c-85.1-81.5-140.5-69.5-192.2-148.8c-20-30.6,1.6-49.5,17.5-82.6h-11.8
				c-5.6,14.4-3.3,9.7-9.6,17.2c-4.3-6.1-0.5-12.1-2.2-17.2h-23.5c-15.4,129.9-15,116.3-37.1,207.9c24.5-3.1,120.7-42.9,197.8,18
				c77,60.8,181.6,202.4,270.2,264.9c36.9,26,68.9,49.9,88.9,82c64.9,104.3-39.5,218.2-155.4,189.1c-21.7-5.4-60.8-23.9-69.3-26.9
				c-45.3-16-86.1,6.9-109.9,45.6c-49.5,80.6-71,164.5-243.1,151c-148.2-11.6-247.2,0.1-290.2,141.6
				c-19.9,65.6-34.5,154.7-92.9,198.9v15.4c146.4-133.6,52.7-295.2,235.4-339.3C349.7,911.9,474,972,557.4,892.4
				c68.4-65.2,77-214,220.3-136.5c-0.2,5.8,1.6,2.8-61.9,36.1c-72.6,38.1-43.1,64.6-82.5,158.6c-17.9,42.8-66.5,54.4-111.9,48.5
				c-78.3-10.2-101.1-39.8-219.9-27.7c-90.9,9.2-140.5,17-154.9,135.4C129.9,1245,127.9,1288-5.1,1354.1v19
				c3,0.3,70.8-31.4,122.1-83.6c78.9-80.4,36.6-256.6,121.9-273c-16.5,19.4-34.2,20.9-41.7,48.5c-27.5,102-7.1,185.7-86.9,251.5
				c-35.9,29.6,2.1,7.8,37.7-19.1c80.8-60.9,25.3-217.4,93.3-257.5c6.2,9.3-24.9,64.7-25.1,125c-0.2,50.8,4.6,90.3-43.5,137.1
				c-61.3,59.8-159,86.3-177.8,95.2v13.6l18.1-5.4c0,5.7,2.6,2.3-18.1,20.3v42.6c30.4-65.6,122.4-123.9,142.4-121
				c-46.3,27-92.8,58.2-120.1,108.5c-14.8,27.3-23.1,54.9-16.8,84.7c16.6,79.5,61.2,86.4,52.3,99.5c-4.7,7-8.9,6.6-57.7,0.9v30.1
				c17.2-1.4,52,9.4,77.3,2.1c22.9-6.6,31.4-25.1,8.2-58.2c-17.8-25.3-62.8-61.8-38.3-141.9c37.4-122.5,185.9-119.4,226.1-133.8
				c58-20.8,64.9-88.2,33.2-130.3c-49.9-66.4-82.9-95.3-44.2-159.9c-24.8,140.1,106.3,131,73.6,246.9
				c-27.8,98.6-156.1,44.7-232.3,116.5c-40.3,38-48.8,90.6-38.9,137.4c12.9,61,83.4,35,121.8,78.9c53.8,61.5,49.3,83.9,56.3,124.8
				h2.7c9.1-2.5-2.3-41.4-6.7-52.6c-13.4-34.1-30.3-59.7-48.3-89.1c21-3.5,48.9,14.9,63.1,30.8c42.6,47.5,14.8,100.5,18.7,111h11.2
				c-0.7-3,4.5-33.6,5.1-46.3c2.3-47.5-28.6-87.2-66.8-101.3c-60.4-22.3-142.3-8.4-135.3-94.3c4.4-53.8,47.7-89.4,101.6-99
				c36.7-6.5,74.1,0.4,107.5-3.5c76.8-8.9,149.1-79.1,116.3-156.1c-24.6-57.7-90-77.9-122.6-132.9c-24-40.5-6.3-99.1,53.1-104.9
				c64.5-6.3,90.3,30.2,135.1,57.2c44.9,27.1,73.9,26.6,173.1,32.9c126,8,194.8,106.5,228,62.4c10.1-13.3,41.7-81,52.5-132.8
				c9.3-44.8-2.5-64.7,23.9-101.6c59.1-82.8,128.9-80.8,140.3-258c4.5-69.9,1-105.1,7.9-129.4c17.4-61.7,66-47.8,89.8-57.5
				c10.4-4.2,17.7-17.6,12.7-29.4c-27.9-65.4-42.6-69.8,5.5-178.1c22.4-50.4,27.9-53.9,38.7-98.4c10.2-42.1-10.8-62.5-35.1-63.3
				c-97.2-3-184.8,67-347.6-16c-3.8-1.9-8.5-3-9.9-7.9c4.3,0,8.8-0.5,13,0.4c147.7,30.5,256.9-68.4,372.5-86.1
				c149.6-22.9,153.3,111.9,72.3,232.1c-138.8,206-5.3,198.8,118.1,277.1c-1.6,4.9-4.4,2.9-6.4,2.3c-30-7.8-163.7-39.1-182.6-76.7
				c-50.4-101,21.6-161.7,63.6-261.6c19.2-45.7,0.7-92.3-44.2-113.4C1210.8,47,1121.3,116,945.5,116
				c126.5,22.9,197.8-30.8,260.7-22.1c85.8,11.9,65.7,90.5,31.9,167.2c-36.7,83.5-54.8,112.3-24.7,188.7c11.1,28.2-5.8,51.1-32,55.4
				c-7.1,1.1-14.2,2.3-21.3,3.5c-87.7,14.3-26.3,114.1-74.8,276.3c-31.3,104.9-148.5,130.4-144.3,225.8
				c3.6,79.8-37.7,183.7-62.8,213.6c-21.6,25.7-44.4,10.7-66.2-14.9c-120.6-141.7-249.6-40.5-369.7-136.2
				c-34-27.1-58-47.2-105.8-41.7c-54.3,6.2-61.6,65.6-22.7,102.5c48.7,46.1,157.5,107.6,101.1,211.2
				c-29.6,54.3-90.7,80.5-139.5,80.8c-63,0.3-79.2-3.4-112.7,8.3c-37.8,13.2-66.8,45.4-67.2,85.4c-0.9,90.6,143.8,23.7,202.9,124.9
				c17.7,30.3,16.6,74.2,10.6,108.8h17c-2.1-9-5-128.1,49-177.7c23.6-21.7,48.7-47.6,99.3-48.6c132.2-2.6,156.7,2.8,167.4-129.1
				c0.6-7.2-0.1-24.2,4.9-42.9c17.3-65.8,129-86.3,229.7,78c42.3,69,40.1,230.9,5.6,320.3h42.4c4.2-48.1,10.6-89.1-1.8-206.4
				c-9.6-91,0.8-100.4-17-124.8c-39.2-53.6-107.7-108.1-182.9-165.4c-56.9-43.4-68.3,10.3-115.1-10.5
				c-36.8-16.3-43.6-25.8-70.5-45.6c-56.5-41.5-67.9-42.2-89.3-66.6c-21.3-24.4-69.2-33.1-75.2-22.7c-14.6,25.4,56.7,32.9,99.2,101
				c70.8,113.4-46.5,228.4-136.1,241.4c-25.8,3.8-51.8,7-77.5,11.3c-100.3,16.9-83.7,81.7-55.1,90.6c27,8.4,64.6,12.9,87.5,49
				c-3.5,3.5-5.8,1.3-7.5-0.2c-27.5-24.9-58.4-26.8-87.7-36.3c-33.1-10.8-41.4-64.7-4.6-94.3c41.6-33.5,130.7-26.9,162.1-38.9
				c79.9-30.4,121.3-94.7,125-141.5c7.3-90.8-94.7-133.1-115-156.4c-23.8-27.3,5.5-75.5,59-43.6c30.3,18.1,51.3,51.3,125.4,52.1
				c150.7,1.5,123.1-1.6,233.6,72.4c75.3,50.5,76.1,12.6,151.3,119.8c-11.2-63.7-29.9-98.3-5.9-192.8
				c55.3-217.3,218.7-233.3,218.1-373.6c-0.4-85.7-7.8-214.4,79.1-247.8c84.7-32.5,232.9,4,256,34.7c-9,10.4-63-20.4-137.3-6.3
				c-104.5,19.8-116.2,140-138.8,244.4c-20.6,94.9-90.6,143.6-184.9,269.5c-104.5,139.5-67.4,241.9,38.9,399.4
				c113,167.5,134.6,162.2,99.2,288.1h8.7c1.7-1.3,3.1-3.2,4-6c44.6-134.1-21.8-153.1-130.3-332c-84.4-139.2-103.3-222.6-6.3-349.5
				c104.8-137.2,167.8-174,186-287.9c8.3-51.5,20.4-104.5,44.5-152c43.2-85.1,158.5-75.5,232.9-36.3c40.4,21.3,87.3,55.5,123.5,83
				c65.5,49.8,104.5,66.4,190,117.3c243.3,144.6,296.6,211.6,376.1,185.3c67.2-22.2,23.2-102,63.1-203.5c1-2.5,3.4-4.4,5.3-6.6
				c-0.5,4.2-0.7,8.4-1.7,12.4c-24.1,96,16.6,190.9-49.3,210.4c-103.2,30.6-106.1-6.7-458.6-221c-131.4-79.9-301.5-196.4-399.8-74.4
				c-25.8,32-38.5,65.7-52.9,104.7c-56.3,153.1-201.4,185.2-245.7,358.2c-18,70.2-5.7,138.9,16.8,175.3
				c-49.5-186.8,36.4-249.1,171.1-399.7c79.4-88.8,108.5-118.1,128.1-169.9c27.5-72.6,120.6-79.3,184.7-58.5
				c231.5,75,256.4,150.2,304,263.5c23.5,56,83.6,135.4,136.7,156.7c56.5,22.7,140.7-12.4,196.5-39.4c78.5-38,87.6-62.4,104.2-127.6
				c9.3,37.4-21,118.9-100.8,158c-88.6,43.4-177.3,71.6-246.5,6.7c-125.5-117.6-75.6-138.5-195.4-303.3
				c-26.5-36.5-153.4-83.7-197-96.5c-40-11.7-82.3-13.1-121.1,1.7c-55.3,21.1-24.7,45.9-118.3,150.3
				c-169.2,188.8-358.4,335.7-167.8,545.7c44.4,48.9,96.1,86.4,214,171.5c26.4,19,35.6,35,54.1,68.5c16.6,30.1-6.2,74.8-27.1,94.7
				h46.6c0.6-3.5,16-18.2,18.7-20.5c57.9-50.1,12.9-147.3-47.7-191.1c-71.6-51.7-248.8-97.4-271.3-245.2
				c-37.3-245,336.9-516.9,489.3-253.2c37.8,65.4,72.2,80.7,197.2,186.2c48.6,41.1,87.2,42.2,149.9,57.3
				c43.3,10.4,55.8,24.8,109,52.4c21.8,11.3,41.7,9.1,74.6,1.5c62.7-14.4,43.6-34.8,168.4-105.1c87.2-49.1,210.7-116.9,222.6-216.1
				c9.7-80.1,27.4-91.4,79.2-137.7v-55.1c-88.5,22.2-100.4,11.3-120.4,147.9c-8.4,57.2-39.6,85.1-93.3,127.8
				c-280.1,222.6-328,171.1-352.9,178.7c-17.7,5.4-33.6-2-72.6-18.5c-236.2-100.3-194.5-71.7-341.4-248.3
				c-27.2-32.7-55.5-64.6-81.5-98.3c-37.3-48.3-108.5-57.6-151.1-42.3c-18.2,6.6-27.2,11.7-64,26.9c12.2-21.6,38.3-36.5,62.4-42
				c228.6-52.2,226.3,218.8,433.9,318.6c161.6,77.7,205.3,96.2,221.2,90.5c53.4-19.2,95.5-14.6,150.9-46.6
				c193-111.7,191.3-186.1,223.7-291.6c36.3-118.3,103.2-123.3,140.3-157.5c81.8-75.3-67.2-218.8,41.4-357.3
				c0.7-0.8,2.3-0.9,3.4-1.4v-35.4c-36.8,23.8-87.9,68.7-104.3,96.3c-25.2,42.5,42.2,65.7,54,115.3c3.1,13.1,8.5,25.8,7.1,39.6
				c-6.1-3.6-7.1-10.4-8.8-16.3c-20.4-71.8-101.6-103.3-53.9-158.1c46.5-53.4,65.3-79,105.9-92.6V335
				c-38.4,17.6-61.2,31.6-83.5,31.6c3.7-4.2,5.3-7.3,7.8-8.6c24.2-12.8,48.6-25.2,75.7-30.9v-27.5c-38,6.5-71.2,34-96.4,63.3
				c-55.7,64.7-123.1,62.9-65.6,169.7c35.8,66.5,102.3,98.5,123.8,158.1c10.4,29.1,1.8,58.5-22.5,77.4
				c-37,28.8-98.2,44.3-122.3,113.2c-45.8,131.1-35.9,164.1-145.1,233.9c-122.9,78.5-201.9,86.7-236.4,95.7
				c-35.6,9.3-43.8-7.6-96.3-10.2c-51.6-2.6-90.3-31.2-124.9-69.7c-64.6-71.9-79.9-62.6-141.5-138.4
				c-133.2-163.9-148.4-153-231.9-210.5c23.6-2.2,122.8,53.9,204.8,152c40.6,48.5,62.6,78.3,111.1,118.9
				c77.4,64.9,87.3,117.4,192.5,126.4c45.8,4,49.5,19.7,90.1,9.8c70.9-17.4,219.1-63.1,272.4-125c54.4-63.2,1.1-122.8,9.5-206.7
				c8.7-86.8,104.9-67.2,130.3-146.2c6.5-20.3,24.2-37.9,11.1-71.1c-28.9-73.4-74.4-128.6-107.9-177.4c-22-32.1,13.7-80.2,50.7-92.2
				c126.1-41,104.7-65.6,194.5-90.5v-11.8l-15.2,3.6c3.5-5.5,9.9-5.4,15.2-7.6v-35.4c-99.3,37-70.5,33.5-128.1,78.5
				c-2.8,2.2-6.8,3-9.8,4.2c-6.3-5.1,0.4-9.7,13.4-20.8c40.5-34.7,65.2-58.9,124.5-73.8v-31.5c-25,0-36-8.5-41.6-32.1
				c-6.2-26.5-1.2-23.1,23.7-111.8c3-10.6,8.6-20.4,13.3-30.4c0.6-1.4,3-1.9,4.6-2.8V-7.4H2584.2z M1055.3,306.1
				c-9.3-31.3-19.7-45.3-34.1-69.7c77.1,46.5,35.6,80.2,70.9,134.1c1,1.5,1.1,3.5,2.5,8.2C1073.9,370.8,1061.5,327.4,1055.3,306.1z
				 M1118.5,240.8c-4.1-33.2-27.4-9.6-76.8-32.4c-6.2-2.9-13.3-4.9-18.7-13.8c62,12.8,65,2.3,89,2c45.1-0.5,21.9,64.8,9.8,127.2
				C1114.3,327.3,1123,277.5,1118.5,240.8z M863.3,974.1c29.9,42.2,38.9,87.3,22.4,143.9c-6.4,21.8-28.4,35.8-51.7,33.7
				c-45.2-4.2-61.6-31.8-141.2-44.6c-11.7-1.9-44.9-6.8-54.3-11.8c5.3-13.6,89.3,1.8,103.6,4.8c37.4,7.7,51.9,13.5,83,5.1
				c40.3-10.9,45.7-69.8,25-107.5c-11.3-20.5-30-39.5-34.9-56.6c-6.5-22.4,7.1-28.1,40.2-35.1c85.4-18.3,78.5-15.4,89.1-15.3
				C880.6,929.4,823,917,863.3,974.1z M986.3,835.8C936,852.4,850.9,854.2,805,887.6c-44.5,32.4-2.4,58.4,27.8,103.6
				c19.1,28.6,6.7,64.9-25.9,76.7c-20.9,7.6-40.4,0.7-81.6-0.2c-47-1-81.3,17.7-137.7,15.9c-45.3-1.5-91.5-19.9-112.7-36.7l1.2-2.2
				c94.2,29.2,122.4,28.8,195.4,14.1c66.3-13.3,103.2,2.3,126.6-3.7c22.5-5.8,37.5-32.3,26-50c-25.9-40.1-74.9-77.6-43.8-114.6
				c77.5-92.5,277.8-2.9,286-201.9c5.5-134.1-89.9-201.2-44.2-247.9c18.3-18.7,49.2-26.5,75-30.3c19.8-2.9,24.5,15.4,11,25.5
				c-15,11.2-31.8,12.9-45.3,17c-22,6.6-35.1,30.8-28.2,52.7c3,9.3,7.2,18.2,11.3,27.2C1096,643.9,1100.8,798,986.3,835.8z
				 M1123,147.5c8.4-1.2,16.8-3,25.2-3.4c32.9-1.9,54.9,20.7,52,53.8c-1.6,18.5-11.4,46-21.3,75.5c-43.4,128.1,7.4,183.6-79.8,211.7
				c-30.8,9.9-26.8,20.4-17.8,83.2c1,7.1,2.8,14,1.6,21.1c-4.5,0.7-4.4-2.5-5-4.6c-18.2-64.2-41.7-114.7,28.8-121.1
				c55.5-5,18.9-74.8,56-188.1c16.2-49.5,44.3-113.3-8.9-116.5c-25.5-1.5-82.8,19.6-125.9,10.1c-21-4.6-41.9-10.1-62.8-15.3
				c-1.1-0.3-1.9-1.5-4.1-3.3C985.1,147.1,1042.5,159,1123,147.5z M576.5,1442.7c11.1-42.9-7.7-165.5,98.5-185.8
				c16.4-3.2,42.4-0.3,43.4,15.1c-190.6,0-66.6,185.9-172.7,223.7c-50.7,18.1-86.9,17.9-158.4,21.1c-9.6,0.4-19.1,3.6-32,2
				c22.5-15.9,53.8-16.8,127.1-27.5C524.6,1485.1,566,1483.3,576.5,1442.7z M267.5,1558.4c-30.4-20.8-32.4-40.9-17.8-58
				c27.6-32.2,132.8-33.6,200.4-67.2c82-40.7,95.1-132.3,66.5-208.3c-2-5.4-3.8-10.9-7-19.9c4.5,2.8,6,3.3,6.7,4.3
				c56.3,77.5,36.1,169.2-22.4,224.4c-57.7,54.3-199.8,43.9-231,75.5c-13,13.2-3.7,26,11.9,36c35.2,22.7,46.6,65.9,49.3,107.7
				c-6.2,1.7-5-2.4-14.5-27.8C299,1596.6,292.5,1575.5,267.5,1558.4z M1522.7,442.2l2.6,6.5C1522.6,447.3,1522.5,444.8,1522.7,442.2
				z M1689.2,698.7c-141.4-87-93.1-94-158.8-234.9c-2.1-4.5-3-9.6-4.4-14.4c15.5,2.5,53.5,102,58.7,116.9
				c30,86.6,88.6,107.4,113,134.2C1694.7,700.1,1691.5,700.1,1689.2,698.7z M1698.4,701.5l1.3,1.2
				C1698.9,702.4,1698.5,702.7,1698.4,701.5z M1907.3,960.2c-37.6-66.6-34.8-50.3-39.6-65.9c32.9,20.9,61.5,106.5,100.4,140.2
				c27.6,24,50,24.2,75.7,26.1C1968.3,1075.7,1938.9,1016.3,1907.3,960.2z M1546,745c73.9,14.5,183.8,63.5,198.7,137.7
				c-11.6-8.3-18.2-43.9-91.2-86.9c-47-27.6-91.2-38.3-108.2-48.4L1546,745z M1921,1126.7c-20.6-9.4-0.7,0.3-83.9-53.7
				c-50.6-32.9-24.4-68.8-103.6-127.7c-16.9-12.6-54.5-33.6-65-40.1c-43.1-26.4-31-46.3-86.1-84.7c-12.6-8.8-52.3-35.4-56-44
				c30.3,9.9,91.8,61,119.9,90.9c68.7,72.8,108.1,48,166.5,160.6c27.6,53.1,60.2,42.2,109.2,97.7l2.1,3.2L1921,1126.7z
				 M2329.4,471.5c-5.6-3-6.3-8.9-7.3-14.1c-10.5-50.8,29.8-93.4,45.9-94.6C2339.6,403.9,2316.4,397.9,2329.4,471.5z M2333.1,479.4
				c-2.9-1.1-3-3.6-3-6.1L2333.1,479.4z M2369.2,362.2l9.7-7.3C2377.4,359.7,2373.9,361.7,2369.2,362.2z M2385.8,577.3
				c19.7,28.6,22.1,79.4-6.8,114c-10.5,12.5-22.4,23.8-33.6,35.7c-77.9,82.1-72.6,84.5-75.4,189.3c-3.8-4.2-6.2-5.7-6.7-7.7
				c-30.2-117.9,43.9-157,99.2-219.8c103.8-117.8-162-203.8-69-311.1c17.2-19.9,53.4-41.5,101.4-50.2l1.7,3.7
				C2206.4,425.2,2301.4,454.8,2385.8,577.3z M2592.7,273.8c3.3-1.2,7.2-1.1,10.8-1.6c-2.4,7.7-112.4,52.4-124.6,54.5
				C2489,309.1,2533.8,295.8,2592.7,273.8z"/>
			<path class="st1" d="M668,1637c12.7-29.9-15.6-35.7-52.4-40.2c-78.7-9.7-169.7,9.6-202.4,81.6c-17.5,38.4-10.3,67.4-13.8,75h18.5
				c-2.3-3.9,1-106.5,82-139c50.1-20.1,168.2-24.2,149.6,25.8c-5,13.5-5,15.5-77.3,90.5c-34.8,36.1-72.7,3.4-92.9,22.7h85
				c-0.1-0.4-0.2-0.7-0.3-1.1C585.1,1735,657.2,1662.3,668,1637z"/>
			<path class="st1" d="M719.9,1401.5c-13.4-11.8-20.3,6.9-24.1,24.4c-6.3,29.6-1.3,95.1-79.6,126c-49.8,19.7-101.3,16.1-155.2,31.4
				c-118.7,33.7-71.1,102.1-80.4,170.1h7.2c-2-2.2-2.2-5.6-2-8.7c7.2-137.2,84.9-151.4,220.4-180.4
				c118.6-25.4,197.3,84.5,38.8,189.1h27.8c38.7-31.7,78.2-60.5,73.6-120.8c-5.8-77-72.7-83.6-78.2-90.9c39.1-58,25.6-32.5,51-97.7
				c17.7,19.1,56.8,96.3,72.6,170.9c14.8,70.3-6,105.8-18.9,137.7c0.3,0.3,0.5,0.5,0.8,0.8h29.1c10-25,32.3-60.6,22.4-131.8
				C810.5,1517.5,744.2,1422.8,719.9,1401.5z"/>
			<path class="st1" d="M519.8,1732.8c42.2,5.3,29-23.4,87.3-67.3c12.8-9.6,21-16.9,27-27.9c16.8-30.6-150-45.3-187.4,51.2
				c-8,20.6-12.3,42-14,64.6H463C470.9,1729,494.2,1729.6,519.8,1732.8z"/>
			<path class="st1" d="M119.6,1720.5c-50.9-4-95.4,14.9-124.7,15.4v12.9c2.2-0.7,59.8-12,77.4-15.4c26.3-5.1,72.3-6.5,87.8,20.1
				H174C163.1,1736.8,159.5,1723.6,119.6,1720.5z"/>
			<path class="st1" d="M2517.8,1257.5c-81.4,37.5-201.7,84.4-222.8,183.9c-28.4,134.4-33.4,139.8-6.7,255.2
				c7.2,31.1,17.1,43.4,22.2,56.8h16.6c-20.6-18.2-40.4-106.9-44.9-142.4c-5.7-44.8,4.7-76.2,19.2-151.4
				c13.6-70.7,66.9-117.2,131.4-148.6c121.1-58.9,93.9-29.9,178.9-124.7c2-2.2,5.1-3.5,7.7-5.2v-19.7
				C2569.4,1218.9,2555.3,1240.2,2517.8,1257.5z"/>
			<path class="st1" d="M1500.9,254.3c-10.7,120.2,118.1,102.9,185.4,174.9c74,79.2-23.1,144.4,141.7,276.8
				c57.2,45.9,201.1,145,286.8,148.8c46.4,2,80-48.5,84-93.1c18-202.9-92.6-155.8-141.3-262.4c-43.8-95.8-59.3-190.2-1.8-279.2
				c78.5-121.6,170.8-105,187.5-227.5h-11.8c2.3,106.4-129.8,105.1-200.1,250.2c-42.9,88.7-20.2,184.5,23.1,273.8
				c22.5,46.5,47.7,44.4,107.5,115.9c19,22.7,16.5,22.4,18,28.4c-24.7-16.5-43.7-49-114.1-82.9c-79.1-38.1-142.2-195.7-53-384.9
				c58.5-124,133.1-124.6,136.3-200.6h-98c10.2,87.3-30.9,140-55.8,185.5c-81.4,148.5-20.1,82.7-81.4,279.7
				c-31.1,100,19.1,120.5,34.7,144.5c-19.6-2.3-49.1-28.2-55.8-65.3c-6.4-35.5,5.3-75.5,17.3-111.2c32.9-97.5,12.2-137,43.5-198.3
				c67.1-131.5,88.1-127.2,85.7-234.9h-62.7c8.2,54.8-12.2,93.7-50.3,163.7c-42.4,77.9-11.7,124.7-17,152.8c-2.6-1.8-4.4-2.6-5.5-4
				c-27-32.9-69.1-21.7-175.7-67c-46.8-19.9-61.5-106.1,0.4-132.4c22.8-9.7,40.2-6.4,64.8-30.3c51.2-49.8,90.7-132.1,128.4-32.8
				c-6.6,0.6-13.2-14.2-25.5-26.4c-14.8-14.7-27.4-3.5-43.5,13.8c-67.6,72.8-54.8,68.2-105.7,81.7c-62.6,16.7-61.1,82.8-24.2,113
				c35.1,28.8,86,26.8,135.5,27.2c1.8,0,3.6-1.2,6.4-2.2c10.7-36.2,4.9-35.9,45.8-93.7c53.6-75.7,51.5-145.9,54.4-163.6h-141.1
				c-0.3,2.5,0.1,5.4-1,7.5c-7.3,13.2-30.9,50-41.9,55.2c-0.8-3.8-0.3-2.9,35.1-62.7h-27.4c-42.9,82.3-35.4,74.3-91.7,119.6
				c-47,37.9-31.4,79.9-31.4,95.5c-2.3-1.9-4.4-2.7-4.9-4.2c-7-18-10.2-36.4-7.2-55.8c4.5-28.7,21.9-42.6,48.3-57.9
				c42.8-24.7,53.6-54.4,75.2-97.3h-31.4c-14.9,37.8-53.4,64.5-76.4,90.6c-41.8,47.3-62.3,122.8-13.8,163.1
				c54.7,45.6,110.1,44.3,155.2,52.5c37.5,6.8,87.8,31.1,93.9,69.5c12.5,78-108.6,180.4,21.4,253.7c79.3,44.7,156,8.4,206.7,124.6
				c1.1,2.6,0.9,5.8,1,8.7c-40.3-50.7-49.2-80.7-159.6-83.9c-37.3-1.1-81-35.7-104.1-57.8c-58.3-55.7-29.7-126.9-1.7-201.6
				c17.5-46.6-13.6-84.7-47.8-95.2c-58.5-18-124.8-4.2-185.4-63.4c-45.2-44.1-25.4-117.6,11.8-164.7c28.7-36.3,62.8-59.6,83.2-96.1
				h-109.8c12.5,95.2-123.3,264.4,40.7,333.6c64,27,122.8,20.4,127.9,130.1c2.3,48.7-2.3,102.7,10.9,172.3c0.2,1.1-0.5,2.4-1.2,5.8
				c-20.5-50.4-19.8-105.8-22.3-168.8c-5.2-129.2-70-95.7-147.7-142.4c-121.6-73-34.6-188.6-20.1-330.7c-90,0-89.6,0-90.2,0
				C1589.5,87.2,1507.4,181.6,1500.9,254.3z M1760.8,148.3c-58.8,17.1,19.5,86.2,45.4,66.9c5-3.7,5.4-4.6,23.4-20.7
				c2.7,10.9-10.3,22-18.3,26.2c-42.5,22.4-122.4-56.1-66.4-78.7c33-13.3,44.5-5,74.6-26.8c5.8-4.2,12.3-7.3,18.6-10.6
				c1.4-0.7,3.4-0.3,7.6-0.5C1804.4,150.7,1794.7,138.5,1760.8,148.3z M2019.4,611.3c-55.4-26-98.4-51.8-93.7-122.3
				c1.7-25.7,14.9-84.2,27.2-88.5c5.1,1.4,3.9,6,4.2,9.5c21,228.4,227,177.8,222.6,363.5c-0.1,2.5-2.8,5-5.6,9.7
				c-11.1-31.8-15.6-50.4-29.4-79.4C2113.9,639.4,2074.4,637.1,2019.4,611.3z M2137.3,762.8c-3.4-0.9-3.8-3.6-3.8-6.6
				C2136.7,757.3,2136.9,760.2,2137.3,762.8z M2040.2,691.2c43.9,13,68.3,43.4,76.7,87.7c0.3,1.8-0.5,3.7-1,7.2
				c-8.4-7.2-2.5,1.2-15.4-24.7c-46.6-93.5-165.9-48.6-186.1-87.5c23.1,6.7,29.4,10.9,46.3,10.9
				C1996.4,684.8,2015.9,684,2040.2,691.2z M1600,254c8.9-4.7,5.2,10.5,54.1,40c80.3,48.4,185.1,9.6,194.2,98.1
				c4.4,42.5-15.4,75.5-22.2,129.2c-8.1,63.8,13.2,131.5,63.7,168.4c46.3,33.9,142.8,102.3,198.1,117.2
				c36.9,9.9,51.1-13.7,61.1-10.4c-39.3,50.6-108.3,8.2-162.5-26.4c-104.3-66.6-207.9-114.6-165.2-292.5c6.1-25.6,15-52.1,13.8-80.9
				C1830.9,295.6,1647.8,369.8,1600,254z"/>
			<path class="st1" d="M2329.8,1477.2c-12.8,45.2-17.7,117,10.3,156.1c88.1,123.3,225.9,37.7,279.4,35.8v-27.5
				c-219.4-6.4-99.6-170.9,0-216.5v-19.7c-1.3,0-2.7-0.3-3.9,0.1c-250.9,69.9-181.6,140.7-187.3,209.6
				c-2.9,35.7-27.5,45.5-47.7,31.9c-19.8-13.4-45.4-56.5-47.9-104c-3.4-64.2,42.7-115.9,97.7-138.2c122.8-49.8,121-37.6,189.1-101.7
				v-15.7c-59.5,49.5-55.3,52.3-156.8,83.4C2414.7,1385.5,2352.5,1396.7,2329.8,1477.2z"/>
			<path class="st1" d="M2387.1,1633.9c15.5,13.4,31.7-5.4,26.4-41.5c-5.6-38.2-14.7-67.8,16.2-110.6c33.9-47,91.4-62.6,189.8-100
				v-19.7c-150.8,46.7-167.2,45.6-204,67.9C2314.7,1491.1,2346.3,1598.6,2387.1,1633.9z"/>
			<path class="st1" d="M2546.5,1509c-31.8,39.3,1.6,121.4,73,120.8v-181C2590.8,1463.5,2566.7,1484,2546.5,1509z"/>
			<path class="st1" d="M2619.5,677.4v-244C2570.8,504.7,2585.9,597.3,2619.5,677.4z"/>
			<path class="st1" d="M1055.3-7.4h-78.4c-34.8,26.2-111.7,22.3-141.1,0h-35.3c10.8,7.6,60.6,23.1,71.1,26
				C949.2,40.1,1021.1,18.7,1055.3-7.4z"/>
			<path class="st1" d="M2591,145c4,20.7,7.4,24.5,28.5,28.6V28c-3,9.9-6.8,19.7-8.9,29.8C2598.5,118.8,2586.3,120.6,2591,145z"/>
			<path class="st1" d="M2605.4,1753.4c4.5-1.3,9.2-1.7,14.1-1.6V1740c-61.7,11.7-59.2,10.8-65.2,13.4H2605.4z"/>
			<path class="st1" d="M969.3,1417.3c-0.4-0.3-0.6-0.5-0.9-0.7l0.5,1.1L969.3,1417.3z"/>
			<path class="st1" d="M967.2,1413.9c-0.4,1.5-1,1,1.2,2.7L967.2,1413.9z"/>
			<polygon class="st1" points="932.8,1338.7 933.5,1339.6 933.2,1338.7 			"/>
		</g>
	</g>
</g>
</svg>
