<?xml version="1.0" encoding="utf-8"?>
<!-- Generator: Adobe Illustrator 27.4.1, SVG Export Plug-In . SVG Version: 6.00 Build 0)  -->
<svg version="1.1" id="Layer_1" xmlns="http://www.w3.org/2000/svg" xmlns:xlink="http://www.w3.org/1999/xlink" x="0px" y="0px"
	 viewBox="0 0 1131 754" style="enable-background:new 0 0 1131 754;" xml:space="preserve">
<style type="text/css">
	.st0{fill-rule:evenodd;clip-rule:evenodd;fill:#F9E6D8;}
	.st1{opacity:0.15;fill-rule:evenodd;clip-rule:evenodd;fill:#1D1D1B;}
</style>
<rect x="-282.8" y="-255.3" class="st0" width="1731.4" height="1168.9"/>
<g>
	<defs>
		<rect id="SVGID_1_" width="1131" height="754"/>
	</defs>
	<clipPath id="SVGID_00000166636247997753184340000000984042419646913949_">
		<use xlink:href="#SVGID_1_"  style="overflow:visible;"/>
	</clipPath>
</g>
<path class="st1" d="M0,0c11.5,0,23,0,34.5,0C28.1,8,12.5,10.4,0,12.2C0,8.1,0,4.1,0,0z M0,36c0-3,0-6,0-9
	C22.5,27.2,49.6,16.8,54.9,0c4.3,0,8.6,0,12.8,0c0,0.1,0,0.1,0,0.2c-1.9,6.7-2.6,12.2-6.1,17C51.2,31.6,24.1,35.6,0,36z M79.9,0
	c0.8,0,1.5,0,2.3,0c1.3,10.7,2.5,22.4,5.5,31.8c1.6,3.2,3.2,6.5,4.8,9.7c-0.1,0-0.1,0-0.2,0c-6.3-1.6-13.8-1.8-16.4-6.9
	c-2-3.9,0.7-9.3,1.7-12.4C79.6,15.6,79.8,8.5,79.9,0z M93.4,0c3.5,0,7,0,10.5,0c0.8,6.6,3.6,13.1,5.9,18.5
	c15.8,36.5,56.3,51.5,66.3,90.9c6.4,25.3-9.8,41.3-19.4,55.1c-5.1,7.3-10.9,19.9-4.6,30.3c7.3,12,22.8,13.9,34.9,21
	c14,8.2,24,18.9,36.2,28.6c4.6,3.7,19.2,13.3,19.6,19.8c-4,10-18.1-3.3-21-6.3c-3.4-4.1-6.9-8.1-10.3-12.2
	c-7.1-8.9-17-16.8-26.9-22.9c-13-8.1-32-11.6-40.8-23.8c-6.4-8.8-3.7-22.2,1.5-30.3c9.5-14.9,28.9-31.7,22.1-58.3
	c-5.4-21-25.3-40.2-40.2-52.2C111.6,45.8,97.2,23.9,93.4,0z M119.5,0c2,0,3.9,0,5.9,0c2.8,9.1,10.1,17,15.4,24
	c18.4,24.3,48,40.5,59.3,71.3c8,21.9,0.3,44-9.3,58.3c-5,7.6-14.6,17.2-11.4,31.1c4.1,17.6,20.5,21.6,30.1,33
	c-4.3-2-8.6-4.1-12.8-6.1c-13.3-6.7-26.5-10.7-29.5-27.8c-2.2-12.4,8.8-23.4,13.7-29.7c9.4-12,18.2-29.9,11.6-50.9
	c-9.4-29.8-34.5-44.7-52-66.5C132.3,26.5,122.2,15.6,119.5,0z M0,58.3c0-3.6,0-7.2,0-10.7c59.6-0.6,102.9,7.8,133.6,38.5
	c8.9,8.9,23.7,25.2,20,45.2c-5.1,27.9-27.2,33.5-31.8,59.3c-2.1,11.6,4.6,20.6,10.3,24.8c7.1,5.3,16.6,7.4,25.9,10.7
	c9.6,3.5,18.5,7.8,26.3,13c7.7,5.2,14.9,12.5,20.4,20c3.7,5.1,6.9,11.3,11.8,15.1c6,4.7,16.8,10.6,27.8,6.7
	c11.6-4,17.4-18.2,9.9-30.9c-4.7-7.9-12.2-14.8-19.1-20.4c-3-3.1-6-6.2-9-9.3c-8-8.6-17.3-16.5-22.9-27.4
	c-17-32.6,20.9-59.2,10.9-98.5c-4.2-16.6-13.1-26.9-22.3-38.3c-2.6-2.6-5.2-5.2-7.8-7.8c-4.8-5-9.5-10-14.3-14.9
	c-8.8-10.9-18.4-20.7-25.2-33.7c4,0,8,0,12,0c17.5,33.8,54.9,49.7,65.2,90.3c9.7,38-24,64.9-8,100.4c11.3,24.9,39.4,35,51.3,59.1
	c9,18.1-2.3,35-16.6,39.6c-11.6,3.7-25.8,0-33.5-4.8c-12.8-8-18.6-22.8-30.1-32c-7.4-5.9-15.5-11.4-24.8-15.4
	c-15-6.4-30.2-9.5-40.4-20.4c-4.6-4.9-10.3-13.2-8.4-24.2c4.7-27.4,27.8-33.2,32.6-60.4c2.8-16-11.8-32.7-19.6-38.9
	c-4.9-4-9.4-8.5-14.9-12C81.6,63.9,45.3,58.2,0,58.3z M0,79.5c0-3.2,0-6.5,0-9.7c38.3-0.2,75.8,6.1,95.1,25.5
	c6.6,6.6,15.7,18.2,11.4,32.6c-4,13.4-13.8,19.5-21.5,29c-8.1,10.1-14,19.7-17.5,34.7c-1.3,5.8-2.3,14.3-1.1,21
	c0.8,4.5,1.7,8.7,3.4,12.4c8.9,20.4,26.6,16.1,50.5,20.4c17.9,3.2,33.7,6.5,46.5,14.5c6.7,4.2,13.5,9.7,18.3,15.8
	c4.5,5.7,8.6,12.2,14.3,16.6c7.1,5.6,14.4,8.7,24.8,11.2c5.3,1.2,12.9,2.3,19.4,1.3c5-0.8,9.9-1.1,14.1-2.7
	c20.9-7.9,34-33,20.8-58.7c-12.7-25-41.1-35.4-52.2-62.1c-13.6-32.8,16.7-61.4,7.8-96.8c-5.9-23.4-21.2-35.7-34.1-51.8
	c-8.6-10.7-17.3-20.4-24.6-32.6c0-0.1,0-0.1,0-0.2c2.4-0.1,8.9-0.9,10.3,0.4c1.8,2.9,3.6,5.9,5.5,8.8c3.9,5,7.9,10.1,11.8,15.1
	c12.4,15.7,28.2,28.1,36.2,48.4c2.4,6.1,3,12.6,4.2,20.2c1.4,8.4-1.5,17.5-3.4,23.6c-5,16.2-13.5,37.1-7.2,57.2
	c10.5,33.2,48.4,42.7,58.9,74.9c10.5,32.1-6.4,57-30.3,64.4c-5.1,1.6-10.7,1.8-16.4,2.7c-4.6,0.8-10.7,0.5-14.9-0.2
	c-3.5-0.4-7-0.7-10.5-1.1c-14.1-3-25.9-8.2-33.5-17.7c-4.7-5.9-9.1-13.2-14.9-17.9c-8.4-6.8-17.1-12.9-28.8-16.6
	c-8.2-2.6-17-3.4-26.5-5c-13.1-2.2-26.1-0.7-36.2-5c-11.8-5.1-18.6-15.2-21.7-29c-7-31.5,8-58.1,20.8-74.3
	c7.5-9.6,23.2-22.5,12.6-40.4C76.7,83.4,37.6,81.9,0,79.5z M204.5,0c3.9,0,7.9,0,11.8,0c1.8,7,11.3,17.4,15.6,22.9
	c14.8,19,32.4,36,60.4,41.9c20.5,4.3,43.5-2.9,62.7,2.3c4.9,1.3,17.5,7.4,10.1,13.7c-1.9-1.1-3.8-2.2-5.7-3.4
	c-5.8-1.8-13.4-1.5-20.6-1.5c-16.8,0-32.9,1.8-48.2-1.3c-30.4-6-49.1-24.8-65.2-45C218.3,20.9,208.3,11.6,204.5,0z M232.1,0
	c2-0.1,6.7-0.6,7.8,0.4c3.1,4.7,6.2,9.4,9.3,14.1c10.7,14,24.5,25.4,43.6,31.1c24.6,7.3,63.8-3.3,86.3,6.1c4.7,2,10,6.1,11.6,11.2
	c2.1,6.5-1.5,14.5-8,14.5c-0.4-0.2-0.8-0.4-1.3-0.6c-0.3-2.8-0.1-6.2-1.1-8.4c-9.6-23.3-61.1-10.3-86.5-16.6
	C262.7,44.1,246.9,23.8,232.1,0z M256.3,0c4.3,0,8.6,0,12.8,0c8,13.8,24,20.9,42.7,24.2c5.3,0.9,12.9,1.3,18.3,0.4
	c8.7-0.2,17.4-0.4,26.1-0.6c29.1-2.8,53.1,7.8,60.6,26.7c7.1,18-4.7,34.4-16.2,41.2c-14.1,8.3-36,5.7-55.8,9
	c-35.1,6-64,11.5-76.6,40c-4.5,10.1-9.3,27.5-4,40.4c5.1,12.5,17.3,21.4,27.1,29.2c16.8,13.4,33.1,41.2,25.9,74.1
	c-1.7,7.6-4,14.2-7.2,20.2c-4.5,8.5-11.2,16-19.1,21c-27.6,17.7-88.7,20.6-115.9,0c-8.9-6.7-14-17.1-20.6-26.1
	c-5.7-7.8-14-14.1-23.8-17.9c-11-4.3-24.1-3.7-37.9-5.9c-9-1.4-17.4-0.3-25-2.5c-12.5-3.7-21.4-10.5-27.4-20.6
	c-8.8-14.9-10.4-44.2-6.7-66.7c2.1-13.2,3.2-29.5,1.1-41.9c-1.8-10.3-3.6-20-8-27.8c-2.8-4.9-10.3-11.2-10.9-17
	c3.9-6.2,18.1-4.2,25.9-2.5c15.4,3.2,44.3,11.8,33.9,33.9c-1.1-13.9-26.7-29.5-34.1-12.2c-4,9.4,1.4,25.5,1.7,36.4
	c0.6,25.9-6.3,57,0.8,80.6c4.8,15.9,14.6,26.1,30.5,30.9c17.3,5.2,41.7,1.5,58.3,6.7c13.6,4.3,23.5,12.5,30.9,22.9
	c3.8,5.4,7.3,11.2,12.2,15.6c18.1,16.2,60,24.8,92.2,14.7c23.5-7.3,36.2-22.7,41-49c1.4-7.4,1-17.2-0.6-24.2
	c-1.4-5.9-3.1-11.9-5.9-16.6c-15.9-27.3-47.5-37.9-57.4-71.3c-7.1-23.7,6-45.1,10.9-64.4c1.9-7.4,0.8-15.5,0.4-23.1
	c5,1,8.9,5.6,13.5,7.6c5.9,2.6,13,2.6,19.8,3.6c5.8-0.1,11.6-0.3,17.5-0.4c6.4-0.4,12.8-0.7,19.1-1.1c2.8-0.4,12.3-1.8,14.7-0.8
	c-8.3,1.3-16.7,2.7-25,4c-31.4,6.7-48.9,8.7-60.2,36.2c-3.9,9.4-7.2,26.8-2.1,38.1c0.1,0,0.1,0,0.2,0c0.3-10,3.8-18.9,6.9-26.3
	c12.8-30.3,37.7-35.8,73.4-42.9c26.6-5.3,56.9-1.5,68.8-21.3c1.6-2.7,3.6-7.8,3.2-11.8c-1.6-15.9-14.6-22.4-28.8-25.7
	c-5.2-1.2-10.4-0.4-16.2-1.3c-4.5,0-9,0-13.5,0c-7.9,0.1-15.9,0.1-23.8,0.2c-27.9,2.4-48.9-10.5-60.8-25.9
	C260.9,7.1,257.6,3.8,256.3,0z M287.4,0c22.4,0,44.9,0,67.3,0c17.6,0,34.5-0.3,48,3.8c29.6,9.1,51.2,37,58.9,68
	c8.8,35.2-12.5,62.6-33,74.9c-6.6,4-14.5,5.8-23.6,7.4c-24.7,4.2-49.6-7-67.5,6.3c-3.9,2.9-6.7,6.3-7.8,12
	c-2.8,15.1,13.9,29.5,19.8,38.5c6.7,10.2,11.2,22.3,14.1,36.2c0.6,5.7,1.1,11.4,1.7,17c1,6.6-0.1,15-1.1,20.6
	c-3.5,20.9-7,37.7-14.1,54.3c-2.7,6.2-11.8,20.7-7.2,28c7.1,11.1,31.2,17.8,42.7,26.1c15.1,11,26.3,25.4,31.6,46.3
	c1.8,7,2.1,14.7,3.4,22.3c1,6.2,1.4,15.6,0.4,21.7c-0.9,6-0.1,13.1-1.3,19.1c-3.3,17.7-8.5,31-17.3,42.9
	c-9.5,12.9-23.1,22-29.9,37.7c-7.6,17.5-11.2,55.5,0.4,71.7c11.7,16.5,52.5,14.3,73.2,6.9c6.1-2.2,12.3-5.3,17.3-8.8
	c6.5-4.5,11.8-10.3,18.1-14.9c-1.4,3.4-4.6,6.1-6.7,8.8c-12.8,16.3-30,26-54.7,30.5c-5.2,1-12.8,1.7-18.3,0.8
	c-4.2-0.2-8.4-0.4-12.6-0.6c-13.1-2.4-20.9-6.9-25.7-17.5c-9.7-21.5-7.2-66.6,3.6-85c8.2-14.1,20.9-23.5,30.1-36.6
	c12.3-17.4,20.3-52.5,14.7-82.3c-1.5-8.3-2.7-16.2-5.5-23.1c-7.5-18.9-23.4-34-41.7-42.1c-11.4-5-40.8-12.5-46.3-21.5
	c-5.5-9,11.2-20.5,15.4-25.2c10.3-11.8,16-26.3,20.2-44.4c0.6-5.2,1.1-10.4,1.7-15.6c0.1-5.3,0.3-10.5,0.4-15.8
	c-0.6-5.4-1.3-10.8-1.9-16.2c-3.6-15.5-9-28.2-16.8-39.3c-6.1-8.6-23.2-24.5-20.6-40c2.7-16,14-21.6,29.7-24.6
	c3.9-0.2,7.7-0.4,11.6-0.6c4.3-0.1,8.6-0.1,12.8-0.2c8.5,0,17,0,25.5,0c26-4.3,40.6-14,51.8-32.8c3.9-6.6,8.9-17.6,7.6-28.2
	c-3.8-31-22.5-59.4-46.1-70.1c-7-3.1-14.5-4.6-23.4-6.1c-6.1-1-14-0.7-20.2-0.2c-7.2,0.1-14.4,0.1-21.7,0.2
	c-12.8,2-32.9,0.8-42.5-2.3C297.1,6.4,289.7,4,287.4,0z M426.1,0c5.6,0,11.2,0,16.8,0c5.4,2.5,13.8,13.7,17.5,18.7
	c12.8,17.7,32.1,54,24.8,86.9c-5.8,26-19.5,44.7-38.1,57.9c-9.1,6.4-19.4,10.4-32.6,12.8c-12,2.2-26.7-0.9-32.4,7.4
	c-3.8,5.5,1.2,13,3.2,16.8c4.4,8.7,6.1,17,8,28.8c0.1,4.4,0.1,8.8,0.2,13.3c-1.4-18-8.8-31.7-17-42.9c-3.4-4.6-11.3-13.4-7.8-22.1
	c5.8-14.3,27.9-8.5,44.6-11.8c9.9-1.9,18.2-5.1,25.5-9.7c21.3-13.4,46-45.8,36.6-84c-2.3-9.5-5.4-18-9-26.1
	c-5.4-12.1-16.3-28.1-26.1-36c-2.9-2.2-5.8-4.5-8.6-6.7C429.7,2.2,427.9,1.1,426.1,0z M462.9,0c2.2-0.1,8.2-0.8,9.5,0.4
	c6.4,5.2,11.6,17,16,24.4c19.9,33.6,37,106.3,11.2,147.5c-7.1,11.3-18.2,16.4-29,24c-11.5,8-22.3,18.9-28,32.6
	c-4,9.8-4.7,21-6.7,33.2c-0.4,6.2-0.7,12.5-1.1,18.7c-0.4,7.1-0.7,14.2-1.1,21.3c-0.4,6-0.7,12.1-1.1,18.1c-0.9,5.8,0.1,13,1.1,17.5
	c9.1,41.2,53.7,27.5,73.6,54.5c11.7,15.9,9.5,41.6,13.9,65.4c1.5,8,2.5,15.9,4.6,23.4c2.6,9.2,7.7,20.7,5.3,30.9
	c-3.2,13.7-16.4,17-23.6,26.7c-5.8,7.9-9.4,17.4-14.1,26.5c-8.2,16.2-18.7,31.3-33,41.5c-9.9,7-32.8,16.6-41.7,1.5
	c-1.5-2.6-3.1-7.5-2.3-12.2c0.4-2.2,0.8-4.3,1.3-6.5c4.7-15.8,17.1-24.6,24.4-38.1c5.5-10.2,8.7-22,11.4-35.1
	c0.6-6.1,1.1-12.2,1.7-18.3c0.8-6,0-12.3-0.8-17c-0.3-4.1-0.6-8.3-0.8-12.4c-2.2-12.7-3.3-25.3-6.3-37c-1.5-5.8-7-20-4.2-24.8
	c0.1,0,0.3,0,0.4,0c5.6-1.3,7.8,5.8,9.3,9.7c4.9,12.8,6,28.1,8.8,42.9c5.2,27.6,3.9,61.1-5,83.7c-5.3,13.4-13.1,24.2-20,35.8
	c-4.2,7-8,20.6,3.2,23.1c6.3,1.4,12.5-2.8,16-4.8c14.1-8.3,20.2-21.1,28.2-35.6c5.9-10.6,10.1-23,17.3-32.4
	c5.2-6.9,15.1-11,18.3-19.6c3.3-8.9-0.3-21.3-2.3-29.2c-3.8-15.2-3.3-32.2-6.3-48.8c-3-16.7-5.5-30.8-16.4-39.3
	c-15.8-12.3-41.7-14.8-57.2-27.4c-8.8-7.1-11.2-17.9-13.5-31.8c-0.9-5.7-0.4-12.6,0.4-18.1c0.5-7.9,1-15.9,1.5-23.8
	c0.2-5.4,0.4-10.8,0.6-16.2c2.3-14.3,1.4-29.3,5-41.9c3.2-10.9,8.2-19.1,14.3-26.9c15.6-19.7,40.2-22.9,51.3-48.4
	C513.6,119,499.1,56.9,482.9,29c-4.1-7-8.2-14-12.8-20.4C467.7,5.7,465.3,2.9,462.9,0z M487.1,0c2.2-0.1,8-0.7,9.3,0.4
	c1.9,1.7,2.8,4.3,4.2,6.5c4.1,6.6,7.7,13.5,11.8,20.4c7.4,12.6,13.4,26.7,18.1,41.9c9.6,31,12,82.3-3.4,108.4
	c-5,8.5-12.2,16.4-20.4,21.7c-10.3,6.6-22.6,11.4-30.1,20.8c-12.7,16-18.4,43.1-17.7,71.5c-0.2,6.5-0.4,13-0.6,19.6
	c0.7,13.7,1.8,24.3,8,32.2c6.8,8.7,19.9,10.5,30.7,15.1c13.9,5.9,25.9,14,33.2,26.5c10.7,18.1,7.8,47.6,12.8,72
	c2.7,12.8,5.8,24.2,10.3,34.9c3,7.1,8.1,16.8,5.9,26.7c-4.3,19.6-23.8,25.2-34.1,39.1c-9.7,13.1-14.7,30.9-24.2,44.4
	c-16.9,24-44.7,38.4-78.7,45.4c-14.3,3-32.4,1.8-38.5-8c-2.6-4.2-3-8.8-4-14.7c-0.7-4.6-0.7-10.8,0.2-15.8c1-4.4,2-8.8,2.9-13.3
	c6.2-19,21.1-29.1,31.1-44.2c13.2-19.7,24.3-52.4,18.7-86.5c-0.4-5.1-0.8-10.2-1.3-15.4c-4.4-23.1-10.5-44-25.7-56.2
	c-3.5-2.8-7-5.6-10.5-8.4c-10.3-7.3-22.3-12.1-27.1-24.8c-4.6-12,0.8-27.9,3.6-37.9c1.5-6.7,2.9-13.5,4.4-20.2
	c6-28.7,2.8-64.7-8.6-85c-3-4.9-6-9.8-9-14.7c-3.8-5.4-8.7-10.2-11.8-16.2c-5.1-10.1-2.5-21.2,9.9-22.3c-6,7.3-6.5,15.5-1.3,24.4
	c3.6,6.1,8.4,11.5,12.4,17.3c6.3,8.9,11.2,19.4,14.7,30.9c6.5,21.2,5.7,53.6,0.8,76.2c-2.4,11.1-7.5,29-4,41.5
	c4.6,16.3,22.5,26.9,34.3,36.4c13.8,11.1,19.9,31.7,24.4,52.2c8.1,36.9,3.6,79.2-11.4,104.2c-9.5,15.9-24.1,27.4-31.4,45.2
	c-10.7,26.4-1.5,47.3,30.3,40.6c31.2-6.6,55.5-21.2,70.1-44.4c7.4-11.7,11.7-26.2,19.8-37.2c9.6-13.1,27.7-17.5,31.8-36
	c2.4-10.8-2.6-20.8-5.3-28.4c-3.4-9.5-5.5-19.5-7.6-30.3c-4.3-22.3-1.4-49.5-11.2-66.1c-7.3-12.5-19.8-20.8-34.3-26.1
	c-11.1-4-21.2-6.7-29.2-13.5c-7.8-6.6-8.5-17-10.5-29.7c0.1-5.7,0.3-11.4,0.4-17c0.2-4.1,0.4-8.1,0.6-12.2
	c0.4-8.2,0.8-16.4,1.3-24.6c-0.5-21.1,9.6-46.8,21-56c18.8-15.2,38.8-19.3,49.4-43.6c18.8-43.1,1.7-107.1-16.6-138.4
	c-3.9-6.7-7.9-13.3-11.8-20C491.4,6.3,489.3,3.1,487.1,0z M512.8,0c4.2,0,8.4,0,12.6,0c6.6,14.2,15.3,27.1,21.7,42.1
	c10.5,24.8,14.8,54,14.7,89.4c-0.6,7.2-1.1,14.4-1.7,21.7c-2.2,11.5-4.5,22.2-9,31.4c-9.2,18.7-26.3,28-41.7,40.4
	c-12.8,10.3-19.2,27.9-23.1,47.1c-1.5,7.3-3.3,17.9-1.9,27.1c2.4,15.1,3.7,22.3,11.4,31.8c6.6,8.2,17.1,12,26.5,17.5
	c13.4,7.8,25.1,15.8,31.6,30.5c3.6,8.2,5,17.4,6.7,27.8c0.4,5.3,0.7,10.7,1.1,16c0.3,6.7,0.6,13.5,0.8,20.2c2.3,14.6,3.4,28,8,39.8
	c4.6,11.6,18,26.8,13.3,43.8c-2.9,10.4-11.7,15.7-19.4,21.5c-8.3,6.2-16.2,13.9-22.3,22.3c-12.3,16.9-19.7,38.8-28.6,59.1
	c-6.7,15.2-15.8,28.7-26.3,40.2c-12.6,13.8-28.9,23.6-49.2,29.7c-7.7,2.3-16,2.8-24.6,4.2c-18.6,3-44.3-1-54.5-8.2
	c-13.9-9.8-15.2-24.8-14.7-46.5c0.5-9.7,1-19.4,1.5-29c0.6,3.8,1.3,7.6,1.9,11.4c0.2,5.3,0.4,10.7,0.6,16c2.4,15,2.2,25.1,9.7,34.7
	c16.5,21.2,77.8,11,97-0.2c21.4-12.5,35.1-29.8,47.6-51.1c11.2-19.2,17.5-42.4,30.1-60.2c5.2-7.3,11.6-14.8,18.5-20.4
	c8.1-6.5,17.5-12.7,21.3-23.6c5.6-16.5-5.5-30.4-9.7-42.3c-4.9-13.7-5.9-28.9-8.6-45.7c-0.2-4.5-0.4-9-0.6-13.5
	c-1.3-10.4-1.2-20.1-3.6-29.5c-2.9-11.3-8-19.6-14.3-27.4c-12.6-15.4-39.8-18.7-52-33.9c-5.7-7.1-8.1-15.3-10.1-26.5
	c-1-5.4-1.3-13.1-0.4-18.7c0.4-5.8,0.7-11.6,1.1-17.5c3.9-21.6,9.7-40.2,23.8-51.6c16.6-13.3,35.7-22.3,45.2-42.7
	c4-8.7,6.1-18.5,8.2-29.2c1.6-7.9,1.3-16.7,1.3-25.7c0-37.5-7.8-67.4-21.7-91.3C524.7,20.6,518.7,10.3,512.8,0z M973.8,754.1
	c-2.5,0-4.9,0-7.4,0c0-16.7-1.1-34.2,1.5-50.1c1.5-8.9,2.9-21.1-0.8-28.4c-6.9-13.4-29.6-13.1-46.5-16.6
	c-24.8-5.2-46.1-11.2-63.5-23.6c-15.3-10.8-26.7-25.7-33.5-45c-3.4-9.8-4-20.5-6.3-31.8c-5-23.8-13.2-39.1-35.1-45.9
	c-11.6-3.6-28.6-4.8-41.9-4.4c-5.3,0.1-10.5,0.3-15.8,0.4c-6.7,0.4-13.5,0.8-20.2,1.3c-11.6,0.8-23.1,1.5-34.7,2.3
	c-15.1,2.4-39,2-51.6-1.9c-13.7-4.3-23.2-13.2-29.9-24.4c-5.3-8.8-7.9-19.3-10.5-30.9c-0.8-7.1-1.5-14.2-2.3-21.3
	c-0.2-5.8-0.4-11.6-0.6-17.5c-2.2-14.1-1.4-27.4-5.9-38.5c-5.6-13.9-15.4-24.4-27.4-32c-18.8-11.8-33.4-16.6-39.1-42.1
	c-1-4.6-2.2-11.6-1.3-17.5c0.8-5.5,1.5-11.1,2.3-16.6c3.2-12.7,8.6-23.2,15.6-32.2c7.4-9.6,17.9-16.8,27.4-24.4
	c6.1-4.9,11.3-12.3,15.4-19.1c5.9-9.9,8.4-21.2,11.2-34.5c1.4-7.1,1.3-15.2,2.5-22.9c0-2.5,0-5.1,0-7.6c0-4,0-8,0-12
	c-0.1-4.6-0.3-9.3-0.4-13.9c-1.8-11.2-1.9-22.3-4.4-32.6C563.6,43.2,553.7,22,542,0.2c0-0.1,0-0.1,0-0.2c3.5,0,7,0,10.5,0
	c2.5,5,4.9,10.1,7.4,15.1c3.8,8.7,7.7,17.3,10.9,26.5c12.6,35.6,21.3,103.6,6.5,143.9c-4,10.8-10,20-16.6,28.2
	c-9.4,11.7-22.9,19.6-31.8,32c-6.2,8.6-11.1,18-13.9,30.1c-0.5,4.7-1,9.4-1.5,14.1c-1.9,12.1,5.4,25.7,10.7,32.4
	c6,7.6,14.6,12.2,22.9,17.5c13.4,8.4,24.1,19,30.3,34.7c3.3,8.4,3.8,18.3,5.5,28.6c0.2,4.3,0.4,8.6,0.6,12.8c0.5,6,1,11.9,1.5,17.9
	c3,17.5,5.2,33.5,13.5,45.4c11.1,16,29.2,22.1,56.4,22.1c6-0.1,12.1-0.3,18.1-0.4c10.4-0.7,20.8-1.4,31.1-2.1
	c7.6-0.5,15.3-1,22.9-1.5c17.6-2.7,45.1-0.8,59.1,3.6c18.8,5.9,30.4,20.3,35.8,39.6c3.5,12.5,3.8,27.2,7.6,39.1
	c7.4,23.5,20.9,40.7,40,52.4c12.4,7.6,27.1,12.1,43.8,15.6c8.1,1,16.1,2,24.2,2.9c17.7,3,37.7,0.7,45,13.9
	c4.6,8.3-0.3,21.4-2.3,28.6C975.2,711.1,973.3,731.6,973.8,754.1z M996.3,754.1c-3.2,0-6.5,0-9.7,0c-1.7-28.5,5.1-49.3,13.5-68.4
	c3.3-7.5,12-23.2,6.5-33.7c-6.2-11.9-26.2-9-42.1-11.6c-8.4-0.6-16.8-1.3-25.2-1.9c-21.3-3.5-40.8-5.5-56.2-14.5
	c-17.9-10.5-31.2-25-39.1-45.4c-4.8-12.3-5.3-27.8-9-41.2c-6.6-23.9-19.8-43.4-41.5-52.2c-20.1-8.1-60.8-5.9-84.6-1.9
	c-10.9,0.9-21.7,1.8-32.6,2.7c-5.4,0.1-10.8,0.3-16.2,0.4c-22.4,0.7-39.8-5.4-48.6-19.6c-9.2-14.9-11.4-34.3-14.9-55.1
	c-0.4-5.7-0.8-11.4-1.3-17c-1.9-11.1-3.1-21-6.9-29.9c-4.9-11.4-13.2-20.4-22.7-27.4c-11.7-8.5-24.3-14.6-31.1-28
	c-2.9-5.6-3.8-12.1-5-19.6c-2.4-14.7,6.2-28.8,11.4-36.6c6.6-9.9,15.2-16.8,23.4-25c11.1-11.1,20.3-24,26.5-40
	c14.5-37.3,7.2-111.3-5.9-145c-3.7-9.5-7.5-18.6-11.6-27.6c-2.7-5.3-5.3-10.5-8-15.8c3.6,0,7.2,0,10.7,0c1.7,3.7,3.4,7.4,5,11.2
	c4.1,10.4,8.1,20.8,12.2,31.1c11.5,36.2,19.9,102.7,6.5,143.9c-5.7,17.6-15.4,29.7-25.7,42.5c-6,7.4-13.8,13.3-19.8,20.8
	c-6.1,7.8-17.8,23.6-15.1,39.3c4.5,26.9,18.5,31.6,36.2,44.6c8.9,6.6,17,15.8,21.7,26.5c3.7,8.5,5.3,17.8,7.2,28.4
	c0.7,8.3,1.4,16.6,2.1,24.8c3,16.2,6.4,30.8,14.1,42.3c8.8,13.2,23.1,18.5,45.2,18.5c5-0.1,10-0.3,14.9-0.4
	c9.2-0.8,18.4-1.7,27.6-2.5c25.5-4.4,67-7,88.6,1.9c25.7,10.5,40.1,34.4,48.4,62.5c4.1,13.9,4.2,30.2,9.5,42.5
	c7.1,16.6,18.3,28.3,33.2,37c20.3,11.9,49.8,15.2,81.8,15.1c21.1,0,46.6-2.1,52.8,12.8c5.6,13.6-4.1,32.2-8.6,41
	c-6.9,13.4-12.9,26.6-16.4,43.3C995.6,735.6,996.3,745,996.3,754.1z M587.2,0c1.5-0.1,3.3,0,4.2,0.4c3.1,5,6.2,10,9.3,14.9
	c7.7,14,14.2,27,29.5,33.5c31.7,13.4,75.4,12.4,86.5,46.5c4.5,14,4.5,35,1.5,50.5c-5.1,26-10.5,49-16.6,73.2
	c-4.7,18.4-8.7,45.7-3.8,66.9c2.9,12.8,7,23.9,11.6,34.7c4.5,10.7,8.7,20.9,15.4,29.5c17.9,23.1,54.8,18.9,87.3,26.9
	c37,9.2,64.3,22.7,78.3,54.7c3.8,8.7,7.5,18.9,8.6,30.1c-0.1,0-0.1,0-0.2,0c-1.3-6.7-5.1-14.1-8-19.8c-15.6-31.1-42.5-47.5-80-56.8
	c-34.6-8.7-73.5-3-92.4-28c-7.4-9.8-12-22.4-16.8-34.7c-5.7-14.5-10.6-29-13.9-46.5c-3.3-17.7,0.7-37.8,4.2-52.6
	c6.1-25.4,13.1-49,18.3-76.2c2.6-13.5,3.3-32.5-0.8-44.8C699.5,73,671.5,72.8,641.7,64c-8.3-2.5-16.6-3.8-23.4-7.8
	C601.3,46.1,596.2,18.4,587.2,0z M604.1,0c3.8,0,7.6,0,11.4,0c2,2.1,3.9,4.2,5.9,6.3c11.1,11.1,24.5,17.4,40.4,24
	c31.3,12.9,63.9,22.9,74.5,56.6c5.1,16,5,39.8,1.7,57.9c-5.6,30-10.6,56.3-16.4,86.1c-3.4,17.6-3.7,41.9,1.3,57.9
	c3.4,11,8.2,20.9,14.5,29c12,15.4,29.7,25.6,50.5,32.2c40.7,12.8,90.3,14.3,113.6,44.4c6.8,8.8,9.3,19,11.8,32.4
	c1.4,7.6,2,19.1,0.6,27.4c-0.5,7.5-1,15-1.5,22.5c0,4.2,0,8.4,0,12.6c-1.7-42.3,0.1-78.3-25.2-98.5c-27.3-21.8-65-22.7-102-34.3
	c-21.9-6.8-40.5-16.5-52.8-32.8c-8.4-11.1-14.4-24.6-18.3-40.2c-5.7-22.5-1.2-50.3,3.2-70.5c3.4-16.1,6.7-32.3,10.1-48.4
	c4.9-21.8,9.5-54.3,1.7-76.4c-15.9-45.3-84-41.3-113.2-74.3C611.9,9.6,606.6,5.3,604.1,0z M642.6,0c8,0,16,0,24,0
	c4.3,2.3,8.6,4.6,12.8,6.9c6.5,3.2,12.9,6.3,19.4,9.5c26.8,15.4,47.5,28.3,57.4,60.8c4.7,15.2,5.7,38.9,2.5,56.8
	c-1.1,7.7-2.1,15.4-3.2,23.1c-3.6,19.3-7.3,38.6-10.9,57.9c-5.8,28.8-2.3,61.5,9.7,80.6c12,19.1,31.5,28.9,56.4,35.1
	c12.6,3.2,26.3,2.8,40.2,5.3c33.3,5.8,67.6,6.4,91.7,21c11.4,6.9,20.1,16.6,24.4,30.5c6.5,21.2,3.2,49.5,9.5,70.5
	c2.2,7.3,5.5,13.1,9.7,18.3c2.7,2.7,5.3,5.3,8,8c0,0.1,0,0.1,0,0.2c-0.1,0-0.3,0-0.4,0c-10.1,5.3-21.4-9.4-23.8-14.9
	c-7.6-17.3-2.9-44.2-7.4-65.9c-3.1-15.2-7.9-26.2-18.3-33.9c-21.5-15.8-51.5-16.7-83.5-22.3c-9.4-1-18.8-2-28.2-2.9
	c-33.6-6.2-63-12.4-80.4-34.5c-6.2-7.9-11.4-17-14.7-27.8c-5.4-17.1-4.7-42.7-1.1-61.2c5.4-27.1,9.4-51.8,14.3-79.5
	c3.1-17.2,3.9-37.8-0.2-54.3c-9.5-37.8-38.4-53.7-71.1-68.2c-10.2-4.5-20.2-9.3-29.5-14.7C647.6,3,644.3,2,642.6,0z M700.7,0
	c7.6,0,15.3,0,22.9,0c2.2,1.5,4.3,2.9,6.5,4.4c7.9,5.3,14.9,10.9,21.5,17.5c12.5,12.7,21.9,28.2,27.6,47.8
	c9.3,31.7,1.6,75.8-4.8,105.4c-6.8,31.2-15.1,77.2,1.1,103.9c12.8,21.1,31.6,25,60,30.5c10.3,1.1,20.6,2.2,30.9,3.4
	c31.4,5.7,61.9,9.7,86.3,22.1c13.7,7,24.9,17.1,30.9,31.8c8.1,19.7,6.2,50.6,12.8,71.3c4.1,12.9,10.9,23.4,18.1,33.2
	c2.4,3.2,8.5,8.2,7.2,13.3c-9,3.5-20.3-12.6-24.2-18.5c-10.4-15.6-11.2-30.5-14.9-52.8c-2-11.8-1.5-23.6-4.4-33.9
	c-2.7-9.5-7.4-16.8-13-23.4c-16.1-18.8-51.7-24.5-81-30.3c-9.2-1.2-18.4-2.4-27.6-3.6c-17.2-3-34.6-2.5-49.4-7.2
	c-17.2-5.4-29.9-14.3-39.1-27.6c-11.2-16.1-15.1-45.9-10.1-72c5-26,8.4-51.2,13.3-77.6c2.7-14.5,4.6-34.9,1.7-50.7
	c-6-32.9-20.1-54.2-42.7-70.3c-6-3.6-11.9-7.3-17.9-10.9C708.2,3.9,704.4,2,700.7,0z M748.2,0c4.7,0,9.4,0,14.1,0
	c2.4,2.3,4.8,4.6,7.2,6.9c4.6,5.4,9.4,11,13.3,17c13.7,21.8,17.8,44.6,19.4,76.2c0.8,17.3-2.3,36.5-5.3,51.3
	c-2.8,17.5-5.6,35.1-8.4,52.6c-3.6,20.6-1.8,46.6,6.3,60c15.7,26.1,44.2,23.9,78.1,30.9c30.7,6.4,59.5,12.5,85,23.6
	c21.5,9.3,38,24.3,45.2,48c5.1,16.8,4.4,38.5,9.5,54.7c7.9,25.1,22.3,47,41.5,61c12.6,9.2,29,13.5,42.9,21.7
	c9.5,5.6,17.4,12.5,23.8,21.3c4.8,6.5,10.6,10.5,10.5,21.9c-2.7-4-5.3-8-8-12c-5.9-8.1-13.3-15.9-21.5-21.7
	c-13-9.3-30.2-13.9-44.2-22.3c-16.5-9.9-30.1-25-40-41.5c-6.5-10.8-11.1-23.3-14.3-37.5c-3.4-15.3-2.8-33.4-7.6-47.1
	c-5.2-14.8-15-25.2-26.7-33.5c-25.6-18-62.7-24-98.7-31.6c-36.4-7.6-65.5-4.2-82.5-32.4c-8.5-14.1-10.4-39.4-6.3-60.2
	c3.8-23.4,7.6-46.7,11.4-70.1c1.4-7.4,1-15.3,2.3-23.6c0.8-5,1.6-12.6,0.6-18.3c-2.1-13.2-2.4-25.5-5.9-36.6
	c-6.1-19.5-18.2-39.9-32.4-51.3C754.4,5,751.3,2.5,748.2,0z M1131.1,449c0,3.8,0,7.6,0,11.4c-6,0.6-11.9,1.3-17.9,1.9
	c-17.8,2.9-34-6-42.7-12.8c-13.7-10.8-22.3-28-26.9-47.8c-4.8-20.1-4.3-43.3-11.2-61c-9-23.1-26-37.6-48.2-47.3
	c-21.8-9.6-44.9-16.3-71.1-22.3c-6.5-1-13-2-19.6-2.9c-9.6-1.4-19.2-2.8-28.8-4.2c-27.8-6.1-44.9-13.7-54.7-37.7
	c-9-22-5.8-55.3-0.8-79.7c1.3-9.5,2.5-18.9,3.8-28.4c1.3-7.5,0.4-15.7,1.7-24c0.1-3.4,0.1-6.7,0.2-10.1c-1.9-11.5-1.3-22.3-3.8-32.4
	c-5.5-22-13.6-36-25.2-51.3c0-0.1,0-0.1,0-0.2c3.9-0.1,10.8-1,13.9,0.4c1.5,2.3,3.1,4.6,4.6,6.9c3.4,5.6,6.5,11.8,9,18.1
	c6.9,17.2,8.8,39.2,9.3,61.9c1,48.2-24.8,109.6,3.4,145.6c18.7,23.9,60.3,20.9,95.5,28.6c34.5,7.6,63.5,18.5,88.4,35.3
	c6,4.1,12.1,8.5,16.6,14.1c7.8,9.7,13.2,20.7,17,34.5c3.5,12.6,3.8,26.6,6.5,40.2c5.4,27,14,50.3,36.2,60.2
	C1099.7,451.8,1114.5,450.2,1131.1,449z M1131.1,430.1c0,2.7,0,5.3,0,8c-11.2,0.6-22.7,1.1-31.6-2.5
	c-41.7-16.9-32.5-73.2-50.1-113.2c-11.5-26.2-35.2-38.5-59.1-52.4c-7.7-4.5-15.8-9.2-24.2-12.8c-10.6-4.7-22.2-7.5-35.1-10.1
	c-7-0.8-14-1.7-21-2.5c-18.8-3.1-37.6-1.4-52.8-7.6c-13.1-5.3-22-15.4-27.4-28.4c-10.2-25.1-2.5-62.7,2.3-88.6
	c7.6-41.2,3.5-91.6-11.8-119.9c4.1,0,8.1,0,12.2,0c2.1,6.6,5.2,13.5,7.2,20.8c6.4,23.7,6.2,59,1.5,84.6c-1.6,9.7-3.2,19.4-4.8,29
	c-4.6,21.2-9,51.1-0.6,71.5c5.6,13.7,15.9,23.6,30.7,28.2c12.7,3.9,27.1,2.5,42.1,4.8c4.8,0.2,9.7,0.4,14.5,0.6
	c5.7,0.6,11.4,1.3,17,1.9c10.8,2.2,20.4,4.7,29.2,8.6c11.5,5.1,22.6,11.9,33,18.3c21.8,13.3,42.9,24.9,53.7,49.2
	C1075.6,362.2,1063.2,434.7,1131.1,430.1z M1131.1,416.8c-54-0.1-46.8-76.3-67.3-111.5c-14-24-32.2-34.1-55.3-48.6
	c-12.7-8-24.7-16.8-37.9-24.4c-9.7-5.5-30.9-10.9-47.3-8.2c-2.8,0-5.6,0-8.4,0c-10.1,1.6-23.8,1.4-33-0.6
	c-16.3-3.5-27.5-11.5-33.2-25.5c-8.4-20.5-2.6-50.4,1.9-71.1c1.2-8,2.4-16,3.6-24c4.3-23.2,6-53.3,1.7-77c-1.7-9.3-2.3-18-5.3-25.9
	c2.2,0,4.5,0,6.7,0c8.2,32.5,10.1,78.3,3.2,114.7c-3.9,20.5-11.1,57.2-2.7,76.6c4.9,11.4,14.7,17.6,28.2,20.4
	c7.3,1.5,19.5,2,27.6,0.6c3.9,0,7.7,0,11.6,0c18.1,0.6,34.6,0.4,46.5,7.4c12.4,7.3,22.1,17.7,33.7,25.9
	c11.4,7.1,22.9,14.2,34.3,21.3c12.5,8.7,22,19,29.9,32.4c7.4,12.6,11.8,28.6,16.2,43.8c5.3,18.5,8.7,37.3,20.4,49.2
	c4.4,4.5,10.4,8,17.3,9.9c2.7,0.4,5.3,0.8,8,1.3C1131.1,407.8,1131.1,412.3,1131.1,416.8z M875.7,0c1.2,0.1,2.4,0.1,3.6,0.2
	c0.7,3.6,1.4,7.2,2.1,10.7c0.6,5.6,1.1,11.2,1.7,16.8c1.3,7.8,0.7,23.7-0.4,30.9c-0.3,4.8-0.6,9.5-0.8,14.3
	c-1.7,13.5-3.4,26.9-5,40.4c-3.3,17.2-9.8,48.2-2.5,64.8c5.2,11.8,21.3,15.7,38.9,12.8c25.5-4.1,58.8-5.8,77.2,5.3
	c13.6,8.1,21.1,21.8,33.2,31.4c14,11,30.3,19.8,44.2,30.9c7,5.6,12,13.9,16.6,21.9c16.7,28.6,14.6,82.8,46.7,95.1
	c0,3.9,0,7.9,0,11.8c-6-2-10.4-3.7-14.7-7.2c-8.3-6.6-11.8-18-16-28.8c-8.1-20.8-11.6-45.4-22.3-63.8
	c-15.1-25.9-37.4-35.2-60.4-52.6c-12-9.1-20.1-22.2-33.2-30.1c-7.9-4.8-16.9-6.3-28-8.2c-6.5-1.1-15.5-0.3-21.3,0.6
	c-4.8,0.4-9.7,0.7-14.5,1.1c-21.9,3.5-43.9,0.2-50.7-15.6c-6.5-15-0.5-43.5,2.9-59.1c3.6-16.5,3.2-33.4,6.1-51.1
	c1.2-7.3,1.9-17.2,1.3-24.2c0-4.6,0-9.1,0-13.7C878.5,23.1,879.3,10.5,875.7,0z M908.7,0c0.6,5.3,1.1,10.5,1.7,15.8
	c0.1,3.6,0.3,7.3,0.4,10.9c-0.1,2.2-0.1,4.3-0.2,6.5c-0.9,8.3,0,16.2-1.3,23.8c-0.6,6.4-1.1,12.8-1.7,19.1
	c-2.6,14.5-4,29.1-7.4,42.5c-2.5,9.9-10.2,36.6-4.4,45.7c3.6,5.7,13.1,7.1,22.3,5.5c14.2-2.6,32.7-6.3,49.2-3.4
	c26.5,4.7,52.9,9.1,76.8,16.6c5.7,1.8,21.3,7,19.6,14.7c-1.2,5.6-9.7,5.3-14.5,3.2c-11.4-5.1-20.7-14.4-33.9-18.1
	c0.1,0.2,0.3,0.4,0.4,0.6c13.7,4.7,12.4,29,32.2,33.5c12.5,2.8,24.7-9.3,22.5-21.9c-1.2-6.9-4.6-11.5-8.2-16
	c-10.5-13-32-13.5-51.8-17.5c-23.9-4.7-50-10.2-61.4-27.4C941,122,943,100.7,946,84.2c4.9-27.4,3.9-56.5,1.3-84.2c2.4,0,4.8,0,7.2,0
	c0.1,17,4.1,37.2,1.3,54.7c-0.6,7.8-1.3,15.6-1.9,23.4c-4.8,27.3-5.3,49.4,13.3,62.5c10.5,7.4,25.4,10.9,39.8,13.9
	c24.4,5,50.4,4.1,63.3,20.2c9.8,12.3,13.4,32.9-0.6,44c-2.8,2.2-6,4-10.1,4.8c-1.6,0.1-3.2,0.3-4.8,0.4c0,0.1,0,0.1,0,0.2
	c5,1.1,12.3,6.9,16.4,9.7c14.4,9.5,24.8,21.2,31.6,38.3c7.5,18.8,9.1,42.5,17,61.2c3.1,7.4,7.1,11.2,11.6,16.8
	c-0.1,3.6-0.1,7.2-0.2,10.7c-21.6-12.8-23.9-65.8-37-89.6c-5.9-10.7-13-20.2-22.7-27.1c-11.2-7.9-24.9-12.9-35.6-21.3
	c-13.5-10.6-20.7-27.5-35.6-36.8c-20-12.5-54.6-11.6-81.8-6.5c-13.6,2.5-28.1,2-32.6-9c-5.2-12.7,2.3-34.9,4.8-46.7
	c2.2-14.3,4.5-28.6,6.7-42.9c0.6-6.2,1.1-12.5,1.7-18.7c0.6-8.3,1.1-16.7,1.7-25c-0.8-12.8,1.2-25.8-2.1-37C901.9,0,905.3,0,908.7,0
	z M933.8,0c0.2,10.7,2.6,22.3,2.1,33.5c0,5.5,0,11.1,0,16.6c-0.1,4.1-0.1,8.3-0.2,12.4c-2.3,15.5-2.3,32.1-5,47.1
	c-1.5,8-2.4,18.8,0.6,25.7c3.3,7.5,13.5,13.3,21.9,15.6c-0.1,0.1-0.3,0.3-0.4,0.4c-6.9-1.8-22.2,3.1-27.8,4.6c-3.7,1-9.2,2.5-12.6,0
	c-6.5-4.8,3.2-27.3,5.3-33.9c4.2-13.6,5.7-28.9,8.4-44.6c0.4-6.7,0.8-13.3,1.3-20c1.6-9.9,1.3-21.7,0.2-31.8
	c-0.9-8.4-0.5-17.7-2.1-25.7C928.2,0,931,0,933.8,0z M966.4,0c2.5,0,4.9,0,7.4,0c0.6,14.7,1.1,29.3,1.7,44
	c0.1,35.6-4.7,64.2,18.7,78.1c17.1,10.1,43.5,8,66.1,13.3c10.9,2.5,19.5,6.3,26.9,12.2c25.8,20.6,23,74.7,32.4,112.4
	c2,7.9,3.9,16.1,6.7,23.4c1.3,3.2,3.9,6.5,4.8,9.5c0,4.7,0,9.4,0,14.1c-9-7-11.8-23-15.6-35.1c-6.6-21.5-9.6-46-16-67.5
	c-3.6-12.2-5.8-23.9-11.6-33.7c-5.8-9.8-13.9-17-25.5-21c-9.2-3.2-19.7-3.3-30.5-5.3c-19.2-3.5-37.6-5.2-50.7-14.5
	c-15.6-11-18.6-34.5-14.5-59.8c0.4-7.6,0.7-15.3,1.1-22.9C969.3,31.6,966.6,15.7,966.4,0z M986.6,0c3.2,0,6.5,0,9.7,0
	c1.9,34.6-1.7,81.1,19.4,96.6c17,12.5,44.1,8.1,68.2,13.7c25.7,6,40.9,20.8,47.3,45.9c0,15.1,0,30.3,0,45.4c-0.1,15-0.1,30-0.2,45
	c-5.1-37.7-3.7-95.7-27.1-114.3c-9.2-7.3-20.4-10.5-34.7-13c-5.6-0.4-11.2-0.7-16.8-1.1c-15.7-2.4-29.1-1.4-40.8-7.4
	c-14.2-7.2-18.3-20.2-21.5-38.7c-0.4-5.2-0.7-10.4-1.1-15.6c-0.1-6.7-0.3-13.3-0.4-20C987.9,24.4,987.2,12.2,986.6,0z M1016.9,0
	c0.7,32,4.8,61.4,23.4,75.7c16.5,12.8,41.2,11.2,64.2,17.5c6.4,1.7,12.7,3.9,17.9,6.9c2.9,2,5.9,4.1,8.8,6.1
	c-0.1,4.6-0.1,9.1-0.2,13.7c-0.1-0.1-0.1-0.3-0.2-0.4c-2.2-2.2-4.3-4.3-6.5-6.5c-5.1-4.1-11.1-7.7-17.7-10.3
	c-13-5.1-28.6-5.3-44-8.6c-19.8-4.3-36.2-12.4-43.6-29c-4.9-11.2-5.4-21.9-7.8-36.4c-1.3-7.8-2.6-20.7-1.7-28.6
	C1012,0,1014.4,0,1016.9,0z M1031.2,0c3.6,0,7.2,0,10.7,0c-0.5,35.3,13.6,58.1,40.4,66.3c13.7,4.2,31.8,3.6,48.8,3.6
	c0,3.2,0,6.5,0,9.7C1064.6,80.2,1031,66.9,1031.2,0z M1056.9,0c1.5,0,3.1,0,4.6,0c0.8,7.7,4,15.5,7.2,21.3
	c11.8,21.8,30.3,26.6,62.5,26.5c0,3.5,0,7,0,10.5c-35.3,0.4-57.2-5.9-67.8-30.1C1060,20.4,1057.1,11,1056.9,0z M1131.1,0
	c0,4.1,0,8.1,0,12.2c-21.4,1-47.6,2.2-56-12.2C1093.8,0,1112.5,0,1131.1,0z M1131.1,27.1c0,2.9,0,5.9,0,8.8
	c-17.9,0.3-39.4-3.2-45.7-14.5c0-0.1,0-0.1,0-0.2c0.1,0,0.1,0,0.2,0c3.7,1.5,7.4,2.9,11.2,4.4c5.1,1.4,10.8,1.2,16.6,2.1
	C1119.4,27.6,1125.3,27.3,1131.1,27.1z M432.4,50.5c1.6,2.2,1.9,5.6,2.7,8.6c4.5,16.9-3.9,29.7-11.2,38.7
	c-9.9,12.3-22.7,15.6-42.1,18.7c-5.3,0.1-10.7,0.3-16,0.4c-10,1.6-20.4,0.6-29.9,2.3c-19.3,3.6-35.5,9.3-45.4,22.1
	c-2.2,2.9-4.2,6.4-5.7,9.9c-3,7.4-2.4,18.2,1.3,24.4c3.8,6.4,9.7,11.6,15.4,16.2c7,5.7,14.1,13.5,19.6,20.6
	c6.6,8.6,12.5,18.5,16,30.1c13.9,45.9-7.1,89-35.6,106.5c-33.4,20.5-113.8,17.2-143.7-4.2c-16-11.5-21.2-33.6-40.4-41.9
	c-9.6-4.2-26.2-7-40.6-4.8c-13.2,2-31.5,2.7-43.1-0.8C13.3,291,5.4,270.5,0,249.1c0-16.2,0-32.4,0-48.6c0.1-14.2,0.1-28.3,0.2-42.5
	c0.9,4.9,1.8,9.8,2.7,14.7c0.6,5.7,1.1,11.4,1.7,17c0.4,7.6,0.8,15.3,1.3,22.9c0.6,6.6,1.1,13.2,1.7,19.8c2.5,14.3,4.8,26.9,11.2,37
	c5.9,9.3,14.5,15.7,26.9,18.5c8.7,1.9,21.9,2.6,31.8,1.1c2.9,0,5.9,0,8.8,0c11.4,0,21.2,0.9,29.9,3.6c26.6,8.4,27.1,30.3,45.7,44
	c6.5,4.8,14.4,8.7,22.9,11.4c24,7.4,74.2,9,98.3,0.6c9.3-3.3,17.7-7.8,24.4-13.7c19-16.5,32.2-53.6,22.5-88.8
	c-3.7-13.3-10.1-24.4-18.1-33.5c-13.5-15.4-45.3-30.6-34.9-62.7c1.4-4.2,3.6-8.2,5.9-11.6c10.5-15.5,29.1-21.9,50.9-26.3
	c6.5-0.7,13-1.4,19.6-2.1c14.9-2.4,30.9,0.1,43.3-3.8c18.4-5.8,31.8-20.1,35.8-40.4C433.3,61.1,432.6,54.6,432.4,50.5z
	 M1016.9,754.1c-2.5,0-5.1,0-7.6,0c-0.7-37.3,11.9-58.2,28-78.3c9.6-12,30.3-28.7,23.1-52c-5.1-16.5-20.1-24.7-38.1-28.4
	c-4.5-0.4-9-0.7-13.5-1.1c-4.9-0.1-9.8-0.1-14.7-0.2c-9.2,0.4-18.4,0.7-27.6,1.1c-3.6,0.1-7.2,0.1-10.7,0.2
	c-5.4-0.4-10.8-0.7-16.2-1.1c-10.8-1.9-20.6-3.7-29.5-7.4c-19.8-8.3-33.5-24-44-41.7c-6-10.1-10.5-21.7-15.4-32.8
	c-9.8-22.3-25.4-44.4-47.8-54.3c-29.9-13.2-76.6-8.1-111.3-2.1c-32.9,5.7-55.1-2.9-64.8-24.8c-3.1-7-5.5-14.6-7.4-22.7
	c-0.9-7.3-1.8-14.6-2.7-21.9c-2.5-14-4.4-26.6-10.3-37c-4.9-8.8-11.2-17.2-18.9-23.1c-13.3-10.2-37.9-21.5-32.2-48.4
	c3.9-18.6,15.9-27.6,25.9-40c11-13.7,22.7-26.5,28.8-45.2c3.1-9.7,4.8-20.1,6.7-31.1c0.4-5.2,0.7-10.4,1.1-15.6
	c0.8-5.2,1.1-13.2,0.2-18.7c-1.3-8.5-4.3-37.4-0.4-43.3c3-4.6,10.7-5.4,17.9-4c14.1,2.8,27.7,5.6,39.1,11.2
	c9.3,4.5,18.1,10.8,21.9,20.8c7.4,19.7-0.2,51.4-5.5,68.6c-5.7,18.7-11.5,36.6-17.3,54.9c-3,9.4-7.9,24.8-5.7,37.9
	c3.2,18.8,9.6,33.2,14.1,50.7c5.1,20.2,4.7,44.6,18.9,55.5c3.4,2.6,7.6,4.8,12.2,6.1c2.9,0.5,5.8,1,8.6,1.5c-7,0.5-15,1.1-20.8-1.1
	c-21.3-7.7-22.1-41.2-29-63.3c-2.4-7.7-5.3-15.2-8.4-22.3c-4.4-10.2-11.8-23.4-8.8-38.5c1.8-9.1,4.3-17,7.6-24.6
	c7-16.6,13.6-34.1,19.4-52.4c2.5-8.2,3.8-16.3,5.9-25c3.1-12.7,4.9-31.4-0.4-42.7c-5.3-11.2-17.8-17.4-30.5-21.3
	c-8-2.4-23.1-5.3-28,1.7c-5.7,8.1-2.5,27.3-2.5,39.8c0,21.9-2.5,40.6-8,57c-6.4,19.1-18.8,32.3-30.1,46.5
	c-8.9,11.3-19.8,20.7-22.9,37.9c-4,22.1,15.8,31.2,26.9,39.6c8.8,6.6,15.6,15.1,21.3,24.8c5.5,9.4,8.3,21.3,10.9,33.5
	c3.3,15.1,3.7,30.4,9.5,42.5c4.9,10.3,12.2,19.2,23.4,23.1c14.6,5.1,39.8,1.7,55.1-1.3c30.5-5.9,72.2-5.8,95.3,5.9
	c23.3,11.9,37.9,33.8,48.6,58.3c5,11.6,9.2,23.6,15.4,34.1c9.3,15.7,21,27.8,36.8,37c9.5,5.6,21.3,7.2,34.3,9.5
	c3.9,0.2,7.7,0.4,11.6,0.6c6.2,0.1,12.5,0.1,18.7,0.2c4.8-0.2,9.5-0.4,14.3-0.6c10.4-1.6,25.3-1.6,35.6,0.4
	c23.1,4.6,41.1,13.8,47.6,34.7c7.9,26-12.1,44.9-23.4,57.7C1030.2,698.2,1016.9,717.5,1016.9,754.1z M444.4,84.4
	c2.2,6.9-6.9,24.1-9.5,28c-8.4,12.6-19.5,21.4-37,25c-7.3,1.5-16.4,0.8-24.8,0.8c-27.5,0-52.8,0.1-65,15.8
	c-3.8,4.9-10.3,14.2-7.6,24.2c-4.7-2.3-8.9-11.6-6.5-19.4c2.9-9.4,10.1-16.3,18.1-20.6c12.4-6.7,38.1-10.2,56.6-8.8
	c9.5,0.7,23.2,0.6,31.8-1.7C422.8,121.7,436.9,105.3,444.4,84.4z M0,106.9c6.4,3.1,11.3,14.3,14.1,21.5
	c13.1,33.7-3.7,80.9,8.4,114.9c-0.1,0.1-0.3,0.1-0.4,0.2c-0.8-5.4-2.6-12.3-3.8-18.3c-0.5-6.2-1-12.3-1.5-18.5c0-4,0-8,0-12
	c0.6-13.4-0.1-28.4-2.5-40c-1.9-9.3-4.4-18.7-8.6-25.9c-1.6-2.7-4.5-5.6-5.7-8.2C0,116,0,111.4,0,106.9z M1041.9,754.1
	c-3.6,0-7.2,0-10.7,0c-0.9-47.1,29.2-61.2,46.1-90.1c13.4-22.8,11.3-48.2-3.8-67.1c-9.9-12.4-25.1-18.8-44-22.3
	c-10.1-1.9-30.8-2.1-41.5-0.4c-5.3,0.1-10.5,0.3-15.8,0.4c-6.1,0.1-12.2,0.1-18.3,0.2c-16-2.6-27.6-3.4-39.6-9.5
	c-31.7-16.1-38.6-44.6-53-77.4c-8.4-19-20.3-36.8-36-48.6c-21.6-16.2-59.9-22.4-96.8-15.8c-17.2,3.1-48,10-64.8,2.7
	c-25.2-10.8-22.2-49.9-31.8-76.4c-4.7-13-11.5-25-21.5-32.8c-10.5-8.2-23.2-14.1-27.4-28.6c-3.8-13.3,2.6-25.8,7.6-33.9
	c13-21.2,31.2-36.4,40.8-60.8c3.8-9.5,4.8-20.6,6.7-32c0.4-5.2,0.7-10.4,1.1-15.6c2.2-13.7-1.1-26.2,8.8-32.2c5-3,13.5-0.9,17.7,1.3
	c17,8.8,13.8,33.3,8.8,52.8c-6.3,24.6-14.9,46.9-26.5,66.3c-7.4,12.3-20.9,29.4-23.6,45c-1.8,10.6,17.7,19.4,22.7,25.7
	c11,13.7,15.2,34.6,20.6,53.9c2.6,9.2,4.3,18.6,9,25.7c8,12.1,23.5,15.3,43.1,11.6c34.7-6.6,75.7-4.8,104.4,6.5
	c28.8,11.3,47.3,33.2,59.5,61c12.2,27.8,15.3,55.7,40.4,71.1c8.3,5.1,18,7.4,29.5,9.5c4.2,0.2,8.4,0.4,12.6,0.6
	c3.8,0.1,7.6,0.1,11.4,0.2c5.1-0.1,10.2-0.3,15.4-0.4c6.8-1.1,16.7-1.3,23.8-0.2c7.8,1.2,15.5,1.1,22.7,2.7c16.3,3.6,29,9.9,40,18.7
	c21.5,17.2,38.2,58.2,26.7,96.6c-3.1,10.2-6.6,20-11.6,28.4c-4.2,7.2-9,14.4-12.2,22.5c-7.4,19-0.1,37.6,17.9,40.4
	c0,0.1,0,0.1,0,0.2c-8.6,0-17.1,0-25.7,0c-1.8-3.3-3.9-6.4-5-10.5c-6.1-22.8,15.4-50.7,23.4-64.4c20.6-35.3,11.3-84.8-15.6-106
	c-11.1-8.8-23.9-14.5-40.4-18.1c-5.4-0.6-10.8-1.3-16.2-1.9c-7,0-14,0-21,0c-5.4,0.2-10.8,0.4-16.2,0.6c-2.6,0-5.2,0-7.8,0
	c-18.9,2.9-44.1-2.9-54.9-9.3c-29.6-17.4-31.5-43.7-45.4-75.5c-12-27.2-30.2-48.3-58.1-59.8c-26.6-10.9-65.2-10.7-96.8-5
	c-21.4,3.9-41.2,2.6-50.7-10.9c-6.3-9.1-8-21.5-11.6-33.5c-4.3-14.4-8.4-29.1-15.8-40.6c-4.2-6.5-9.5-13-15.6-17.7
	c-7.5-5.7-16.4-9.5-18.3-20.8c-2.3-13.7,15.1-31.3,20.8-38.7c15.8-20.5,26-40.3,34.3-68.8c2.8-9.7,7.6-30,3.2-40.6
	c-1.7-4.1-6.8-9.2-12.2-5.5c-6.1,4.2-4,14.9-5.5,24c-2.9,18.2-4,34.3-10.1,48.6c-9.6,22.4-25.6,36.3-38.7,54.9
	c-5.4,7.6-12.7,19.9-8.4,33c4.3,13.3,17.3,18.5,27.1,26.3c9.4,7.5,15.7,20.4,20.4,32.4c9.3,23.7,8.8,59.5,32,69.2
	c12.6,5.3,32.7,2.7,46.7,0.2c6.8-0.8,13.6-1.7,20.4-2.5c6.2-0.3,12.5-0.6,18.7-0.8c5.9-0.9,13.9-0.3,19.4,0.6
	c22.9,3.8,37.6,6.7,53,17.9c17.4,12.7,29.3,32.1,38.3,53.2c12.6,29.7,18.5,58.3,48.2,71.1c9.6,4.1,32.1,10.1,46.5,7.8
	c4.4-0.1,8.8-0.1,13.3-0.2c6.2-0.3,12.5-0.6,18.7-0.8c8-1.2,22.1-1.3,30.1,0c25.9,4.3,45,10.8,58.1,27.6c4.5,5.8,8.3,12.6,10.9,20.2
	c1.5,4.5,2.3,9.6,3.2,14.7c2.8,16.9-4.1,35.3-9.9,45c-3.9,6.7-7.8,12.6-12.4,18.5C1059.7,707.4,1041.9,718.8,1041.9,754.1z
	 M125.4,113.2c5.7,7.2,3.4,23.8-0.6,30.7c-9.8,16.8-26.4,24-31.6,46.1c-0.6,2.7-1.6,6.7-1.1,10.3c2,12.2,7.6,18.6,17.3,22.9
	c4.2,1.8,11.7,4.1,14.3,7.6c-10.3-1.8-22.6-1.8-30.3-6.3c-12.4-7.3-13.5-26.4-7.4-41.7c3.1-7.7,7.4-14,12.2-20
	C109.7,148.5,128,140.6,125.4,113.2z M56,124.1c0.6,0.1,1.1,0.1,1.7,0.2c6.4,2.6,8.2,14.6,5.3,22.3c-1.3,2.3-2.7,4.6-4,6.9
	c-0.1,0-0.3,0-0.4,0c0.5-9.3-4.8-21.4-3.2-29C55.5,124.4,55.7,124.3,56,124.1z M487.9,137.2c0.1,0.1,0.1,0.3,0.2,0.4
	C488.1,137.5,488,137.3,487.9,137.2z M487.7,137.6c0.1,0.2,0.1,0.4,0.2,0.6c-0.1,0-0.1,0-0.2,0C487.7,138,487.7,137.8,487.7,137.6z
	 M487.5,138.2c1,3.5-6.1,16.3-7.8,19.1c-4.3,7.4-9.1,13.7-15.8,18.7c-10.8,8.2-24.1,13.9-32.8,24.2c-6.3,7.4-11.3,15.4-14.5,26.1
	c-5.9,19.9-3.3,44.8-6.9,67.5c-0.8,10-1.7,20.1-2.5,30.1c-0.2,5-0.4,10.1-0.6,15.1c5.2,32.7,24.5,39,51.6,49.2
	c8.1,3,16,5.9,22.3,10.7c16.3,12.5,14.4,33.8,18.9,57.9c1.7,11.1,3.4,22.2,5,33.2c-2.2-9.3-4.5-18.7-6.7-28
	c-4.9-20.3-7.1-46-21.7-56.8c-7.3-5.4-16.5-7.9-25.7-11.6c-21.8-8.6-43.5-17.5-51.3-40c-4.7-13.4-1.6-35.1,0.8-49.2
	c0.6-8.2,1.3-16.4,1.9-24.6c0.6-9,1.1-18,1.7-26.9c3.9-23.9,4.7-38.7,17.7-53.7c9.5-10.9,23.4-16.5,36-24.4
	C468.9,167.6,483.1,152.8,487.5,138.2z M417.4,186.8c0.4,0,0.8,0,1.3,0c-0.1,0.1-0.1,0.3-0.2,0.4c-10.7,1.1-19.8,15.1-20.8,26.5
	c-0.1,0-0.1,0-0.2,0c-1.1-9.2-7.2-22.9,4.2-26.3C406.9,187.3,412.2,187,417.4,186.8z M209.8,218c0.1,0,0.3,0,0.4,0
	C210,218,209.9,218,209.8,218z M1085.3,218.8c8.1,0.9,16.2,15.7,17.5,24c-0.1,0-0.1,0-0.2,0c0-0.1,0-0.3,0-0.4
	c-1.8-2.5-3.5-5.1-5.3-7.6c-4.1-4.8-10.2-10.4-16.6-12.8c0.1-0.2,0.3-0.4,0.4-0.6C1082.4,220.7,1083.9,219.7,1085.3,218.8z
	 M798.1,232.3c0.1,0.2,0.1,0.4,0.2,0.6c-0.1,0-0.1,0-0.2,0C798.1,232.7,798.1,232.5,798.1,232.3z M798.3,233.3
	c1.3,3.3,2.7,6.6,4,9.9c4.9,8.7,11.7,15.6,20.2,20.6c17.6,10.4,43.6,10.5,67.1,15.4c36.7,7.7,72.1,14.4,99.3,31.4
	c15.1,9.4,25.6,21.6,32.4,39.3c6.3,16.4,4.9,38.9,9.5,57c4.5,18,11.4,32.5,21.3,45c10.3,13.1,24.3,21.1,44.6,24.4
	c11.7,1.9,23.4-1.6,34.5-0.2c-0.1,12.6-0.1,25.1-0.2,37.7c0-0.1,0-0.3,0-0.4c-1.1-2.4-2.1-4.8-3.2-7.2c-2.4-5.5-6-11.1-10.9-14.1
	c-7.9-4.8-22.9-3.2-32.4-6.1c-16.4-5-30.2-15.6-39.6-27.8c-10.5-13.7-17.6-29.3-22.7-48.6c-4.8-18-3.5-39.9-9.7-55.8
	c-8.3-21.1-24.7-35.4-45-44.4c-25.2-11.1-53.9-17.2-84.4-23.8c-13.3-2.1-26.7-4.2-40-6.3C819.4,273.5,799.1,261.8,798.3,233.3z
	 M22.3,243.4c0.1,0.5,0.3,1,0.4,1.5c-0.1,0-0.1,0-0.2,0C22.4,244.4,22.4,243.9,22.3,243.4z M22.7,244.9c0.1,0.1,0.1,0.3,0.2,0.4
	C22.9,245.2,22.8,245,22.7,244.9z M23.1,246c0.1,0.4,0.3,0.7,0.4,1.1c-0.1,0-0.1,0-0.2,0c0-0.1,0-0.3,0-0.4
	C23.3,246.4,23.2,246.2,23.1,246z M23.6,247.6c0.1,0,0.3,0,0.4,0C23.8,247.6,23.7,247.6,23.6,247.6z M23.8,248.1c0.1,0,0.3,0,0.4,0
	C24,248.1,23.9,248.1,23.8,248.1z M0,293.3c4.9,5.3,7.9,11.5,14.3,15.4c3.6,2.1,10.8,2.5,13.5,4.2C20.9,313,14,314.7,7.6,312
	c-2.9-1.2-4.9-3.6-7.6-4.8C0,302.6,0,297.9,0,293.3z M75.5,310.1c4.1,0.1,8.1,0.1,12.2,0.2c12.2,2,22.2,3.6,30.3,9.5
	c9.3,6.7,14.6,17.1,21.7,26.1c7.4,9.5,17.4,16.7,29.5,21.5c12.2,4.9,26.7,5.9,41.5,8.4c7.5,0.6,15,1.3,22.5,1.9c8,0.6,16,1.1,24,1.7
	c12.5,2.1,24.9,2.3,36.8,4.8c46.2,9.7,89.6,20.9,102.5,63.8c1.9,6.3,2,13.1,3.2,20.4c1.5,9.4-0.7,22.7-2.3,30.1
	c-2.3,10.3-4.4,19.6-9,27.6c-11.1,19-27.9,31.6-39.1,50.5c-12,20.3-14.4,46.6-22.9,70.7c-5.6,15.9-13.2,29.8-17.3,47.1
	c-2.8,12-0.7,24.7,5,31.6c12.9,15.4,46.6,6.4,70.7,10.3c13.4,2.2,25.9,2.5,36.8,6.7c4.8,2.2,9.5,4.3,14.3,6.5
	c2.2,1.5,4.5,2.9,6.7,4.4c0,0.1,0,0.1,0,0.2c-5.8,0-11.5,0-17.3,0c-4.9-1.7-10.1-4.6-15.8-6.3c-6.7-2-14.1-1.9-21.9-3.2
	c-7.2,0-14.3,0-21.5,0c-5.5,0.1-11.1,0.1-16.6,0.2c-17.8,0-33.3-0.5-43.3-8.4c-7.9-6.3-12.3-21.1-9.5-36c3.7-19.4,10.7-33.7,17-49.9
	c8.6-21.8,12.2-48.8,21.5-70.1c4.5-10.3,10.7-19.5,17.3-27.8c7.1-9,15.8-16.5,22.1-26.5c6.8-10.8,9.8-22.6,12.4-37.9
	c1.4-8,1.7-17.8,0.2-25.9c-1.3-6.8-2.8-12.8-5-18.3c-3.7-8.8-9.2-17-16.2-22.5c-20.4-16.2-46.5-23.3-77-29.9
	c-10.8-1.4-21.6-2.8-32.4-4.2c-6.7-0.5-13.5-1-20.2-1.5c-24.6-4-50-2.3-70.3-10.3c-11.3-4.4-20.8-10.8-28.2-19.1
	c-13.3-15.1-18.1-30.1-40.6-36.8c-28.3-8.5-53.4,4.3-71.3,13.5c-7,3.5-20,5.6-25.9-0.6c0-3.4,0-6.9,0-10.3c2.3,1.3,4.7,2.6,7.8,3.2
	c6,1.1,11.2-1.7,15.1-3.2c9.3-3.4,18.4-6.8,28.4-9.3c5.5-0.8,11.1-1.7,16.6-2.5C70.5,310.4,73,310.3,75.5,310.1z M1122.1,310.1
	c1.3,2.4,2.7,4.8,4,7.2c1.7,1.7,3.4,3.4,5,5c-0.1,3.4-0.1,6.7-0.2,10.1c-0.3-0.2-0.6-0.4-0.8-0.6c-1.1-1.5-2.1-2.9-3.2-4.4
	C1124.2,322.9,1122.5,316.7,1122.1,310.1z M70.3,332c50.9-0.9,53.5,39.5,86.9,55.1c15.2,7.1,32.3,7.5,52,10.7
	c6.7,0.4,13.5,0.8,20.2,1.3c12.6,1.3,25.1,2.5,37.7,3.8c47.5,8.9,93.6,14.8,103.7,61c1.5,7,1.5,16.9,0.2,24c-2,11.1-3.9,19.8-8,28.4
	c-4.9,10.4-13.1,18.3-19.8,26.9c-5.4,6.9-10.2,14.1-14.7,21.9c-10.3,17.6-13.7,40.2-20.4,61.6c-5.3,17.1-12.6,32.4-18.9,48.4
	c-11.3,28.8-15.4,70.9,18.3,78.7c0,0.1,0,0.1,0,0.2c-6.9,0-13.7,0-20.6,0c-1.9-2.2-3.8-4.3-5.7-6.5c-3.5-5-6.1-11.3-7.8-18.1
	c-3.1-12.2-0.8-27.8,1.9-38.5c6.2-24.3,16.3-43.9,23.6-67.1c3.2-12.2,6.3-24.4,9.5-36.6c4.5-14.7,10.1-28.4,17.5-40.2
	c4.7-7.5,11.1-13.6,16-20.8c8.2-12,13-23.2,16-41c1.1-6.4,0.8-14.7-0.6-20.6c-1.2-5-2.9-9.7-5.3-13.7c-16.8-27.8-57.4-31-95.3-37.9
	c-10.4-1.1-20.9-2.1-31.4-3.2c-6.5-0.4-13-0.8-19.6-1.3c-17.7-2.9-34.2-3.3-48-9.3C127.2,386.2,121,352,87.5,343
	c-26.6-7.2-45.7,8.8-61.9,17c-5.7,2.9-19.9,6.5-25.7,0.8c0.1-3.6,0.1-7.2,0.2-10.7c19.1,10.5,33.1-6.7,47.3-12.8
	c4.8-2.1,10.4-3.5,16-4.6C65.8,332.4,68,332.2,70.3,332z M695.2,339.8c1.3,3.9,2.7,7.9,4,11.8c3.6,8.6,11,21,19.6,24.2
	c0,0.1,0,0.1,0,0.2C705.1,373.8,695.9,355.4,695.2,339.8z M73.2,357.3c34.8-0.3,51.2,22.1,58.7,49.4c1.9,7.1,5,20.2,3.6,29.7
	c-0.5,6.7-1,13.3-1.5,20c-2.2,12.8-5.5,31.4-1.5,44.4c6.1,19.7,25.5,24.3,45.9,29.9c5.8,1.6,11.6,3.2,17.5,4.8c0,0.1,0,0.1,0,0.2
	c-6.4-0.2-13.1-1.7-18.7-2.9c-22.2-4.7-42.2-8.2-49.2-28c-3.9-11-2.3-28.3-0.2-40.2c0.6-6.1,1.1-12.2,1.7-18.3
	c0.8-5.1,0.6-12.1-0.2-16.8c-0.4-4.1-0.8-8.1-1.3-12.2c-2.8-13.2-7.5-23.2-14.5-32c-3.7-4.6-9.3-8.6-14.7-11.4
	c-24-12.3-48.9,0.2-68,8c-7.5,3.1-19.9,8.4-30.7,5.3c0-3.9,0-7.7,0-11.6c23.2,3.1,35.1-6.8,51.3-13.5c4.5-1.8,9.4-3.1,14.5-4.2
	C68.3,357.7,70.8,357.5,73.2,357.3z M893.2,370.9c29,1.6,48.4,8.5,56,32c9.2,28.4-2.7,64,15.4,85.4c15.7,18.7,50.6,10.4,79.1,15.6
	c36,6.6,58.2,18.1,75.7,42.9c3.9,5.5,9.6,12.5,11.8,19.4c0,6.9,0,13.7,0,20.6c-0.1-0.1-0.3-0.1-0.4-0.2c-1.5-9.2-8.6-20.3-13-27.4
	c-16-25.6-37.7-39.9-73-46.5c-31.9-6-71.1,2.8-88-18.3c-8.9-11.1-9.8-21.8-12-40c0.1-3.4,0.1-6.7,0.2-10.1c0.2-10.3-0.2-20.5-2.3-29
	c-5.9-23.8-18.2-31.1-39.6-39.3c-4.8-1.9-10.5-3.9-15.6-4.6c0-0.1,0-0.1,0-0.2C889.4,371.1,891.3,371,893.2,370.9z M0,416.8
	c0-4.6,0-9.1,0-13.7c22.2,0.9,38.5-8.7,56-14.7c9.5-3.3,24.6-5.3,35.1-1.3c4.2,1.6,8.1,3.9,11.4,6.5c13.2,10.5,18.7,37.7,14.1,61.6
	c-3.1,16.2-8.2,37.9-2.7,55.1c7.1,22.5,29.2,26.7,53,32.6c9.6,2.4,34.9,10,43.6,3.4c10-7.7-0.7-19.5-7.2-22.7
	c-6.6-3.3-14.8-3.8-22.9-5.7c-11-2.6-20.6-5-28-10.9c-8.7-6.9-12.4-22.8-8.8-38.1c4.6-19.8,11.6-35.6,28.6-42.9
	c17.1-7.4,52.6-4.9,72.6-1.3c38.8,7.1,81.1,7.6,91.7,42.7c1.9,6.3,2.6,14.9,1.3,22.3c-1.2,6.2-2.1,12.1-4.2,17.5
	c-3.1,8.1-6.7,17.7-11.8,24.2c1.4-4.4,2.8-8.8,4.2-13.3c4.6-15.1,8-39.1,0-53c-16.6-28.8-59.2-27.8-98.7-33.9
	c-3.1-0.1-6.2-0.1-9.3-0.2c-19.3-2.9-40.3,2.5-50.1,10.3c-13.2,10.4-21.4,43.7-4.6,56.6c17.6,13.6,48.6,5.6,60.8,25.9
	c3.2,5.3,5.5,14.2,2.5,21.7c-1.9,4.9-5.6,7.6-8.6,11.4c0.1,0.2,0.3,0.4,0.4,0.6c9.9,4,15.2,19.7,11.8,34.3
	c-3.9,16.8-11.1,28.1-19.6,40c-2.3,3-4.6,6-6.9,9c4-13.5,11.7-24.6,15.4-39.1c0.5-3.1,1-6.2,1.5-9.3c0.9-5.3-0.4-11.2-1.7-14.7
	c-6.5-18.2-26.2-17.2-45.9-22.1c-29.8-7.4-57.5-10.3-68.2-36.6c-14.3-35.2,21.5-94.6-12.6-115.9c-8.4-5.3-23.4-5.9-34.5-2.5
	C38.8,406.4,23.4,415.8,0,416.8z M924.1,402.9c0.1,0.1,0.1,0.3,0.2,0.4C924.2,403.2,924.2,403.1,924.1,402.9z M924.5,403.8
	c0.1,0.1,0.1,0.3,0.2,0.4C924.7,404,924.6,403.9,924.5,403.8z M924.7,404.4c5.8,4.1,6.9,21.6,8.2,31.4c1.5,11.5-3.6,24.2-1.5,37.2
	c2.3,14,5,23.8,12,32.6c17.4,21.9,63,12.3,96.2,18.7c37.3,7.2,59.3,21.4,74.5,50.5c12.4,23.8,18.8,64.3,10.3,97.6
	c-1.7,6.6-3.8,13.1-6.3,18.9c-2.8,6.5-6.5,12.1-8,20c-2.5,13.4,10.3,16.7,21,14.1c0,4.1,0,8.1,0,12.2c-14.1,3.8-38.1,2.8-34.9-16.2
	c3.1-18.8,13.6-30.7,18.9-48c9.5-30.5,4.2-71.5-9-94.1c-14-24-33-37.7-65-44c-34.3-6.8-75,2.6-98.5-15.1
	c-12.4-9.4-21.7-30.3-17.5-53.9c1.6-9.1,2.6-17.7,4.2-27.6c0.1-3.4,0.3-6.9,0.4-10.3c-0.7-5.2-1.4-10.4-2.1-15.6
	C926.7,410.2,925.7,407.3,924.7,404.4z M64.2,414.1c19.9-0.3,26.8,7.4,29.7,24.2c0.7,4,0.9,10.1,0.2,14.5
	c-3.9,23.5-10.5,55.7-1.3,77.9c6.3,15,19,24.4,36.2,28.4c7.2,0.9,14.3,1.8,21.5,2.7c22.7,4.3,46.1,6.6,53.4,26.1
	c5.7,15-5.3,37.7-9.7,48.8c-12.2,31.3-28.8,83.5-8.4,117.4c-3.6-0.1-7.2-0.1-10.7-0.2c-1.4-3.1-2.8-6.2-4.2-9.3
	c-2.2-5.4-3.7-11.5-5-17.7c-3.8-17.6,1.5-38.2,5.9-52.4c5.9-17.6,11.8-35.2,17.7-52.8c2.2-7.1,6.2-17.4,4-26.9
	c-4.5-19.7-23.1-23.3-43.6-27.1c-8.2-1.6-16.4-1.3-24-3.4c-10.1-2.7-18-6.8-25-12.4c-15.2-12.2-22.4-39.5-17.7-66.9
	c2.8-16.5,7.4-43.1-2.1-55.3c-4.4-5.6-15.5-7.3-25-5.3c-12,2.6-23,6.3-34.5,9.5c-7.2,1.4-14.3,2.8-21.5,4.2c0-2.7,0-5.3,0-8
	c15.9-1.9,29.6-7.4,43.3-11.6c4.4-1.1,8.8-2.2,13.3-3.4C59.1,414.8,61.6,414.4,64.2,414.1z M468.8,415.3
	c8.2,7.1,12.6,26.7,15.8,39.1c3.5,13.5,10.5,39.6,7.2,55.5c-4,19.1-14.3,34.4-23.4,48.8c-3.9,6.2-13.9,22.1-19.8,25.2
	c0-0.1,0-0.1,0-0.2c3.8-12.8,9.7-21.6,15.8-32c5-8.7,8.7-19.6,11.8-29.7C486,490,476.9,444.2,468.8,415.3z M149,419.1
	c1.9,0.5,3.2,1.4,4.2,2.7c-0.6,2-2,4-3.4,5.3c-0.1,0-0.1,0-0.2,0C149.8,424.7,149.3,421.5,149,419.1z M0,460.2c0-3.8,0-7.6,0-11.4
	c18.3-0.6,51.3-17,67.3-4.8c7.2,5.5,8.6,20.1,6.5,31.8c-4.2,23.3-5.2,45.3,3.4,65c7.2,16.5,20.3,28.1,38.9,33.2
	c17.7,4.9,42.8,1.5,55.3,12.2c16.2,13.8-0.4,47.4-5.3,62.9c-1.5,6.3-3.1,12.6-4.6,18.9c-0.2-22,13.5-56.3,0.6-72.6
	c-9.8-12.3-33.8-8.6-50.9-13.7c-20.3-6.1-33.7-19.3-41.7-37.7c-7-16.2-9.4-38.3-5.7-58.9c2.1-11.3,2.8-25.7-4.8-31.1
	c-4.4-3.1-12.6-3.6-19.4-2.1C26.8,454.8,13.9,459.1,0,460.2z M205.6,444.2c19.1-0.3,36.6,1.5,52.4,5c20.5,4.5,43.1,7.3,53.4,21.9
	c14.5,20.5-0.5,59.6-6.5,79.1c-8,25.9-13,53.8-21.9,79.1c-7.6,21.6-16.8,40.5-23.1,63.5c-3,10.8-4.7,27.5-1.3,39.3
	c2.5,8.5,6.1,15.3,10.3,21.9c-4.3,0-8.6,0-12.8,0c-2-4.8-4.1-9.7-6.1-14.5c-4.3-13.7-4.5-31.4-0.8-45.9c6.1-24.1,16.6-44.3,25-66.5
	c9.3-24.6,13.2-53.1,20.6-79.5c4.4-15.6,15.1-45.8,7.4-64c-9.1-21.2-43.2-21.4-69.9-25.7c-7.2-1.1-20.4-1.4-27.8-0.2
	c-10.6,1.7-20.6,2.9-22.7,13c-0.7,3.2,0.3,6.3,1.7,8.2c6.8,9.1,28.8,7.5,40.8,11.2c23.8,7.3,28.6,25.4,29.2,54.3
	c0.2,8.3-0.8,17.4-2.1,24.8c-2.6,14.5-4.1,27.9-8.8,40.2c-6.4,16.5-14.7,30.8-21.7,46.7c-8.1,18.5-19.7,46.5-13.3,74.3
	c2.1,8.9,5.5,16.1,8.4,23.6c-3.9,0-7.9,0-11.8,0c-2.4-7.8-5.6-15.3-7.4-24.4c-2.8-14.3-0.1-31.1,3.2-42.7
	c4.5-16.1,10-29.8,16.6-43.6c5.3-11.1,11.6-21.6,16.4-33.5c5-12.3,7.3-26.2,10.1-41c0.6-6.7,1.1-13.3,1.7-20
	c0.7-4.1-0.2-9.2-0.8-12.6c-3.7-21.5-8.7-32.6-28.2-38.3c-12.2-3.6-27.5-2.3-37-8.4c-17-10.9-8.7-35.1,6.3-41.7
	c4.1-1.8,8.8-2.5,13.9-3.4C201.2,444.4,203.4,444.3,205.6,444.2z M209.1,467.1c27.6-0.4,56.1,3.7,68,20c11.4,15.7,6,45.5,1.5,65.2
	c-6,26-9.8,51.5-18.7,74.1c-8.7,21.9-20.6,40.5-26.7,64.8c-3.6,14.5-3.9,34.9,0.6,48.6c1.7,5.1,4.2,9.7,6.1,14.3c-2.6,0-5.2,0-7.8,0
	c-1.5-3.3-2.9-6.6-4.4-9.9c-2.1-5.4-3.4-11.5-4.6-17.7c-5.7-28.4,8.8-57.7,17-76.4c5.6-12.7,11.6-25.2,16-39.1
	c3.1-9.8,4.8-19.9,7.2-30.5c4.9-21.7,14.2-67.4,1.5-85.4c-14.1-19.9-42.7-16.4-68.8-23.8C197.6,466.8,204.4,468.9,209.1,467.1z
	 M36.6,469.8c1.4,0.3,2.8,0.6,4,1.5c-0.1,4.1-2.9,7-4.2,10.1c-2.5,5.9-5.1,15.6-3.6,24.6c4.4,27,14,48,25.7,68
	c7.9,13.5,14.3,26.5,27.4,34.7c5.5,3.5,12.3,5.9,19.6,7.6c15.9,3.7,34.2,1.5,41.7,13.5c3.5,5.6,5,16.2,3.4,25.5
	c-2.5,14.6-3.4,28.8-5.9,44c-2.3,14.1,2.4,33.7,6.1,43.1c1.8,3.9,3.6,7.9,5.5,11.8c-3.9,0-7.9,0-11.8,0c-4.1-8.6-7.4-17.7-9.7-28.4
	c-0.5-5.3-1-10.5-1.5-15.8c0-5.1,0-10.2,0-15.4c0.6-5.8,1.1-11.5,1.7-17.3c1.7-9.4,4.8-23.7,1.5-33c-4.4-12.5-20-11.5-33.7-14.9
	c-6.3-1.6-12.6-3.6-17.7-6.5c-18.6-10.8-27.6-29.7-36.6-50.1C40.8,555.6,32,539,26.1,520.1c-4.4-13.9-6.4-39.2,4.4-47.6
	C32.3,471.1,34.2,470.9,36.6,469.8z M51.5,473c0.8,2.2,0.1,5.5-0.4,8.4c-1.5,8.6-2.8,19.6-1.3,28.8c4.3,25.7,12,46.1,25.2,62.7
	c9.2,11.5,22.5,18.7,39.8,22.3c15.5,3.2,43.3-0.3,40.6,19.6c-0.1-0.1-0.1-0.3-0.2-0.4c-3.2-3.3-3.7-6.7-8.6-8.6
	c-7.6-3-18.2-1-27.8-2.5c-9-1.5-16.5-2.6-23.6-5.7c-24-10.5-36.3-38.5-45-64.4c-2.6-7.7-6.8-21.2-5-32.4c0.9-5.6,1.2-12.6,2.7-18.1
	C49.2,479.4,50.3,476.2,51.5,473z M0,476.1c12.4,1.5,8,10.6,9.9,22.1c1,6.3,2,12.3,4,17.7c7.6,20.3,17,39,25,59.3
	c6.8,17.2,11.4,35.3,21.9,48.6c6.5,8.3,16.5,14.2,28,17.5c13.4,3.8,29.5,3.2,33,16.8c2.8,10.9-3.3,21.6-6.7,28.8
	c-7.3,15.4-18,45.2-11.2,67.1c-3.6-0.1-7.2-0.1-10.7-0.2c-0.6-4.3-1.1-8.6-1.7-12.8c-2.3-13.4,2.8-29,6.3-37.7
	c3.7-9.1,16.2-28.1,10.7-41.2c-4.4-10.6-17.4-11.6-28.8-15.1c-9.7-3-18.9-7.8-24.6-14.9c-13.1-16.4-18.2-41.2-26.9-61.9
	c-5.8-13.6-12.1-27.1-19.4-39.6c-2.9-5.3-5.9-10.7-8.8-16C0,501.8,0,489,0,476.1z M912.5,489.8c0.1,0.1,0.1,0.3,0.2,0.4
	C912.7,490.1,912.6,490,912.5,489.8z M504.6,490.2c0.1,0.2,0.1,0.4,0.2,0.6c-0.1-0.1-0.3-0.1-0.4-0.2
	C504.4,490.5,504.5,490.4,504.6,490.2z M698.1,520.5c6.7,0.1,13.3,0.3,20,0.4c28.5,4.7,44.7,10.1,52.6,35.6
	c2.1,6.8,4.5,17.2,2.9,26.5c-0.8,5-1.7,10.1-2.5,15.1c-2.3,8.4-5.3,16.6-9.5,23.4c-5.1,8.2-11.7,15.4-19.6,20.8
	c-3.8,2.4-7.6,4.8-11.4,7.2c-2.9,2.2-6.3,7.4-4.2,12.6c4.6,11.3,32.4,23.1,43.6,29.9c25.6,15.6,48.7,34.8,62.5,62.1
	c-4.1,0-8.3,0-12.4,0c-2.3-6.9-9-12.8-13.3-18.1c-15.4-19.3-37-31.7-58.9-44.6c-11.2-6.6-32.7-14.8-37.7-26.7
	c-7.2-17.4,20.1-25.6,28.8-32c16.1-11.9,33.8-45.8,22.5-74.5c-4.6-11.7-13-20.1-24.4-25c-17.2-7.4-47.8-7.3-69.2-3.4
	c-8.4,1.5-16,1.7-23.8,3.8c-37.9,10.2-66.6,24.9-85.6,53.7c-14.4,21.8-20.3,51.7-34.1,73.9c-8,12.8-18.5,25.9-30.1,35.1
	c-6.3,5-16.3,11-18.7,19.6c-1.5,5.5,1.1,10.4,3.2,13.7c5.3,8.7,12.3,15.8,17.3,24.6c-2.2,0.1-8.2,0.8-9.5-0.4
	c-7.7-9-15.4-18.1-23.1-27.1c-1.8-2.6-4.2-6.9-3.2-11.4c1.9-8.5,10.6-13.7,16.6-18.3c10.5-8,20.5-17.4,28.6-27.8
	c9-11.6,16.1-25.2,22.1-39.8c6.2-15,11-30.7,18.9-44c11.3-18.9,28-32.9,48-43.1c19.3-9.9,41.2-13.9,66.5-18.5
	c8.4-0.8,16.8-1.7,25.2-2.5C690.3,521,694.2,520.8,698.1,520.5z M954.4,754.1c-2.4-0.1-4.8-0.1-7.2-0.2c-0.7-6.4-1.4-12.8-2.1-19.1
	c-2.9-16.3-2.9-30.2-11.2-40.6c-9.4-11.9-35.8-15.2-51.6-21.3c-28.6-11.1-53.9-22.9-70.5-45.7c-6.2-8.5-10.3-18.7-12.6-31.1
	c-3-16.1-0.6-31.8-6.3-45c-4.2-9.7-11.6-15.7-20.8-20.4c-2.7-1.1-5.3-2.1-8-3.2c0-0.1,0-0.1,0-0.2c15.4,0,27.6,4,34.1,14.7
	c5.4,8.9,6.2,19.6,8.2,32.2c0.4,6.1,0.8,12.2,1.3,18.3c1.9,10.2,5.1,18.8,9.9,26.1c15.6,23.5,42.4,37.2,71.5,47.1
	c16.1,5.5,44.2,6.6,54.9,17.3c9.1,9.1,5.9,26.4,8.4,42.5C953.1,735,953.8,744.6,954.4,754.1z M195.9,535.7c0.3,0,0.6,0,0.8,0
	c0,0.1,0,0.1,0,0.2C196.4,535.8,196.2,535.8,195.9,535.7z M691.6,535.7c4.6,0.1,9.1,0.3,13.7,0.4c15.4,2.6,29.1,5.6,37,15.6
	c16.8,21,8.1,53.7-9.3,67.8c-5.1,4.1-10.3,8.4-16.6,11.2c-13.9,6.1-42.4,11.3-32.4,35.1c6.8,16.2,30.5,25,45.4,33.7
	c26.6,15.5,52.6,29.6,69.6,54.5c0,0.1,0,0.1,0,0.2c-4.6,0-9.1,0-13.7,0c-3.9-6.5-11.7-12.3-17.7-16.8c-7.5-5.7-15.1-11.6-23.4-16.6
	c-10.4-5.7-20.8-11.4-31.1-17c-13.4-7.8-28.1-13.6-37.2-25.7c-14.4-19-10.5-45.7,15.6-49.4c-1.3-0.4-2.7-0.8-4-1.3
	c-3.4-1.5-6.9-3.1-10.3-4.6c-3.6-1.8-7.3-3.7-11.8-4.8c-6.1-1.5-13.4-0.2-17.9,1.7c-21.5,9-25.5,42.4-15.1,66.9
	c11.6,27.4,38.9,40.6,64.6,53.9c6.7,3.4,13.3,6.6,19.6,10.3c2,1.2,4.1,2.4,6.1,3.6c-7.7,0-15.4,0-23.1,0
	c-7.1-3.8-14.2-7.6-21.3-11.4c-6.1-3.2-12.2-6.5-18.3-9.7c-16.6-10.2-31.1-23.3-38.9-42.3c-5.2-12.5-8.3-32.7-4.2-49
	c2-8,5-15.2,9.3-21c7.3-10,24.2-21.3,41.5-13.9c9.7,4.2,15.1,13,26.3,15.8c11.6,2.9,23.7-5.7,29.2-10.1c18.1-14.4,23.8-46.9,1.3-61
	c-24.8-15.5-70.8-4.8-92.8,5.7c-28.7,13.7-46,29-61.6,55.8c-9.4,16.1-13.2,36.7-21.5,53.9c-7.1,14.8-17.4,26.2-25.7,39.8
	c-3.1,5-7.9,12.3-6.3,21.5c1.1,6.3,2.2,11.9,4.4,17c1.4,3,2.8,6,4.2,9c-4.2,0-8.4,0-12.6,0c-3.6-10.2-15.9-21.4-10.9-37.7
	c3.3-10.7,11.1-17,17.3-24.8c6.6-8.5,13.2-16.9,18.9-26.3c12.6-20.6,18-48,30.5-68.4c11.3-18.4,27.3-30.9,46.1-41.9
	c14.4-8.4,31.7-12.8,50.3-16.8c5.7-0.7,11.4-1.4,17-2.1C685,536,688.3,535.8,691.6,535.7z M0,540.7c4.4,4.3,7.1,11.4,10.3,16.8
	c8.4,14.2,14.3,30.5,19.8,47.8c3.8,12.1,6.1,24.8,10.9,36c2,4.7,5,9.7,10.1,11.4c3.3,1.1,7.9,0.6,12,0.6c9.9,0,20.1,1.1,24.6,6.9
	c4.7,6.1,3.1,16.9,0.2,23.8c-5,11.9-13,20.5-16.8,34.1c-2.2,7.7-1.3,16.4-2.7,24.8c-0.7,4,0.1,7.8-0.8,11.2c-4.1,0-8.3,0-12.4,0
	c0-0.1,0-0.1,0-0.2c5.2-10.1,2.7-26.2,6.3-38.3c2-6.8,5-13,8.4-18.5c2.6-4.2,5.9-8.1,7.6-13.3c2.7-8.5-1.3-15.7-8-17.5
	c-13.7-3.6-22.1,8.4-26.7,15.8C29.3,703.5,25.2,727.5,0,737.7c0.1-4.1,0.1-8.3,0.2-12.4c17.5-2.7,24.8-36.9,33.5-50.5
	c2-3.2,5.2-6.8,8.2-9c2.1-1.3,4.2-2.5,6.3-3.8c-8,1.6-15.1-0.9-17.5-6.3c-2.5-5.7-2-13-3.2-20.2c-2.2-13.3-2.6-26.6-6.1-38.5
	c-3.3-11.4-6.8-22.4-11.8-32.2C5.8,557,0,552.1,0,540.7z M681.1,555.3c16.4-0.3,31.1,1.4,38.3,10.5c9.7,12.3,2.9,31.5-6.7,39.1
	c-2.2,1.4-4.5,2.8-6.7,4.2c-17.2,7.1-28.2-9.4-38.3-14.5c-9.4-4.8-23.4-3.1-32,1.3c-14.5,7.4-25.8,20.1-30.9,36.8
	c-9.8,31.6-1.8,65.1,13,84.6c7.8,10.2,18.3,19,29.2,25.9c6.2,3.6,12.5,7.3,18.7,10.9c-8,0-16,0-24,0c-4.6-3.3-9.1-6.6-13.7-9.9
	c-16.1-11.9-29.2-27.9-35.3-49.7c-7.7-27.3-0.6-62.2,10.9-80.6c8.8-13.9,21.8-23.9,38.7-29.7c6.5-2.2,17.5-3.9,24.8-1.1
	c8.6,3.3,21.8,18.8,31.4,17c16.3-3,18.9-24.1,5.7-32.4c-19.2-12.1-55.9,1-70.5,8c-24.5,11.7-41.4,30.5-51.6,56.6
	c-4.3,15.1-8.7,30.3-13,45.4c-4.3,10.8-9.5,20.7-15.1,30.3c-4.2,7.2-9.6,17.7-7.2,29.9c1.2,6,3.8,10.7,5.5,16c-3.5,0-7,0-10.5,0
	c-1.3-3.3-2.7-6.6-4-9.9c-1.5-4.2-1.9-8.8-2.7-13.7c-1.3-7.6,1.9-14.6,4-19.4c5.9-13.5,14.8-24.3,20.8-38.1
	c7.1-16.2,11.4-35.2,18.5-51.3c10.8-24.5,31.4-41.8,55.1-53.4c9.4-4.6,19.7-7.9,30.9-10.7C670,556.8,675.5,556,681.1,555.3z
	 M859.9,556.1c2.9,3.1,5.7,10.7,8.6,14.5c10.2,13.5,25.5,24.6,43.6,30.1c8,2.4,16.5,3.6,25.7,5c5,0.2,10,0.4,14.9,0.6
	c6.4,0.1,12.8,0.1,19.1,0.2c20.1-3,48.3-1.8,61,5.9c8.6,5.2,17.3,15,13.5,30.3c-1,4.1-2.5,8.2-4.2,11.6c-3.1,6.2-6.8,13.4-11.6,18.1
	c-0.1,0-0.1,0-0.2,0c0-0.1,0-0.1,0-0.2c2.2-5.3,4-11.2,5.3-17.3c11.5-53.4-60.1-31.4-97.8-38.5C897.8,609,867.7,595.6,859.9,556.1z
	 M933.6,754.1c-2.7,0-5.5,0-8.2,0c-4-47.1-31.3-52.7-66.5-67.8c-29.1-12.5-63.8-33.6-73.4-65c-3.2-10.3-2.5-24.7-0.6-36
	c0.1-6.7,0.3-13.5,0.4-20.2c-0.1-1.6-0.3-3.2-0.4-4.8c0.5,4.1,1,8.3,1.5,12.4c-0.1,5-0.1,10-0.2,14.9c-1.1,6.9,0.2,15.3,1.5,20.8
	c5.9,25.1,24.1,42.3,43.1,54.3c13.4,8.5,28.3,14.6,43.6,21.5c15.1,6.8,30,10.7,41.9,20.2c10,8,12.1,22.5,15.4,37.5
	C932.2,746,932.9,750,933.6,754.1z M0,567c4.2,5.1,6.7,15.6,8.8,22.7c2.8,9.1,4.3,18.8,6.1,29.5c0.2,5.2,0.4,10.4,0.6,15.6
	c-0.1,5-0.1,10-0.2,14.9c-0.2,5-0.4,10.1-0.6,15.1c-0.2,5.3-0.4,10.5-0.6,15.8c-1.9,10.9-6.1,21-14.1,25.7
	c-0.1-12.5,3.3-18.5,5.5-28.6c1.9-8.8,0.8-18.1,2.3-27.8c0.1-5.2,0.3-10.4,0.4-15.6c-1.3-8-0.7-16.3-2.3-23.8
	c-1.6-7.8-4.2-15.5-5.9-22.5C0,581.1,0,574.1,0,567z M674.8,574c9.7-0.3,17.9,0.3,23.1,4.4c2.5,2,4.1,7,0.2,8.8
	c-2.1,1-4.5-0.7-5.9-1.7c-3.1-2.5-6.2-5.1-9.3-7.6C680.2,576.7,677.5,575.3,674.8,574z M664.5,628.7c1.9-0.1,4.3-0.1,5,0.4
	c-4.2,0.2-6.6,2.3-9,4.2c-13.2,9.8-11.2,33.6-2.9,47.1c17,27.8,57.2,39,84,57.7c6.7,4.7,15.5,9.5,20.4,16c-4.7,0-9.4,0-14.1,0
	c-5-6.2-18.3-13.1-25.7-17.5c-25.3-15-57-25.5-72.6-50.3c-7.9-12.5-13.4-37.9-1.3-50.5c2.7-2.8,6.3-5.4,10.5-6.5
	C660.7,629.1,662.6,628.9,664.5,628.7z M482.5,636.7c-0.1,0.6-0.2,0.8-0.8,1.3C481.9,637.5,482.2,637.1,482.5,636.7z M781.9,641.1
	c0.1,0.1,0.1,0.3,0.2,0.4C782,641.4,781.9,641.2,781.9,641.1z M782.1,642.2c0.1,0.1,0.1,0.3,0.2,0.4
	C782.2,642.4,782.2,642.3,782.1,642.2z M782.3,642.6c2,3.3,4.1,6.6,6.1,9.9c8.2,11.2,21.1,20.6,33.5,27.6
	c13.8,7.7,28.7,14.4,43.1,21.5c10.7,5.2,22.8,10.1,29.9,18.9c7.3,9.2,10.9,19.8,13.9,33.7c-3.4,0-6.9,0-10.3,0
	c-3.3-33-32.5-43.5-55.8-57c-10.8-6.3-22-12.2-32.2-18.9C799.4,670.8,783.8,658.9,782.3,642.6z M756.4,651c0.8,2.2,0.4,4.9,1.7,6.9
	c8.2,13.6,34.8,25.1,48.4,34.7c17.6,12.4,33.9,25.3,44.2,45c2.7,5.2,4.3,10.9,6.7,16.4c-2.3,0-4.6,0-6.9,0
	c-8.4-34-41.3-53.5-67.1-70.7C774.9,677.8,752.7,665.2,756.4,651z M331.2,663.4c0.3,5.2,0.6,10.4,0.8,15.6
	c2.6,13.5,8.1,22.7,17.9,28.8c14.8,9.3,38.4,7.4,58.3,11.6c26.1,5.5,50.9,16.5,64,34.7c-3.2,0-6.5,0-9.7,0
	c-10.5-14.2-34.4-22.4-55.1-26.9c-31.2-6.8-63.2-1.1-74.9-28c-2.2-5-4.9-12.4-3.6-20.4C329.6,673.7,330.4,668.5,331.2,663.4z
	 M63.1,678.4c2.1,0,2.7,0.5,4,1.1c0,0.5,0,1,0,1.5c-1.9,4.2-4.9,7-7.4,10.5c-4.7,6.6-8.9,14.5-11.6,22.9
	c-4.9,15.6-1.5,30.9-13.5,39.8c-10.5-0.1-21-0.1-31.6-0.2c13.3-0.8,26.1-7.8,30.1-18.1c2.5-6.3,1.8-15.4,4-21.9
	C41.7,700.6,51.1,684.1,63.1,678.4z M320.2,697.1c0.6,2.7,1.3,5.5,1.9,8.2c3.7,9.9,12.7,18,24.4,19.8c0,0.1,0,0.1,0,0.2
	C329,725.5,320,715.9,320.2,697.1z M1130.9,697.3c0.6,1.4,0.7,8.1-0.2,9c-1.1,1.2-3.4,2-5.5,2.1C1127.2,704.7,1129,701,1130.9,697.3
	z M571.7,712c17.3-0.1,26.6,17.2,33.5,28c3.4,4.7,6.7,9.4,10.1,14.1c-3.9,0-7.7,0-11.6,0c-1.1-4.4-15.1-22.6-18.7-25.2
	c-1.8-1.3-5.1-3.4-8.4-2.3c-10.3,3.4-2.7,21.1-0.6,27.6c-3.7-0.1-7.4-0.1-11.2-0.2c-1.7-4.3-3.4-8.6-5-12.8
	c-2.7-9.6-0.5-21.7,5.3-26.1C566.9,713.4,569,713.1,571.7,712z M118,717.3c0.4,4.5,0.7,9,1.1,13.5c1.5,8.6,3,16.6,6.3,23.4
	c-2-0.1-4.1-0.1-6.1-0.2c-0.3-5.5-1.6-11.7-2.5-17.7C115.7,729.6,117.8,723.2,118,717.3z M82.3,754.1c-1.5,0.1-2,0.1-2.5-0.8
	c1.5-10.1-2.4-24.3,1.7-33c-0.2,5.8-0.4,11.5-0.6,17.3C81.3,743,81.8,748.6,82.3,754.1z M861.8,722.3c8.3,4.6,13.5,21.9,17.5,31.8
	c-1.2,0-2.4,0-3.6,0c-1.3-8.9-5.6-17.8-9.5-24.6C864.8,727.1,863.3,724.7,861.8,722.3z M346.5,725.3c0.2,0,0.4,0,0.6,0
	C347,725.3,346.7,725.3,346.5,725.3z M347.4,725.5c0.4,0.1,0.7,0.1,1.1,0.2C348.1,725.6,347.7,725.6,347.4,725.5z M1056.9,754.1
	c-0.2-8.1,0.1-23.3,3.6-27.6c-0.4,8.6-0.2,19.4,1.1,27.6C1060,754.1,1058.4,754.1,1056.9,754.1z M582,741.9c2.5,1.3,7.5,9.4,9,12.2
	c-1.3,0-2.5,0-3.8,0C585.5,750,583.7,746,582,741.9z"/>
</svg>
